<?xml version="1.0" encoding="utf-8"?>
<!-- Generator: Adobe Illustrator 27.9.0, SVG Export Plug-In . SVG Version: 6.00 Build 0)  -->
<svg version="1.1" id="Layer_1" xmlns="http://www.w3.org/2000/svg" xmlns:xlink="http://www.w3.org/1999/xlink" x="0px" y="0px"
	 viewBox="0 0 512 512" style="enable-background:new 0 0 512 512;" xml:space="preserve">
<path d="M457.6,136.7c-8.2,0.4-16.4,0.1-24.6,0.1c-0.1-14.7-0.2-29.3-0.4-44c-0.2-16.7-8.9-25.3-25.4-25.3c-94.6,0-189.3,0-283.9,0
	c-2.3,0-4.7,0.2-7,0.3c-1.1,0.5-2.2,0.8-3.2,1.4c-19.7,11.9-39.3,24-59.2,35.6c-3.6,2.1-4.7,4.4-4.7,8.3
	c0.1,99.1,0.1,198.2,0.1,297.3c0,1.6-0.6,3.4,0.9,5.2c2-1.1,3.8-2.2,5.6-3.2c10.1-5.6,19.3-12.5,29.7-17.4
	c0.1,8.7,0.2,17.5,0.1,26.2c0,5.9,2,10.9,5.6,15.5c2.9,3.6,7.3,4.8,10.7,7.6h360.3c0.1-2.3,0.2-4.7,0.2-7V176
	c0-11.3-0.2-22.7,0.1-34C462.8,138.1,461.9,136.6,457.6,136.7z M286.2,310.6c-16,1.8-31.6,1-46.8-4.6c-18.8-6.9-29.8-20.7-33.8-40.2
	c-0.7-3.5-0.4-5.5,4.1-5.3c10.4,0.3,20.7,0.2,31.1,0c3,0,4.5,0.7,5.4,3.8c5.3,16.4,29.7,22.5,42.5,10.7c12.3-11.3,7-35.7-8.8-41
	c-8-2.7-16.2-2.2-24.4-2c-3.6,0.1-4.7-1-4.6-4.6c0.3-6.6,0.3-13.3,0-19.9c-0.2-4.1,1.5-4.8,5.1-4.8c6.4,0,12.9,0.8,19.3-1
	c9.3-2.6,13.4-7.7,13.5-17.2c0.1-14.5-3.7-20-15-21.6c-13.5-1.9-22.4,3.5-25.9,16.1c-0.8,3-2.1,3.6-4.7,3.6
	c-10.6-0.1-21.1-0.2-31.7,0c-4,0.1-4.5-1.4-4-4.8c1.8-12.9,8.2-23.1,18.1-31.1c23.5-19,68.2-19.1,91.7,0c8.6,7,13.1,16,13.9,27.3
	c1.8,24.4-8,33.3-28,41.3c3.8,1.4,7.3,2.5,10.7,4c14.7,6.6,24.1,17,24.1,34.1C338.2,287,320.1,306.9,286.2,310.6z"/>
</svg>
