<?xml version="1.0" encoding="utf-8"?>
<!-- Generator: Adobe Illustrator 27.9.0, SVG Export Plug-In . SVG Version: 6.00 Build 0)  -->
<svg version="1.1" id="Layer_1" xmlns="http://www.w3.org/2000/svg" xmlns:xlink="http://www.w3.org/1999/xlink" x="0px" y="0px"
	 viewBox="0 0 512 512" style="enable-background:new 0 0 512 512;" xml:space="preserve">
<g>
	<path d="M305.7,229.8c-7.1-26.5-14.9-52.7-22.3-79.1c-2-6.1-3-12.6-5.5-18.6c-8.6,32.7-18.4,65-26.8,97.7
		C269.2,230.1,287.5,230.1,305.7,229.8z"/>
	<path d="M500.3,464c0-88.3,0-176.7,0-265c-0.1-27.7,0.3-55.4-0.2-83.1c-10.5-0.2-21.1-0.9-31.6,0.4c-0.7-22,0.1-44-0.4-66
		c-1-12.5-12.8-22.1-25-22.3c-117.3,0-234.5,0-351.8,0C64.8,45.5,38.2,62.7,11.6,79.9c0.3,122.3,0,244.6,0.2,367
		c2.9-1.2,5.7-2.7,8.3-4.5c13.1-8.8,26.4-17.4,39.8-25.8c0,14.6,0,29.1,0,43.7c-0.1,6.6,3.5,12.7,8.2,17.2
		c6.3,5.7,15.2,6.4,23.2,6.5c136.3-0.1,272.5,0.1,408.8-0.1C500.6,477.2,500.3,470.6,500.3,464z M190.6,305.7
		c13.5-44.3,27.1-88.5,40.6-132.8c7.2-22.7,13.5-45.7,21.3-68.2c17.3-0.3,34.6-0.4,51.8,0c14.7,44.6,28.7,89.5,43.2,134.2
		c8.1,25.9,16.9,51.7,24.7,77.7c-13.1,0.2-26.2,0.1-39.3,0.1c-6.2-18.4-11.7-37-17.6-55.4c-24.3-0.5-48.6-0.1-72.9-0.2
		c-0.6,1.4-1.2,2.9-1.7,4.4c-4.7,17.1-9.7,34.1-14.7,51.1c-12.8,0.3-25.6,0.2-38.4,0C188.3,312.8,189.3,309.2,190.6,305.7z"/>
</g>
</svg>
