<?xml version="1.0" encoding="utf-8"?>
<!-- Generator: Adobe Illustrator 27.9.0, SVG Export Plug-In . SVG Version: 6.00 Build 0)  -->
<svg version="1.1" id="Layer_1" xmlns="http://www.w3.org/2000/svg" xmlns:xlink="http://www.w3.org/1999/xlink" x="0px" y="0px"
	 viewBox="0 0 512 512" style="enable-background:new 0 0 512 512;" xml:space="preserve">
<g>
	<path d="M258.7,483.1c-32.6-0.1-62.9-5.9-91.8-18.2c-21.6-9.2-41.2-21.6-59.1-36.7c-2.3-1.9-3.6-3.8-3-7
		c12-70.8,23.6-141.8,49.5-209.3c16.6-43.2,42.5-79.9,80.6-106.8c28.6-20.2,60.7-27.6,95.2-21.1c49.3,9.3,73.6,48.2,61.5,96.7
		c-9.4,38-34.6,58.4-71.9,66.2c-26.5,5.6-53.6,7.7-80.2,12.8c-25.5,4.8-50.3,11.7-71.3,28c-4.7,3.6-9,7.7-12.5,12.6
		c-6.7,9.3-8.2,19.1-3.4,29.9c8.2,18.5,19.7,35,31.1,51.5c22.9,33.3,46.7,65.9,72.3,97.2C256.6,480,257.3,481,258.7,483.1z"/>
	<path d="M458.8,153.5c12.9,25.3,20.7,51.7,23.2,79.5c5.8,64-11.7,120.9-53.2,170.1c-23.4,27.8-52.2,48.6-85.9,62.5
		c-2.1,0.9-4.3,3-6.3-0.7c-13.6-25.8-32.1-48.2-49.9-71.1c-17.8-22.9-34.6-46.5-50.7-70.6c-2.7-4.1-3.8-5.9,2.7-6.7
		c26.4-3.4,53-6,78.7-13.6c50.7-15.1,91.3-43.5,118.7-89.3c10.4-17.4,17-36.3,20.7-56.2C457.1,156.2,457,154.8,458.8,153.5z"/>
	<path d="M61.2,371.4c-36.9-57.1-47.3-148.4-3.7-226C105,60.9,196.3,20,282.1,30.6c-0.5,2.3-2.7,1.8-4.1,2.3
		c-38.4,13.2-70.4,36.4-99.3,64.2c-49.6,47.7-80.1,106-96.9,172.3C73.4,302.8,66.4,336.4,61.2,371.4z"/>
</g>
</svg>
