<?xml version="1.0" encoding="utf-8"?>
<!-- Generator: Adobe Illustrator 27.9.0, SVG Export Plug-In . SVG Version: 6.00 Build 0)  -->
<svg version="1.1" id="Layer_1" xmlns="http://www.w3.org/2000/svg" xmlns:xlink="http://www.w3.org/1999/xlink" x="0px" y="0px"
	 viewBox="0 0 512 512" style="enable-background:new 0 0 512 512;" xml:space="preserve">
<path d="M457.6,136.7c-8.2,0.4-16.4,0.1-24.6,0.1c-0.1-14.7-0.2-29.3-0.4-44c-0.2-16.7-8.9-25.3-25.4-25.3c-94.6,0-189.3,0-283.9,0
	c-2.3,0-4.7,0.2-7,0.3c-1.1,0.5-2.2,0.8-3.2,1.4c-19.7,11.9-39.3,24-59.2,35.6c-3.6,2.1-4.7,4.4-4.7,8.3
	c0.1,99.1,0.1,198.2,0.1,297.3c0,1.6-0.6,3.4,0.9,5.2c2-1.1,3.8-2.2,5.6-3.2c10.1-5.6,19.3-12.5,29.7-17.4
	c0.1,8.7,0.2,17.5,0.1,26.2c0,5.9,2,10.9,5.6,15.5c2.9,3.6,7.3,4.8,10.7,7.6h360.3c0.1-2.3,0.2-4.7,0.2-7V176
	c0-11.3-0.2-22.7,0.1-34C462.8,138.1,461.9,136.6,457.6,136.7z M326.6,169.2c-13.3,0-26.7,0-40,0c-7.1,0-14.3,0-21.9,0
	c0,13.4,0,26.5,0,40.2c1.6,0.1,3.3,0.3,5,0.3c15.5,0,31,0.1,46.5-0.1c4-0.1,5.3,1.2,5.1,5.1c-0.3,7-0.3,14,0,21
	c0.2,4.6-1.6,5.6-5.8,5.5c-14.8-0.2-29.6-0.1-44.5-0.1c-2,0-4,0-6.5,0c-0.1,2.1-0.3,3.9-0.3,5.7c0,19.7-0.1,39.3,0.1,59
	c0,4.1-1,5.6-5.3,5.5c-11.2-0.3-22.3-0.2-33.5,0c-4,0.1-5.6-1.1-5.6-5.3c0.1-54.6,0.1-109.3,0-163.9c0-3.7,1-5.3,5.1-5.3
	c34,0.1,68,0.1,101.9,0.1c1.3,0,2.6,0.2,4.2,0.4c0,9.7-0.1,19.1,0,28.5C331.4,169.4,329,169.1,326.6,169.2z"/>
</svg>
