<?xml version="1.0" encoding="utf-8"?>
<!-- Generator: Adobe Illustrator 27.9.0, SVG Export Plug-In . SVG Version: 6.00 Build 0)  -->
<svg version="1.1" id="Layer_1" xmlns="http://www.w3.org/2000/svg" xmlns:xlink="http://www.w3.org/1999/xlink" x="0px" y="0px"
	 viewBox="0 0 512 512" style="enable-background:new 0 0 512 512;" xml:space="preserve">
<path d="M502.5,465.9c0-89.1,0-178.3,0-267.4c-0.1-27.9,0.3-55.9-0.2-83.8c-10.6-0.2-21.3-0.9-31.9,0.4c-0.7-22.2,0.1-44.4-0.4-66.5
	c-1-12.6-12.9-22.3-25.3-22.5c-118.3,0-236.6,0-354.9,0C63.1,43.6,36.3,60.9,9.5,78.4c0.3,123.4,0,246.8,0.2,370.2
	c2.9-1.2,5.7-2.7,8.4-4.5c13.2-8.9,26.6-17.6,40.1-26c0,14.7,0,29.4,0,44.1c-0.1,6.7,3.5,12.8,8.3,17.3c6.3,5.7,15.3,6.5,23.5,6.5
	c137.5-0.1,274.9,0.1,412.4-0.1C502.7,479.2,502.4,472.5,502.5,465.9z M325.7,314.3c0,2-0.5,2.7-2.6,2.7c-34.6-0.1-69.2-0.1-103.8,0
	c-2.1,0-2.6-0.7-2.6-2.7c0.1-11.4,0.1-22.8,0-34.2c0-2.6,1-2.9,3.2-2.9c7,0.1,14-0.1,21,0.1c2.6,0.1,3.2-0.8,3.2-3.3
	c-0.1-43.1-0.1-86.2,0-129.3c0-2.6-0.5-3.6-3.4-3.5c-7.3,0.2-14.5,0-21.8,0.1c-2.5,0.1-3-0.8-3-3.1c0.1-11,0.1-22,0-33
	c0-2.1,0.5-2.9,2.8-2.9c34.5,0.1,69,0.1,103.4,0c2.3,0,2.8,0.7,2.8,2.9c-0.1,11-0.1,22,0,33c0,2.8-1.1,3.1-3.4,3.1
	c-6.6-0.1-13.2,0.1-19.8-0.1c-2.8-0.1-3.4,0.8-3.4,3.5c0.1,21.5,0.1,43,0.1,64.5s0.1,43-0.1,64.5c0,2.8,0.5,3.8,3.6,3.7
	c6.9-0.3,13.7,0,20.6-0.1c2.2,0,3.2,0.2,3.2,2.9C325.6,291.5,325.6,302.9,325.7,314.3z"/>
</svg>
