<?xml version="1.0" encoding="utf-8"?>
<!-- Generator: Adobe Illustrator 27.9.0, SVG Export Plug-In . SVG Version: 6.00 Build 0)  -->
<svg version="1.1" id="Layer_1" xmlns="http://www.w3.org/2000/svg" xmlns:xlink="http://www.w3.org/1999/xlink" x="0px" y="0px"
	 viewBox="0 0 512 512" style="enable-background:new 0 0 512 512;" xml:space="preserve">
<g>
	<path d="M150,319.1c4.2,2.4,8.1,4.6,11.9,6.8c29.1,16.7,58.2,33.4,87.3,50.1c1.6,0.9,3.3,1.8,4.9,2.8c1,0.7,1.8,0.6,2.8,0
		c8.1-4.7,16.2-9.4,24.2-14.1c27.9-16.2,55.8-32.5,83.8-48.7c23.5-13.6,46.9-27.3,70.4-40.9c2.3-1.3,4.6-2.7,6.9-4
		c0.3-0.2,0.6-0.4,1-0.2c0.3,0.6,0.1,1.3,0.1,2c0,30.5,0,61,0,91.5c0,1.7-0.6,2.6-2,3.4c-20.7,11.9-41.4,23.8-62,35.7
		c-19.5,11.2-39,22.5-58.6,33.8c-21.3,12.3-42.6,24.5-63.8,36.8c-1.2,0.7-2,0.5-3.1-0.1c-11.2-6.5-22.5-13-33.7-19.4
		c-21.6-12.5-43.3-24.9-64.9-37.4c-22.2-12.8-44.5-25.6-66.7-38.4c-6.5-3.7-12.9-7.5-19.4-11.2c-1.1-0.6-1.5-1.4-1.5-2.6
		c0-30.5,0-61,0-91.5c0-3.2,0-3.2,2.7-4.7c29.4-17.2,58.8-34.4,88.1-51.6c1.7-1,3-1.2,4.9-0.1c22.5,13.1,45,26.1,67.5,39.2
		c25.2,14.6,50.5,29.2,75.7,43.8c7.1,4.1,14.3,8.2,21.4,12.4c0.3,0.2,0.6,0.3,0.8,0.8c-0.2,0.4-0.8,0.6-1.2,0.9
		c-19,11-37.9,21.9-56.9,32.9c-4.6,2.7-9.2,5.3-13.8,8c-1.1,0.6-1.8,0.6-2.8,0c-16.6-9.6-33.1-19.1-49.7-28.6
		c-10.6-6.1-21.2-12.2-31.7-18.3c-1.2-0.7-2.1-0.8-3.4,0C163,311.6,156.6,315.3,150,319.1z"/>
	<path d="M67.9,238.5c-0.4-0.6-0.2-1.4-0.2-2c0-30.4,0-60.8-0.1-91.3c0-1.7,0.6-2.6,2-3.4c55.4-31.9,110.8-63.9,166.2-95.9
		c6-3.5,12.1-6.9,18.1-10.5c1.2-0.7,2-0.6,3.2,0c27.6,16,55.2,31.9,82.8,47.8c33.6,19.4,67.3,38.9,101,58.2c1.7,1,2.5,2,2.5,4.2
		c-0.1,30.4-0.1,60.8,0,91.3c0,1.7-0.5,2.6-2,3.4c-29.8,17.4-59.6,34.8-89.4,52.3c-1.4,0.8-2.3,0.8-3.7,0
		c-39.2-22.8-78.5-45.5-117.7-68.2c-15.5-8.9-30.9-17.9-46.4-26.8c-0.7-0.4-1.4-0.7-2-1.4c0.5-0.6,1.3-0.9,2-1.3
		c20.8-12,41.7-24.1,62.5-36.1c2.5-1.4,5-2.8,7.4-4.3c1-0.6,1.7-0.7,2.8-0.1c17.9,10.3,35.8,20.6,53.7,30.9
		c9.4,5.4,18.8,10.8,28.1,16.2c1,0.6,1.8,0.7,2.8,0c6.4-3.8,12.8-7.4,19.3-11.2c-0.4-0.8-1.2-1-1.8-1.4
		c-14.3-8.2-28.6-16.4-42.8-24.6c-19.6-11.2-39.2-22.5-58.8-33.7c-1.3-0.8-2.3-0.8-3.6,0c-56.6,33-113.2,65.9-169.8,98.8
		c-4.8,2.8-9.6,5.6-14.5,8.4C69,238.1,68.6,238.6,67.9,238.5z"/>
</g>
</svg>
