<?xml version="1.0" encoding="utf-8"?>
<!-- Generator: Adobe Illustrator 27.9.0, SVG Export Plug-In . SVG Version: 6.00 Build 0)  -->
<svg version="1.1" id="Layer_1" xmlns="http://www.w3.org/2000/svg" xmlns:xlink="http://www.w3.org/1999/xlink" x="0px" y="0px"
	 viewBox="0 0 512 512" style="enable-background:new 0 0 512 512;" xml:space="preserve">
<g>
	<path d="M218.3,475.6c-6.7-18-13.4-36-20.2-54c-5.7-15.1-11.8-30.2-19.9-44.2c-3.6-6.2-7.7-12.1-12.4-17.5
		c-9.6-11.1-21.8-13.5-35.5-9c-1.4,0.5-3,0.8-4.2,1.5c-3.1,2.1-5.5,1-8.3-1c-33.4-23.7-66.9-47.2-100.4-70.8c-0.9-0.6-1.8-1.3-3-2.2
		c4.9-2,9.4-3.9,13.9-5.7c38.8-16,77.5-32,116.3-48.1c1.3-0.5,2.6-1.4,3.5-2.5c9.3-11.1,18.3-22.4,27.8-33.2
		c6.5-7.4,13.5-14.3,22.4-18.8c4.8-2.5,10.3-3.8,15.4-5.6c15.8-5.5,28.6-15.3,39.9-27.3c12.3-13.1,22-28,31.4-43.2
		c8.5-13.6,17.1-27.3,26.1-40.6c4.6-6.8,10.6-12.5,18.5-15.5c2.7-1,5.9-1.9,8.6-1.5c2.6,0.4,5.2,2.4,7.5,4
		c6.8,5,11.6,11.8,16.1,18.9c9.3,14.6,16.6,30.3,23.5,46.2c17,39.5,31.2,80.1,45.5,120.6c16.4,46.3,32.3,92.7,50.6,138.2
		c5.1,12.8,10.8,25.4,16.3,38.1c-0.8-0.4-1.7-0.7-2.5-1.2c-13.3-8.4-25.1-18.6-36.5-29.5c-8.3-8-16.5-16.3-25.5-23.4
		c-16.3-12.9-34.8-14.2-53.8-7.3c-9.4,3.4-16.6,10.5-23.1,17.7c-11.9,13.2-23.4,26.7-34.9,40.2c-15.8,18.7-31.6,37.2-50.8,52.5
		c-11.6,9.2-24.2,16.9-38.7,21.1c-4.1,1.2-8.3,1.9-12.4,2.9C219,475.6,218.6,475.6,218.3,475.6z M39.3,281.3
		c0.7,0.5,1.1,0.8,1.4,1.1c26.8,18.9,53.6,37.8,80.4,56.7c1.2,0.9,2.2,1,3.5,0.3c12.6-6.5,25.1-13.1,37.9-19.2
		c9.1-4.4,17.7-9.1,23.7-17.5c1.1-1.5,2.4-2.7,3.6-4.2c5.9-7.3,11.7-14.6,17.4-21.7c-0.4-0.6-0.4-0.8-0.5-0.9
		c-17.8-13.4-35.6-26.9-53.5-40.3c-0.7-0.5-2.1-0.6-3-0.3c-3.2,1.1-6.3,2.5-9.5,3.8c-23.5,9.7-47,19.4-70.5,29.2
		C60.1,272.7,49.9,276.9,39.3,281.3z M160.6,225.8c18,13.5,35.9,26.8,53.9,40.4c32.2-48.1,53.4-101.2,74-154.6
		c-0.7,0.7-1.2,1.4-1.7,2.2c-8,12.3-16.7,24-27,34.5c-13.8,14-29.7,24.7-48.9,29.7c-4.2,1.1-8,2.9-11.5,5.6
		C184.1,195.3,172.9,210.8,160.6,225.8z"/>
</g>
</svg>
