<?xml version="1.0" encoding="utf-8"?>
<!-- Generator: Adobe Illustrator 27.9.0, SVG Export Plug-In . SVG Version: 6.00 Build 0)  -->
<svg version="1.1" id="Layer_1" xmlns="http://www.w3.org/2000/svg" xmlns:xlink="http://www.w3.org/1999/xlink" x="0px" y="0px"
	 viewBox="0 0 512 512" style="enable-background:new 0 0 512 512;" xml:space="preserve">
<path d="M500.3,464c0-88.3,0-176.7,0-265c-0.1-27.7,0.3-55.4-0.2-83.1c-10.5-0.2-21.1-0.9-31.6,0.4c-0.7-22,0.1-44-0.4-66
	c-1-12.5-12.8-22.1-25-22.3c-117.3,0-234.5,0-351.8,0C64.8,45.5,38.2,62.7,11.6,79.9c0.3,122.3,0,244.6,0.2,367
	c2.9-1.2,5.7-2.7,8.3-4.5c13.1-8.8,26.4-17.4,39.8-25.8c0,14.6,0,29.1,0,43.7c-0.1,6.6,3.5,12.7,8.2,17.2c6.3,5.7,15.2,6.4,23.2,6.5
	c136.3-0.1,272.5,0.1,408.8-0.1C500.6,477.2,500.3,470.6,500.3,464z M389.3,310.9c0,4.8-1.5,6.1-6.1,5.9c-12.4-0.3-24.9-0.4-37.3,0
	c-5.5,0.2-6.7-1.6-6.7-6.8c0.2-40.6,0.1-81.2-0.9-122.1c-2.4,8.9-4.9,17.7-7.3,26.6c-8.4,31.8-16.8,63.6-24.9,95.4
	c-1.3,5-3,7-8.5,6.8c-12.2-0.5-24.4-0.3-36.6,0c-4.6,0.1-6.5-1.2-7.7-5.9c-10.4-40.4-21.1-80.7-31.7-121c-0.5-1.8-1.1-3.5-3.2-5.3
	c0,2.3,0,4.7,0,7c0,39.4-0.1,78.8,0.1,118.2c0,5.7-1.6,7.3-7.2,7.1c-10.8-0.4-21.5-0.3-32.3,0c-4.5,0.1-6.2-0.9-6.2-5.8
	c0.2-65.9,0.1-131.8,0-197.7c0-4.3,1.2-5.7,5.6-5.7c18.2,0.2,36.4,0.3,54.6,0c4.8-0.1,6.5,1.6,7.6,6.1
	c12.7,50.9,25.6,101.7,38.4,152.5c0.5,2,1.2,4.1,2.1,7.5c14.4-54.4,28.5-107.1,42.3-159.9c1.3-4.9,3.2-6.4,8.2-6.3
	c17,0.3,34,0.3,51,0c4.8-0.1,6.7,1,6.7,6.3C389.1,179.6,389.1,245.3,389.3,310.9z"/>
</svg>
