<?xml version="1.0" encoding="utf-8"?>
<!-- Generator: Adobe Illustrator 27.9.0, SVG Export Plug-In . SVG Version: 6.00 Build 0)  -->
<svg version="1.1" id="Layer_1" xmlns="http://www.w3.org/2000/svg" xmlns:xlink="http://www.w3.org/1999/xlink" x="0px" y="0px"
	 viewBox="0 0 512 512" style="enable-background:new 0 0 512 512;" xml:space="preserve">
<g id="b9118f5a-8922-4c03-8a96-895be339d3a9">
	<g id="f65d9a9a-adc7-499d-8064-1a48dd8a9215">
		<path d="M474.7,43.8c-17.1,4-56.2,4-66.2,21l-10,16.8c-25.1,42.8-88.1,201.7-149.1,203.8s32.1-195.2,41.4-215
			c-37.9,8.9-74.3,3.5-87.9,42.4c-14.1,40.3-28.1,80.6-43.1,120.6C128.6,316,90.6,395.4,38.8,466c1.2-1.6,2.3-3.1-1.5,2.1
			c38.5-7.7,73.4-6.4,96.5-41.1c21.3-32.1,35-68,49.4-103.5l6.9-16.9l5.5,5.2c55,51.8,97.2,0,140.3-40.4l6.4-6l24.1,90.7l53.4-57.3
			c-4.5-8-8.9-16.2-13-24.4l-0.7-1.5c-35.3-76.4,24.8-163.9,66-225.3L474.7,43.8z"/>
	</g>
</g>
</svg>
