<?xml version="1.0" encoding="utf-8"?>
<!-- Generator: Adobe Illustrator 27.9.0, SVG Export Plug-In . SVG Version: 6.00 Build 0)  -->
<svg version="1.1" id="Layer_1" xmlns="http://www.w3.org/2000/svg" xmlns:xlink="http://www.w3.org/1999/xlink" x="0px" y="0px"
	 viewBox="0 0 512 512" style="enable-background:new 0 0 512 512;" xml:space="preserve">
<g>
	<path d="M412.2,323.6c18.6,0,37.2,0,55.8,0c7.8,0,13.8,3.3,17.9,10c1.8,2.9,2.7,6.2,2.7,9.6c0,32.2,0.1,64.4,0,96.5
		c0,9.6-7,17.6-16.4,19.3c-0.3,0.1-0.8-0.1-1,0.4c-0.5,0-1,0-1.6,0c-0.7-0.4-1.4-0.2-2.1-0.2c-87.6,0-175.1,0-262.7,0
		c-0.7,0-1.4-0.2-2.1,0.2c-0.6,0-1.3,0-1.9,0c-4.8-0.6-8.8-2.8-12-6.3c-3.3-3.6-5.2-7.8-5.2-12.6c-0.1-12.7,0-25.4,0-38.1
		c0-0.8-0.1-1.7,0.5-2.4c1.1-0.7,2.3-0.5,3.4-0.5c20,0,40.1,0,60.1,0c6.1,0,11.2-2,15.3-6.6c2.1-2.4,3.3-5.2,4.2-8.2
		c0.1-0.2,0.2-0.4,0.3-0.7c2.6-2.8,4.9-5.7,6.4-9.2c1.3-3,2-6.1,2.2-9.4c0.8-12.7,0.2-25.3,0.4-38c0-1.1-0.3-2.4,0.7-3.3
		c1.2-0.6,2.5-0.4,3.8-0.4c42.1,0,84.1,0,126.2,0C408.7,323.8,410.5,323.8,412.2,323.6z"/>
	<path d="M23,272.5c0-15.8,0-31.5,0-47.3c2-1.6,4.3-2.7,6.4-3.9c32.5-18.7,64.9-37.5,97.3-56.2c14.9-8.6,29.9-17.2,44.8-25.9
		c0.3-0.2,0.6-0.3,0.8-0.6c-0.8-0.3-1.5-0.1-2.3-0.1c-17.4,0-34.8,0-52.1,0c-0.8,0-1.7,0.1-2.5-0.2c-0.8-0.3-0.8-0.7,0-1.1
		c1-0.3,2.1-0.2,3.1-0.2c38.7,0,77.5,0,116.2,0c1,0,2.1,0,3.1,0.1c1.3,0.4,2.7,0.3,4.1,0.3c3.2,0.3,6.2,0.9,8.8,3
		c0.3,1.5-1,1.9-1.8,2.4c-4.5,2.6-9.1,5.2-13.6,7.9c-13.6,7.8-27.2,15.7-40.8,23.5c-9.6,5.6-19.2,11.1-28.9,16.7
		c-1,0.6-1.7,1.6-3,1.7c-7.8-2.1-15.8-1.6-23.7-1.6c-13.7,0-27.4,0-41.1,0c-0.7,0-1.4,0-2.1,0c-0.9,0-1.4,0.5-1.5,1.4
		c0,0.6,0,1.3,0,1.9c0,41.1,0,82.2,0,123.3c0,0.3,0,0.5,0,0.8c0.1,2.2,0.2,2.3,2.3,2.4c4.6,0,9.2,0,13.8,0c1.8,0,3.6,0,5.4,0
		c1.5,0,2.1-0.6,2.1-2.1c0-4,0-8,0-12c0-9.6,0-19.3,0-28.9c0-1-0.5-2.4,1-3c0.6,0.6,0.6,1.4,0.6,2.2c0,8.6,0.1,17.1,0,25.7
		c0.1,4.7,0.1,9.4,0,14c0.1,1,0.1,2.1,0,3.1c-0.1,2-0.5,2.5-2.6,2.5c-4.2,0.1-8.5,0.1-12.8,0c-2.9,0.1-5.8,0.1-8.7,0
		c-2.3,0-2.8-0.5-2.8-2.7c0-5.6-0.1-11.2,0-16.8c-0.1-8.8-0.1-17.5,0-26.3c0.2-13.8,0-27.6,0.1-41.5c0-1.8-0.3-2-2.1-0.9
		c-15.9,9.1-31.7,18.3-47.5,27.4c-5.9,3.4-11.9,6.9-17.8,10.3C24.7,272.2,24,272.8,23,272.5z"/>
	<path d="M115,137.5c0.6,0.7,1.5,0.4,2.2,0.4c18.1,0,36.2,0,54.3,0c0.7,0,1.5-0.2,2.5,0.4c-1.9,1.1-3.5,2.2-5.3,3.2
		c-9.9,5.7-19.8,11.5-29.8,17.2c-9.7,5.6-19.3,11.1-29,16.6c-8.7,5-17.4,10.1-26.1,15.1c-8.8,5.1-17.5,10.1-26.3,15.1
		c-7.7,4.5-15.5,9-23.2,13.5c-3.4,2-6.8,3.9-10.2,5.9c-0.3,0.2-0.7,0.2-1.1,0.2c0-23.8,0-47.6,0-71.4c0.6-0.2,0.5-0.7,0.6-1.1
		c2.9-9.7,10.1-15.1,20.3-15.2c12,0,24,0,36,0c0.8,0,1.5,0,2.3-0.1c0.8-0.6,1.7-0.6,2.6-0.6c9.2,0,18.3,0,27.5,0
		C113.3,136.9,114.3,136.8,115,137.5z"/>
	<path d="M23,272.5c6.5-3.8,13.1-7.5,19.6-11.3c7.9-4.5,15.7-9.1,23.6-13.6c7.1-4.1,14.3-8.2,21.4-12.4c1.3-0.8,2.7-1.5,4-2.3
		c1.1-0.6,1.6-0.4,1.6,1c0,4.7,0,9.4,0,14.1c0,9.3,0,18.6-0.1,27.9c-4.7,3.1-9.8,5.8-14.7,8.6c-13.2,7.6-26.3,15.3-39.5,22.8
		c-4.4,2.5-8.7,5-13.1,7.6c-0.9,0.5-1.7,1.2-2.8,0.9C23,301.4,23,287,23,272.5z"/>
	<path d="M23,315.9c7.7-4.4,15.3-8.7,23-13.1c7.3-4.2,14.5-8.4,21.8-12.5c7.8-4.5,15.5-9,23.2-13.5c0.7-0.4,1.3-0.9,2.1-0.8
		c0,8.9,0,17.8,0,26.8c-0.7,1-1.9,1.3-2.9,1.8c-11.9,6.9-23.8,13.8-35.7,20.7c-9.8,5.7-19.7,11.3-29.5,17.1
		c-0.6,0.3-1.2,0.9-1.9,0.3C23,333.8,23,324.8,23,315.9z"/>
	<path d="M23,342.7c3.9-1.8,7.4-4.1,11.1-6.2c8-4.6,16.1-9.3,24.1-13.9c7-4,13.9-8.1,20.9-12.1c4.7-2.6,9-5.7,14-7.7
		c0,5.7,0.1,11.3,0,17c0,1.6,0.4,2.1,2,2.1c3-0.1,5.9,0,8.9,0c0.5,1.2-0.7,1.4-1.3,1.8c-5.2,3.1-10.5,6.1-15.7,9.2
		c-11.4,6.6-22.8,13.2-34.2,19.8c-7.9,4.6-15.9,9.2-23.8,13.7c-0.6,0.3-1.1,1-1.9,0.6c-1.7-1.9-2.6-4.2-3.3-6.6
		c-0.2-0.6-0.1-1.3-0.7-1.6C23,353.3,23,348,23,342.7z"/>
	<path d="M202.7,459.4c0.5-0.7,1.2-0.4,1.8-0.4c87.8,0,175.5,0,263.3,0c0.6,0,1.3-0.3,1.8,0.4C380.6,459.4,291.6,459.4,202.7,459.4z
		"/>
	<path d="M82.4,129.4c0-0.6-0.1-1.2-0.1-1.7c0-17.9,0-35.8,0-53.7c0-12.4,8.5-20.9,21-20.9c70.8,0,141.6,0,212.4,0
		c10.7,0,18.8,6.5,20.6,16.8c0.3,1.4,0.2,3,0.2,4.4c-0.2,34.8-0.4,69.7-0.6,104.5c0,3.3-0.1,6.6-0.1,9.9c-0.7,0.8-1.6,0.7-2.5,0.7
		c-18.1,0-36.1,0-54.2,0c-0.8,0-1.6,0-2.3-0.4c-0.9-0.9-0.7-2-0.7-3.1c0-7.2-0.1-14.4,0-21.5c0-3.6-0.1-7.1-0.6-10.6
		c-1.5-11.7-11.1-21.5-22.8-23.2c-2-0.3-4-0.4-6-0.4c-53.5,0-107.1,0-160.6,0C84.9,129.9,83.6,130.3,82.4,129.4z"/>
	<path d="M276.8,188.7c19.1,0,38.2,0,57.3,0c0.6,0,1.2,0,1.7-0.1c1.2,0,2.3,0.1,3.5,0.1c17.3,0,34.6,0,52,0
		c12.4,0,20.9,8.5,20.9,20.9c0,38,0,76,0,114c-0.1,0.5-0.3,0.8-0.9,0.8c-0.6,0-1.2,0-1.7,0c-43.4,0-86.7,0-130.1,0
		c-0.9,0-1.8,0-2.7,0c-0.1-0.1-0.2-0.2-0.3-0.3c-0.1-0.2-0.2-0.5-0.2-0.7c-0.1-0.8-0.1-1.7-0.1-2.5c0-43,0-85.9,0-128.9
		C276.2,190.9,275.9,189.7,276.8,188.7z"/>
	<path d="M276.8,188.7c0,45.1,0,90.2,0,135.4c-1-0.1-0.9-1-1-1.6c-0.1-0.9-0.1-1.8-0.1-2.7c0-42.2,0-84.4,0-126.5
		c0-3.8,0-3.8-3.8-3.9c-1.2,0-2.3,0.1-3.4-0.3c-1.1-0.8-0.8-2-0.8-3c0-9.4,0-18.9,0-28.3c0-11.1-8.4-19.5-19.5-19.6
		c-2,0-4-0.5-6-0.4c-1.3-0.1-2.6,0.2-3.8-0.2c-41.1,0-82.2,0-123.4,0c-10.9,0-21.8,0-32.6,0c0-2.7,0.1-5.4,0.1-8.1
		c55.6,0,111.1-0.1,166.7,0.1c13.4,0,24.4,9.9,26.9,22.7c0.5,2.8,0.7,5.7,0.7,8.6C276.8,170.1,276.8,179.4,276.8,188.7z"/>
	<path d="M184,392c-0.2-3-0.1-5.9,0-8.9c0.1-0.1,0.2-0.2,0.3-0.3c0.7-0.4,1.5-0.4,2.3-0.4c18,0,36,0,54,0c4.6,0.1,9.3,0.5,13.8-0.9
		c5.3-1.7,9.2-5,11.7-10c0.3-0.5,0.5-1.1,0.9-1.5c0.4-0.4,0.7-0.2,0.9,0.2c0.6,4.2,0.2,8.3,0.2,12.5c0,0.5-0.3,1-0.5,1.4
		c0,0.1,0,0.3,0,0.4c-0.5,1-1.3,1.7-2.2,2.4c-5,3.7-10.7,5.5-16.8,5.5c-20.6,0.1-41.2,0-61.8,0C185.7,392.5,184.8,392.6,184,392z"/>
	<path d="M184,392c20.6,0,41.2-0.1,61.9,0c8.1,0,15.3-2.1,21.6-7.4c-1.2,7.5-8.2,14.2-15.6,15.2c-2.2,0.3-4.4,0.3-6.5,0.3
		c-20.4,0-40.8,0-61.3,0C183.8,397.4,183.9,394.7,184,392z"/>
	<path d="M267.5,384.2c0-4.8,0-9.6,0-14.4c-0.4-0.4-0.4-1-0.3-1.5c0.7-3.4,0.4-6.9,0.4-10.4c0-10,0-20.1,0-30.1
		c0-1.1-0.1-2.2,0.4-3.2c0.1-0.2,0.3-0.4,0.6-0.5c2.8-0.3,5.5-0.7,8.2,0.3c0,0,0,0,0,0c0,12.2,0.1,24.4,0,36.6
		c-0.1,7.2-1.3,14.2-6.2,20C269.6,382.2,268.6,383.3,267.5,384.2z"/>
	<path d="M27.1,366.8c9.1-5.3,18.3-10.5,27.4-15.8c8.7-5,17.4-10.1,26-15.1c7.5-4.4,15-8.7,22.6-13c0.4-0.3,1-0.4,1-1.1
		c3.9,0,7.8,0,11.7,0c3.4,0,3,0.4,3-2.9c0-0.7,0-1.4,0.1-2.1c2.2-1.8,4.7-2.9,7.1-4.3c19.8-11.5,39.6-22.9,59.4-34.3
		c22.3-12.8,44.5-25.7,66.8-38.5c2-1.1,3.9-2.3,5.9-3.4c0.9-0.5,1.8-0.9,2.4,0.4c0.4,2.2,0.2,4.4,0.2,6.6
		c-0.1,6.2,0.2,12.4-0.1,18.6c-0.2,0.8-0.8,1.1-1.5,1.4c-26.9,15.4-53.7,31-80.6,46.5c-26.1,15-52.2,30.1-78.2,45.2
		c-11,6.3-21.9,12.7-33,19.1c0.4,0.3,1.2,0.1,1.2,0.8c-9.5,0-19.1,0.6-28.6-0.3C34.5,373.9,30.3,371.2,27.1,366.8z"/>
	<path d="M68.4,374.8c-0.6-0.6-1.4,0-2.1-0.5c0.7-1.2,2-1.5,3.1-2.2c7.8-4.6,15.7-9.1,23.6-13.6c8.1-4.7,16.3-9.4,24.4-14.1
		c12.1-7,24.2-14,36.3-21c13.1-7.5,26.1-15,39.2-22.5c13.6-7.9,27.2-15.8,40.8-23.7c8.4-4.8,16.8-9.6,25.1-14.4
		c0.4-0.2,0.8-0.3,1.3-0.3c0.6,0.5,0.6,1.3,0.6,2c0,8.7,0.1,17.4,0,26.1c0,0.3-0.1,0.5-0.1,0.8c-0.3,1.1-1.3,1.6-2.2,2.1
		c-12.5,7.2-25,14.4-37.4,21.6c-20.3,11.7-40.5,23.4-60.8,35.1c-13.4,7.7-26.7,15.5-40.1,23.2c-0.3,0.2-0.6,0.3-0.9,0.7
		c0.8,0.2,1.4,0.1,2.1,0.1c3.9,0,7.9,0,11.8,0c0.8,0,1.7-0.3,2.1,0.8c-1.7,0-3.3,0.1-5,0.1c-19.9,0-39.7,0-59.6,0
		C69.8,374.9,69.1,374.8,68.4,374.8z"/>
	<path d="M135.1,374.8c-0.8-0.5-1.6-0.3-2.4-0.3c-4.3,0-8.7,0-13,0c-0.6,0-1.3,0.2-2.1-0.4c2.6-1.5,5-3,7.4-4.4
		c9-5.2,17.9-10.4,26.9-15.6c9.7-5.6,19.3-11.1,29-16.7c7.8-4.5,15.5-9,23.2-13.5c7.2-4.2,14.4-8.3,21.6-12.4
		c7.8-4.5,15.5-9,23.2-13.4c3.7-2.1,7.4-4.2,11.1-6.2c0.6,0.5,0.6,1.3,0.6,2c0,9.9,0.1,19.8,0,29.7c0,0.3-0.1,0.6-0.1,1
		c-0.2,1.1-1.2,1.5-2,1.9c-9.5,5.5-19,11-28.5,16.5c-12.8,7.4-25.5,14.7-38.3,22.1c-5,2.9-9.9,5.8-14.9,8.6c0.1,0.6,1,0.4,1,1.1
		c-10,0-20.1,0.1-30.1,0.1C143.5,374.9,139.3,374.8,135.1,374.8z"/>
	<path d="M177.8,374.8c-0.6-0.7-2,0.2-2.1-0.8c0-0.8,1.3-0.9,2-1.4c11.1-6.5,22.3-13,33.4-19.4c13.1-7.5,26.1-15,39.2-22.5
		c3.2-1.9,6.3-4,9.7-5.5c1,1.2,0.4,2.6,0.5,3.9c0.1,0.8,0,1.6,0.1,2.3c0,8.3,0,16.6,0,25c0,1-0.1,1.9-0.4,2.9
		c-1.5,5.7-4.6,10.4-9.8,13.3c-3.4,1.9-7.1,2.8-11,2.8c-17,0-34,0-51,0c-0.6,0-1.2,0-1.7,0c-1.6-0.1-2.2,0.6-2.2,2.2
		c0,1.8,0.5,3.6-0.4,5.3c0,0-0.2,0.1-0.2,0.1c-0.3-1.6-0.1-3.3-0.1-4.9c0-3.2,0-3.2-3.3-3.2C179.6,374.8,178.7,374.8,177.8,374.8z"
		/>
	<path d="M191,219c-1.5-4.7-3.5-9.1-6.3-13.2c-4.4-6.4-10.8-9.8-17.7-12.5c-1.1-0.4-2.3-0.8-3.5-1.2c0.5-1.7,2.4-1.9,3.6-2.6
		c9.7-5.7,19.5-11.4,29.2-17c8.7-5,17.4-10,26.1-15c8.7-5,17.4-10,26.1-15c0.8-0.5,1.8-0.9,2.2-1.8c1.9,0,3,1.4,4.1,2.6
		c3.7,3.9,5.8,8.5,5.8,14c-0.1,6.5,0,13.1,0,19.6c0,0.9,0.1,1.8-0.2,2.7c-2,1.7-4.4,2.7-6.6,4c-13.7,8-27.5,15.9-41.2,23.8
		c-6.2,3.5-12.3,7.1-18.4,10.6C193.2,218.4,192.3,219.3,191,219z"/>
	<path d="M118.9,274.9c0.6-0.3,1.3-0.2,1.9-0.2c8.5,0,16.9,0.2,25.4,0c16.3-0.2,29.7-6.4,39.3-19.9c1.9-2.7,2.7-5.9,4.1-8.8
		c5.4-3.2,10.9-6.3,16.4-9.5c14.6-8.4,29.2-16.8,43.7-25.3c2.7-1.6,5.5-3.2,8.2-4.7c0.8-0.5,1.8-1.4,2.6,0.1c0.3,4.9,0.3,9.9,0,14.8
		c-0.1,0.5-0.5,0.8-1,1.1c-11.6,6.4-23,13.2-34.5,19.8c-17.4,10-34.7,20-52.1,30c-13.5,7.8-27,15.6-40.5,23.4
		c-3.6,2.1-7.3,4.2-10.9,6.3c-0.8,0.4-1.6,1.2-2.7,0.7C118.9,293.5,118.9,284.2,118.9,274.9z"/>
	<path d="M119,302.7c3.7-1.5,7-3.8,10.5-5.8c7.3-4.1,14.5-8.3,21.8-12.5c6.9-4,13.7-7.9,20.6-11.9c7.1-4.1,14.3-8.3,21.4-12.4
		c7.9-4.5,15.7-9.1,23.6-13.6c7.1-4.1,14.3-8.3,21.4-12.4c6.4-3.7,12.7-7.3,19.1-11c0.9-0.5,1.7-1.2,2.8-1.1
		c0.5,0.5,0.6,1.1,0.6,1.8c0.1,3.5,0.1,6.9,0,10.4c0,0.6-0.1,1.3-0.6,1.8c-1.9,0.1-3.3,1.5-4.8,2.3c-7.8,4.5-15.6,9-23.4,13.5
		c-7.9,4.5-15.7,9.1-23.6,13.6c-7.1,4.1-14.3,8.2-21.4,12.4c-7.8,4.5-15.5,8.9-23.3,13.4c-7.1,4.1-14.1,8.2-21.2,12.3
		c-7.3,4.2-14.6,8.4-22,12.6c-0.5,0.3-0.9,0.5-1.4,0.5C119,312.1,119,307.4,119,302.7z"/>
	<path d="M260.1,179.8c0-7.2-0.1-14.5,0-21.7c0.1-7.6-3-13.4-9.3-17.5c-2.7-1.4-5.4-2.6-8.5-2.7c-0.1-0.1-0.2-0.2-0.1-0.2
		c0-0.1,0.1-0.1,0.1-0.1c3.9,0.1,7.8-0.3,11.7,0.7c7.8,2,14.2,10.2,14.3,18.2c0,10.7,0,21.5,0,32.2c-0.1,0.1-0.2,0.2-0.3,0.3
		c-2.7,0.5-5.4,0.8-8-0.2C259.3,185.7,259,182.7,260.1,179.8z"/>
	<path d="M242.2,137.5c0,0.1,0,0.2,0,0.4c-1.3-0.2-2.6,0.4-3.9-0.4C239.7,137.5,240.9,137.5,242.2,137.5z"/>
	<path d="M276.8,324.4c-2.7,0-5.4,0-8.1,0c-0.7-0.4-0.9-1-1-1.8c-0.1-0.7-0.1-1.4-0.1-2.1c0-42.8,0-85.5,0-128.3
		c0-1.2-0.3-2.5,0.6-3.5c0,0,0.1,0,0.1,0c2.2,0,4.4,0.1,6.6,0c1.2,0,1.7,0.4,1.5,1.6c-0.1,0.5,0,1,0,1.5c0,43.3,0,86.6,0,129.9
		c0,0.8-0.3,1.7,0.4,2.4C276.8,324.2,276.8,324.3,276.8,324.4z"/>
	<path d="M184.1,383c0-2.1,0-4.3-0.1-6.4c-0.1-1.4,0.5-1.7,1.8-1.7c7.2,0.1,14.5,0,21.7,0c10.5,0,21,0,31.6,0
		c5.6,0,10.7-1.6,14.8-5.4c2.9-2.7,4.8-6.2,5.8-10.1c1,0.1,0.8,0.9,0.9,1.5c1.1,10.6-4.9,18.2-12.9,21.3c-1.3,0.5-2.7,0.6-4.2,0.7
		c-0.8,0-1.7-0.2-2.5,0.2c-18.3,0-36.7,0-55,0C185.4,383,184.8,383,184.1,383z"/>
	<path d="M241.1,383c0.3-0.4,0.8-0.4,1.2-0.4c8.5-0.2,16-7,17.6-15.7c0.5-2.4,0.6-5.1-0.2-7.6c0.3-1.1,0.4-2.3,0.4-3.4
		c0-8.2,0-16.3,0-24.5c0.4-1.8,0.2-3.7,0.2-5.6c0-1.3,0.4-2,1.7-2c2.1,0.1,4.3-0.6,6.2,0.6c0,13.6,0,27.2,0,40.8
		c0,1.6-0.5,3-0.8,4.5c-2.1,4.9-5.3,8.8-10.1,11.1c-3,1.4-6.1,2.2-9.5,2.1C245.6,383,243.3,383,241.1,383z"/>
	<path d="M268.2,324.5c-1.8,0-3.6,0.1-5.4-0.1c-1.8-0.2-2.5,0.4-2.4,2.3c0.1,1.6,0.5,3.2-0.3,4.7c0-2.1,0-4.1,0-6.2
		c0-11.1,0-22.2,0-33.4c0-9.8,0-19.7,0-29.5c0-8.8,0-17.6,0-26.4c0-4.7,0-9.3,0-14c0-5.3,0-10.6,0-15.9c-0.6-0.6-0.6-1.4-0.6-2.2
		c0-4.4,0-8.7,0-13.1c0-0.8,0-1.6,0.6-2.2c2.7,0,5.4,0,8.1,0c0,37.3,0,74.7,0,112c0,7.1,0,14.2,0,21.3c0,0.8-0.1,1.7,0.4,2.4
		C268.5,324.5,268.3,324.5,268.2,324.5z"/>
	<path d="M260.1,188.7c0,5.8,0,11.6,0,17.4c-3.5,1.4-6.5,3.6-9.8,5.4c-8,4.5-15.9,9.1-23.8,13.7c-7.8,4.5-15.5,9-23.2,13.5
		c-3.7,2.2-7.5,4.3-11.2,6.5c-0.8,0.4-1.5,1-2.5,0.9c2.2-6.6,2.8-13.5,2.6-20.4c-0.3-0.7,0-1.4-0.3-2.1c-0.3-1.5-0.9-3-0.9-4.7
		c7.2-3.7,14.1-8,21.1-12c7.9-4.5,15.8-9.1,23.7-13.7c7.1-4.1,14.3-8.2,21.4-12.4c0.9-0.5,1.7-1.2,2.8-1.1
		C260.1,182.8,260.1,185.7,260.1,188.7z"/>
	<path d="M162.8,217.8c3.4,4.1,3.9,9,4,14c0.1,3.4-0.6,6.7-1.9,9.8c-3.5,8.4-10.5,12.3-18.9,13c-8.5,0.7-17,0.2-25.5,0.2
		c-1,0-1.2-0.4-1.2-1.3c0.1-4,0.2-8,0.3-12c4.3-2.6,8.7-5.1,13-7.6c9.1-5.2,18.1-10.5,27.2-15.7
		C160.8,217.6,161.7,217.1,162.8,217.8z"/>
	<path d="M162.8,217.8c-1.9-0.2-3.2,1.2-4.7,2c-12,6.9-24,13.9-36.1,20.9c-0.7,0.4-1.4,0.9-2.3,0.8c0.1-10,0.3-20,0.4-30
		c0-1.1,0.5-1.3,1.4-1.3c8.6,0.1,17.2-0.3,25.7,0.3c4.8,0.3,9.4,1.6,13.3,4.7C161.4,215.9,162.3,216.7,162.8,217.8z"/>
	<path d="M191.9,223.6c0.6,0.6,0.3,1.4,0.3,2.1C191.8,225,191.8,224.3,191.9,223.6z"/>
</g>
</svg>
