<?xml version="1.0" encoding="utf-8"?>
<!-- Generator: Adobe Illustrator 27.9.0, SVG Export Plug-In . SVG Version: 6.00 Build 0)  -->
<svg version="1.1" id="Layer_1" xmlns="http://www.w3.org/2000/svg" xmlns:xlink="http://www.w3.org/1999/xlink" x="0px" y="0px"
	 viewBox="0 0 512 512" style="enable-background:new 0 0 512 512;" xml:space="preserve">
<path d="M459.4,118.6V64.2c0-7.1-2.9-13.5-7.5-18.2c-4.7-4.7-11.1-7.5-18.2-7.5h-339v0L17.5,85v355.8l42-25.3v32.2
	c0,14.2,11.5,25.7,25.7,25.7h409.2V118.6H459.4z M360.1,311.1c0,3.7-1,5-4.9,5c-14.2-0.2-28.5-0.3-42.7,0c-4.3,0.1-6.2-1.5-8-5.2
	c-19.3-40.9-38.7-81.7-58.1-122.5c-0.3-0.6-0.7-1.1-2.1-3.5c0,21.1,0,40.3,0,59.6c0,21.8-0.1,43.5,0.1,65.3c0,4.7-0.7,6.7-6,6.4
	c-10-0.5-20-0.3-30.1-0.1c-4.1,0.1-5.8-0.8-5.8-5.4c0.2-61,0.1-122.1,0-183.1c0-4,0.9-5.4,5.2-5.3c15.8,0.2,31.6,0.2,47.4,0
	c3.8-0.1,5.3,1.4,6.9,4.6c16.4,33.7,32.9,67.3,49.4,100.9c1.7,3.4,3.4,6.7,5.4,10.5c2.1-2,1.2-4.3,1.2-6.2
	c0.1-34.4,0.2-68.8-0.1-103.2c0-5.2,1.3-6.9,6.6-6.7c10,0.4,20,0.3,30.1,0.1c3.8-0.1,5.5,0.6,5.5,5C360,188.5,360,249.8,360.1,311.1
	z"/>
</svg>
