<?xml version="1.0" encoding="utf-8"?>
<!-- Generator: Adobe Illustrator 27.9.0, SVG Export Plug-In . SVG Version: 6.00 Build 0)  -->
<svg version="1.1" id="Layer_1" xmlns="http://www.w3.org/2000/svg" xmlns:xlink="http://www.w3.org/1999/xlink" x="0px" y="0px"
	 viewBox="0 0 512 512" style="enable-background:new 0 0 512 512;" xml:space="preserve">
<g>
	<path d="M502.5,465.9c0-89.1,0-178.3,0-267.4c-0.1-27.9,0.3-55.9-0.2-83.8c-10.6-0.2-21.3-0.9-31.9,0.4
		c-0.7-22.2,0.1-44.4-0.4-66.5c-1-12.6-12.9-22.3-25.3-22.5c-118.3,0-236.6,0-354.9,0C63.1,43.6,36.3,60.9,9.5,78.4
		c0.3,123.4,0,246.8,0.2,370.2c2.9-1.2,5.7-2.7,8.4-4.5c13.2-8.9,26.6-17.6,40.1-26c0,14.7,0,29.4,0,44.1
		c-0.1,6.7,3.5,12.8,8.3,17.3c6.3,5.7,15.3,6.5,23.5,6.5c137.5-0.1,274.9,0.1,412.4-0.1C502.7,479.2,502.4,472.5,502.5,465.9z
		 M365.7,317.9c-13.3,4.7-26.6,4.5-39.7-0.2c-8.4-3-14.4-9.4-19.2-16.7c-7.3-11.3-12.2-23.8-18.3-35.7c-4.1-7.9-8-15.8-11.9-23.8
		c-0.9-1.8-1.9-2.5-4-2.4c-5.4,0.2-10.9,0.3-16.3,0.1c-2.8-0.1-3.6,0.7-3.5,3.5c0.1,23.4,0,46.7,0.1,70.1c0,3-0.5,3.9-3.8,3.8
		c-15.5-0.3-31,0.5-46.5,0c-3.4-0.1-4.5-0.7-4.4-4.3c0.2-30,0.1-60,0.1-90c0-27.6,0-55.2,0-82.8c0-11.5,0.3-23.1,0.2-34.6
		c0-2.9,1-3.5,3.7-3.5c27.1,0.1,54.2-0.2,81.2,0.1c18.1,0.2,35.6,3.8,51,14.1c15.2,10.2,23.2,24.5,23.6,42.7
		c0.2,10.6,1.1,21.3-1.1,31.7c-3,13.7-11.4,23.7-22.6,31.5c-2.3,1.6-4.6,3.2-7.1,4.5c-2.1,1.1-2.8,1.9-1.4,4.4
		c7.5,13.7,14.8,27.6,22,41.4c3.8,7.3,9.2,11.9,17.8,11.8c2.4,0,3.1,1,3.1,3.4c-0.1,8.9-0.1,17.8,0,26.7
		C368.5,316.1,367.8,317.2,365.7,317.9z"/>
	<path d="M281.8,139.4c-8.7-0.9-17.5-0.3-26.2-0.4c-2.5,0-2.8,0.6-2.8,2.7c0.1,9.8,0,19.6,0,29.5c0,9.8,0,19.6,0,29.5
		c0,1.8,0.1,3,2.5,3c8.3-0.3,16.7,0.5,25-0.4c13.8-1.5,22.9-10.1,23.4-22.6c0.3-6.2,0.2-12.5,0-18.7
		C303.1,149,294.7,140.6,281.8,139.4z"/>
</g>
</svg>
