<?xml version="1.0" encoding="utf-8"?>
<!-- Generator: Adobe Illustrator 27.9.0, SVG Export Plug-In . SVG Version: 6.00 Build 0)  -->
<svg version="1.1" id="Layer_1" xmlns="http://www.w3.org/2000/svg" xmlns:xlink="http://www.w3.org/1999/xlink" x="0px" y="0px"
	 viewBox="0 0 512 512" style="enable-background:new 0 0 512 512;" xml:space="preserve">
<g id="b818edc7-5cfd-4757-990e-d21797195f39">
	<g>
		<path d="M459.4,118.6V64.2c0-7.1-2.9-13.5-7.5-18.2c-4.7-4.7-11.1-7.5-18.2-7.5h-339v0L17.5,85v355.8l42-25.3v32.2
			c0,14.2,11.5,25.7,25.7,25.7h409.2V118.6H459.4z M355.8,262.1c0,32.4-28.2,57.8-78,57.8c-49.6,0-79.4-23.1-82-66.2h46.5
			c1.1,15.8,6.2,30.4,35.5,30.4c22,0,28.7-9.9,28.7-19.2V259c0-14.1-7.6-17.5-34.4-25.9l-27.3-9c-29.6-9.3-42.5-25.1-42.5-49.6v-7
			c0-25.9,21.4-53.8,75.8-53.8c44.2,0,74.7,20,76.3,60.6H309c-1.4-15.2-9.6-27-30.7-27c-21.4,0-27.1,9-27.1,17.8v4
			c0,9.3,6.5,14.9,29.9,22.3l26.8,8.7c32.7,10.4,47.9,25.9,47.9,53.8V262.1z"/>
	</g>
</g>
</svg>
