<?xml version="1.0" encoding="utf-8"?>
<!-- Generator: Adobe Illustrator 27.9.0, SVG Export Plug-In . SVG Version: 6.00 Build 0)  -->
<svg version="1.1" id="Layer_1" xmlns="http://www.w3.org/2000/svg" xmlns:xlink="http://www.w3.org/1999/xlink" x="0px" y="0px"
	 viewBox="0 0 512 512" style="enable-background:new 0 0 512 512;" xml:space="preserve">
<g>
	<path d="M76.7,133.5c5.1-3,9.7-5.7,14.3-8.3c36.7-21,73.4-42,110.2-62.9c11.3-6.4,23.9-9.2,36.6-11.3c23.7-4,46.6-0.5,68.5,8.8
		c8.9,3.7,17.1,9.1,25.5,14c36.5,21,72.9,42.1,109.5,63c4,2.3,5.4,4.8,5.4,9.3c-0.2,49.8,0,99.6-0.2,149.4
		c-0.1,15.7-4.7,30.5-11.3,44.5c-11.4,24.3-28.3,43.3-52.1,56.5c-36.7,20.3-72.8,41.5-109.2,62.2c-2.2,1.2-4.4,2.4-7.7,4.1
		c0-3.8,0-6.3,0-8.8c0-66.8,0-133.6,0-200.4c0-1.6-0.2-3.2,0-4.7c0.6-4.6-1.5-7.1-5.5-9.3c-36.4-20.7-72.7-41.7-109.1-62.5
		c-23.5-13.5-46.9-27-70.4-40.5C79.9,135.6,78.7,134.7,76.7,133.5z M170.6,134c5.7,3.3,10.7,5.9,15.4,9c2.9,1.9,5.3,1.6,8.2-0.1
		c7.3-4.4,14.8-8.4,22.1-12.8c7.7-4.7,16-7.8,24.9-9c18.4-2.5,36.4-1.8,53,7.6c27,15.4,53.8,31,80.8,46.4c3.3,1.9,4.7,4.1,4.6,8
		c-0.2,13.6-0.1,27.3-0.1,40.9c0,13,0.2,26.1,0.1,39.1c0,7.3,0.3,14.7-0.8,21.9c-4.1,25.6-16.8,45.7-39.5,59
		c-7.5,4.4-15,8.7-22.7,12.9c-2.8,1.5-4.1,3.4-4,6.6c0.2,4.5,0,9.1,0.1,13.6c0,1.2,0.6,2.5,1.1,4.3c2.3-1.2,4-2.1,5.7-3
		c8.6-4.9,17-10.1,25.7-14.7c10.7-5.6,19.9-13,27.8-21.9c17-19.2,26.6-41.5,26.8-67.3c0.2-33.8,0-67.6,0.2-101.4
		c0-4.8-1.5-7.4-5.7-9.8c-23.7-13.5-47.3-27.3-70.9-40.9c-8.4-4.8-16.6-10.2-25.4-14c-19.1-8.3-39.3-10.2-59.9-6.9
		c-9.2,1.5-18.2,3.7-26.5,8.3c-12.2,6.9-24.4,13.9-36.5,20.9C173.8,131.5,172.7,132.5,170.6,134z M313.1,297.6
		c0.5,0.1,1,0.2,1.5,0.4c2.1-3,4.3-5.9,6.2-9c6.8-11.3,12.3-23,12.4-36.6c0.1-13.8-0.1-27.7,0.1-41.5c0.1-4.1-1.4-6.5-4.9-8.4
		c-9.2-5-18.4-10.1-27.2-15.7c-12.7-8-26.5-12.1-41.4-13c-5-0.3-10-0.1-15.9,2c2.3,1.5,3.7,2.5,5.2,3.3
		c19.3,11.2,38.7,22.4,58.1,33.4c4,2.3,5.8,4.8,5.8,9.7c-0.3,23.1-0.1,46.2-0.1,69.4C312.7,293.6,313,295.6,313.1,297.6z"/>
	<path d="M76.7,288c15.8-9,31-17.6,46.5-26.5c25,14.3,50,28.6,76.1,43.6c0.2-5.8,0.7-10.3,0.6-14.7c-0.4-9.8,2-7.7-7.7-13.2
		c-39.1-22.5-78.1-45-117.3-67.1c-6.8-3.8-10-7.7-9.4-15.9c0.9-12.4,0.2-24.9,0.2-37.3c0-1.7,0.2-3.4,0.3-6
		c6.6,3.8,12.6,7.1,18.5,10.6c52.3,30,104.5,60.1,156.9,90c3.6,2.1,4.8,4.4,4.8,8.4C246,325.4,246,391,246,456.6
		c0,1.7-0.2,3.4-0.4,5.8c-2.5-1.3-4.4-2.2-6.2-3.3c-38-21.9-76.1-43.7-114.1-65.6c-21.1-12.2-36.1-29.8-46.4-51.7
		c-4.7-10-8.7-20.3-10.8-31.3c-0.2-1.1-0.2-2.2-0.5-4.5c44.1,25.3,87.3,50.2,131.3,75.5c1.2-7.7,1-14.4,0.3-21
		c-0.2-1.6-2.6-3.3-4.4-4.3c-13.1-7.7-26.4-15.2-39.5-22.8c-25-14.4-50-28.8-75-43.2C79.3,289.8,78.4,289.1,76.7,288z"/>
</g>
</svg>
