<?xml version="1.0" encoding="utf-8"?>
<!-- Generator: Adobe Illustrator 27.9.0, SVG Export Plug-In . SVG Version: 6.00 Build 0)  -->
<svg version="1.1" id="Layer_1" xmlns="http://www.w3.org/2000/svg" xmlns:xlink="http://www.w3.org/1999/xlink" x="0px" y="0px"
	 viewBox="0 0 512 512" style="enable-background:new 0 0 512 512;" xml:space="preserve">
<style type="text/css">
	.st0{fill:#FFFFFF;}
</style>
<g>
	<path class="st0" d="M127.3,274.3c0-0.6,0.1-1.2,0.1-1.8c20.6,1.6,41.3,2.8,61.8,4.8c10.6,1.1,20.9,4,30.3,9.2
		c9,5,13.5,12.6,13.2,23c-0.4,12-5.7,22.1-12.2,31.7c-12.3,18.1-28.2,32.8-45.5,46.2c-18.3,14.2-37.6,26.9-59.5,35.1
		c-5.4,2-11.2,3.1-16.9,3.8c-5.7,0.6-7.6-1.6-6.7-7.3c0.7-4.6,1.9-9.3,3.9-13.4c9.6-19.2,19.5-38.3,29.6-57.3
		c5.7-10.8,12-21.2,17.6-32c1.8-3.4,2.7-7.4,3.2-11.3c0.5-3.9-2-6.1-5.8-5.1c-3.3,0.9-6.9,2.3-9.4,4.5c-4.9,4.5-9.5,9.4-13.4,14.7
		c-28.8,39-55.9,79.1-78.2,122.3c-4.5,8.8-8.8,17.8-12.4,27c-3.6,9.3-1.3,12,8.7,11c7.2-0.8,14.3-2,21.3-3.8
		c31.5-7.9,61.1-20.7,90-35.2c33.6-16.9,64.9-37.2,91.5-64.2c19.4-19.7,35.1-41.8,43.4-68.6c2.5-8.1,2.6-16.2-0.5-24.1
		c-3.9-10.2-11.5-17-20.9-22c-19.5-10.4-40.8-14.2-62.5-16.1c-32.1-2.8-63.7,1-94.9,8.6c-7,1.7-13.6,4.6-20.2,7.5
		c-1.7,0.7-3.7,3.4-3.5,5c0.1,1.7,2.4,3.6,4.2,4.7c2,1.1,4.5,1.8,6.9,1.9C103,273.5,115.1,273.8,127.3,274.3z M355.7,431.1
		c17.7-0.2,36-0.9,53.9-5.1c10.5-2.5,20.7-6,29.6-12.5c16.6-12,22.2-30.3,14.1-49.1c-3.2-7.5-7.2-14.9-12.1-21.3
		c-10.6-14-21.8-27.5-33.1-41.1c-11.2-13.5-22.9-26.7-34.1-40.2c-5.4-6.6-9.6-14-11.7-22.4c-2.8-11.6,0.4-18.9,11.9-22
		c10.4-2.9,21.3-4.6,32.1-5.4c18.8-1.3,37.7-1.2,56.6-2.1c6.3-0.3,12.7-1.4,18.8-3c5.4-1.5,6.1-5.5,1.7-9.1c-2.9-2.3-6.4-4.3-10-5.3
		c-8.5-2.2-17.1-4-25.7-5.5c-27.2-4.8-54.6-6.6-82.1-2.1c-14.7,2.4-28.8,6.6-40.7,15.9c-10.2,7.9-17.8,17.8-16,31.4
		c1,7.7,3.3,15.7,7.2,22.4c6.8,11.9,14.6,23.3,23.1,34c15.3,19.2,31.6,37.5,47,56.6c5.6,7,9.9,15.1,14.7,22.8
		c0.8,1.3,1.2,2.9,1.6,4.4c3.3,10.9-0.1,17.9-10.8,21.7c-13,4.6-26.6,5.9-40.1,6.6c-27.6,1.5-55.3,2.4-82.9,3.7
		c-5.5,0.3-11,1-16.5,1.9c-3.1,0.5-5.6,2.2-6.1,5.7c-0.5,3.4,1.7,5.4,4.4,6.6c3.1,1.4,6.3,2.7,9.6,3.3
		C291.4,427.5,323.2,430.4,355.7,431.1z"/>
	<path d="M284.5,32.5c7,0.9,14,1.7,21,2.7c12,1.7,23.6,4.6,34.6,9.8c22.4,10.6,29.8,28.3,22,51.8c-4.5,13.5-12.2,25.2-21.3,35.9
		c-25.7,30.4-57.3,53.4-91.7,72.8c-13.2,7.4-26.6,14.6-41.5,18.3c-2,0.5-4.2,0.8-6.3,0.7c-4.7,0-6.5-3.2-3.8-7.1
		c1.9-2.9,4.3-5.7,7-7.9c8.6-7.2,17.3-14.2,26.2-21c22.3-16.9,44.2-34.3,62.5-55.5c6.7-7.8,12.2-16.6,18.1-25.1
		c1.1-1.6,1.8-3.5,2.6-5.3c7.1-16.8,2.9-26.7-14.2-32.9c-16.4-5.9-33.5-8.5-50.8-9.4c-16-0.9-32-0.5-48-1.1c-5-0.2-10.1-1.2-15-2.6
		c-2-0.6-4.6-2.9-4.8-4.6c-0.1-1.6,2.3-4.4,4.2-5c10.3-3.4,20.6-7.2,31.2-9.3c12.5-2.4,25.3-3.2,37.9-4.7c1.2-0.1,2.5-0.5,3.7-0.8
		C266.9,32.5,275.7,32.5,284.5,32.5z"/>
	<path d="M127.3,274.3c-12.2-0.4-24.4-0.8-36.5-1.4c-2.3-0.1-4.9-0.8-6.9-1.9c-1.8-1-4.1-3-4.2-4.7c-0.1-1.6,1.8-4.3,3.5-5
		c6.6-2.8,13.3-5.8,20.2-7.5c31.2-7.6,62.8-11.4,94.9-8.6c21.7,1.9,43,5.7,62.5,16.1c9.4,5,16.9,11.8,20.9,22c3.1,8,3,16,0.5,24.1
		c-8.2,26.8-23.9,48.9-43.4,68.6c-26.6,27-57.9,47.2-91.5,64.2c-28.9,14.6-58.5,27.3-90,35.2c-7,1.8-14.1,3-21.3,3.8
		c-10.1,1.1-12.3-1.6-8.7-11c3.6-9.2,7.8-18.2,12.4-27c22.3-43.2,49.4-83.3,78.2-122.3c3.9-5.3,8.5-10.2,13.4-14.7
		c2.5-2.3,6.1-3.7,9.4-4.5c3.8-1,6.3,1.2,5.8,5.1c-0.5,3.9-1.4,7.9-3.2,11.3c-5.6,10.8-12,21.2-17.6,32c-10,19-19.9,38.1-29.6,57.3
		c-2.1,4.1-3.2,8.8-3.9,13.4c-0.9,5.7,1,7.9,6.7,7.3c5.7-0.6,11.5-1.7,16.9-3.8c21.9-8.2,41.1-20.9,59.5-35.1
		c17.2-13.3,33.1-28,45.5-46.2c6.5-9.6,11.8-19.7,12.2-31.7c0.3-10.4-4.1-18-13.2-23c-9.4-5.2-19.7-8.1-30.3-9.2
		C168.7,275.3,127.3,273.7,127.3,274.3z"/>
	<path d="M355.7,431.1c-32.5-0.7-64.3-3.5-95.7-9.4c-3.3-0.6-6.5-1.9-9.6-3.3c-2.7-1.2-4.8-3.2-4.4-6.6c0.5-3.5,3-5.2,6.1-5.7
		c5.4-0.9,10.9-1.6,16.5-1.9c27.6-1.3,55.3-2.2,82.9-3.7c13.6-0.7,27.2-2,40.1-6.6c10.7-3.8,14.1-10.8,10.8-21.7
		c-0.4-1.5-0.8-3.1-1.6-4.4c-4.8-7.7-9-15.8-14.7-22.8c-15.4-19.1-31.8-37.4-47-56.6c-8.5-10.7-16.3-22.1-23.1-34
		c-3.8-6.7-6.2-14.7-7.2-22.4c-1.8-13.6,5.8-23.4,16-31.4c12-9.3,26.1-13.5,40.7-15.9c27.5-4.5,54.8-2.7,82.1,2.1
		c8.6,1.5,17.2,3.3,25.7,5.5c3.6,0.9,7.1,2.9,10,5.3c4.4,3.5,3.7,7.6-1.7,9.1c-6.1,1.7-12.5,2.7-18.8,3c-18.8,0.9-37.7,0.8-56.6,2.1
		c-10.8,0.7-21.7,2.5-32.1,5.4c-11.4,3.1-14.7,10.4-11.9,22c2,8.4,6.3,15.9,11.7,22.4c11.2,13.6,22.8,26.7,34.1,40.2
		c11.2,13.5,22.5,27,33.1,41.1c4.9,6.5,8.9,13.9,12.1,21.3c8.1,18.8,2.6,37.1-14.1,49.1c-8.9,6.4-19,10-29.6,12.5
		C391.7,430.2,373.4,430.9,355.7,431.1z"/>
</g>
</svg>
