<?xml version="1.0" encoding="utf-8"?>
<!-- Generator: Adobe Illustrator 27.9.0, SVG Export Plug-In . SVG Version: 6.00 Build 0)  -->
<svg version="1.1" id="Layer_1" xmlns="http://www.w3.org/2000/svg" xmlns:xlink="http://www.w3.org/1999/xlink" x="0px" y="0px"
	 viewBox="0 0 512 512" style="enable-background:new 0 0 512 512;" xml:space="preserve">
<g id="ae2ff353-31f6-4325-9fec-04001b3974dc">
	<path d="M104.7,418.7c25.4-11.2,51.7-20.4,78.5-27.6c2.9-0.8,6-1.5,8.9-2.3c26.2-6.6,52.9-11.4,79.8-14.4c2.5-0.3,5.1-0.5,7.7-0.7
		c4.2-0.4,8.4-0.8,12.5-1.1c41.5-3.4,83.2-1.8,124.3,4.8c23.9,3.9,47.5,10,70.4,18.1c-63.3-2.9-126.7-0.8-189.7,6.2
		c-92.7,9.8-183.9,30.3-271.9,61.1C50.2,445.5,76.8,430.8,104.7,418.7z"/>
	<path d="M183.2,380.3l8.9-2.3c17.1-4.3,34.6-7.8,52.5-10.7V49.3l-55.4,53.1l-22,282.6C172.4,383.4,177.8,381.8,183.2,380.3z"/>
	<path d="M271.9,363.6c2.5-0.3,5.1-0.5,7.7-0.7c4.2-0.4,8.4-0.8,12.5-1.1c17.3-1.3,34.3-1.7,50.9-1.5l-20.1-257.9l-55.4-53.1v314.9
		C268.9,364,270.4,363.8,271.9,363.6z"/>
	<path d="M101,212.2l-18,205.9c7.1-3.5,14.3-6.9,21.7-10.1c13-5.7,26.5-11,40.4-15.8L164.2,160L101,212.2z M117.7,208.6l3.9,62.5
		l19.2-79.8l14.4-11.3l-28.5,113.4l-10.2,4.4l-10.4-81.2L117.7,208.6z M125.7,393.1l-4.3-52.5l-16.3,60.2l-10.9,4l21.8-85.3
		l10.4-3.8l10.2,73.5L125.7,393.1z M144.9,302.1l-48.1,18.7l0.5-8.6l48.5-20L144.9,302.1z"/>
	<path d="M411,212.2l-63.2-52.3l16.5,201.1c17.4,1,34.8,2.9,52,5.7c2.8,0.4,5.5,1,8.3,1.5L411,212.2z M377.4,190.7l10.9,11.4
		l20.1,70.5l-12-4.2l-13.1-51.1l-7.5,43.3l-11.2-3.7L377.4,190.7z M363.9,269.5l-0.5-7.9l48.1,17l0.5,7.5L363.9,269.5z M404.5,360.1
		L388.9,305l-5.6,52l-11.1-1.8L382,280l11.2,4.1l22.5,77.6L404.5,360.1z"/>
</g>
</svg>
