<svg height="384pt" viewBox="0 0 384 384" width="384pt" xmlns="http://www.w3.org/2000/svg"><path d="m377.648438 143.039062c-6.015626-22.800781-16.160157-43.933593-29.535157-62.597656-.433593-.730468-.921875-1.402344-1.457031-2.050781-27.921875-37.902344-69.410156-65.207031-117.25-74.695313-.167969-.039062-.335938-.054687-.511719-.085937-11.941406-2.34375-24.269531-3.609375-36.894531-3.609375-12.566406 0-24.847656 1.246094-36.753906 3.566406-.222656.050782-.453125.066406-.679688.121094-47.839844 9.496094-89.328125 36.808594-117.238281 74.71875-.519531.632812-1 1.289062-1.425781 2-13.398438 18.691406-23.550782 39.851562-29.566406 62.691406-.246094.734375-.433594 1.488282-.574219 2.246094-3.746094 14.945312-5.761719 30.566406-5.761719 46.65625v32c0 8.832031 7.167969 16 16 16h48v72c0 39.703125 32.304688 72 72 72h112c39.703125 0 72-32.296875 72-72v-72h48c8.832031 0 16-7.167969 16-16v-32c0-16.0625-2.007812-31.664062-5.742188-46.585938-.144531-.804687-.347656-1.597656-.609374-2.375zm-52.015626-38.800781c8.230469 12.488281 14.800782 26.152344 19.296876 40.738281-4.464844 4.421876-10.546876 7.023438-16.929688 7.023438-13.230469 0-24-10.769531-24-24 0-12.425781 9.519531-22.550781 21.632812-23.761719zm-106.792968-69.796875c8.382812 7.511719 13.160156 18.070313 13.160156 29.558594 0 22.054688-17.945312 40-40 40s-40-17.945312-40-40c0-11.488281 4.777344-22.046875 13.160156-29.566406 8.742188-1.488282 17.671875-2.433594 26.839844-2.433594s18.097656.953125 26.839844 2.441406zm-160.472656 69.796875c12.113281 1.21875 21.632812 11.347657 21.632812 23.761719 0 13.230469-10.769531 24-24 24-6.375 0-12.457031-2.601562-16.921875-7.023438 4.488281-14.585937 11.066406-28.25 19.289063-40.738281zm229.632812 207.761719c0 22.054688-17.945312 40-40 40h-112c-22.054688 0-40-17.945312-40-40v-72h192zm64-104h-320v-16c0-4.472656.3125-8.863281.671875-13.238281 7.238281 3.335937 15.152344 5.238281 23.328125 5.238281 30.878906 0 56-25.121094 56-56 0-22.152344-12.960938-41.289062-31.671875-50.359375 12.085937-11.808594 26.070313-21.617187 41.390625-29.152344-1.09375 5.03125-1.71875 10.207031-1.71875 15.511719 0 39.695312 32.304688 72 72 72 39.703125 0 72-32.304688 72-72 0-5.304688-.625-10.488281-1.710938-15.511719 15.320313 7.535157 29.304688 17.34375 41.390626 29.152344-18.710938 9.070313-31.679688 28.207031-31.679688 50.359375 0 30.878906 25.128906 56 56 56 8.175781 0 16.089844-1.902344 23.328125-5.238281.359375 4.375.671875 8.773437.671875 13.238281zm0 0"/><path d="m232 320c8.832031 0 16-7.167969 16-16v-24.113281c0-8.832031-7.167969-16-16-16s-16 7.167969-16 16v24.113281c0 8.839844 7.167969 16 16 16zm0 0"/><path d="m152 320c8.832031 0 16-7.167969 16-16v-24.175781c0-8.832031-7.167969-16-16-16s-16 7.167969-16 16v24.175781c0 8.839844 7.167969 16 16 16zm0 0"/></svg>