<?xml version="1.0" encoding="utf-8"?>
<!-- Generator: Adobe Illustrator 27.9.0, SVG Export Plug-In . SVG Version: 6.00 Build 0)  -->
<svg version="1.1" id="Layer_1" xmlns="http://www.w3.org/2000/svg" xmlns:xlink="http://www.w3.org/1999/xlink" x="0px" y="0px"
	 viewBox="0 0 300 300" style="enable-background:new 0 0 300 300;" xml:space="preserve">
<g>
	<path d="M3.3,149.6c0.2-0.7,0.4-1.3,0.5-2c1.2-7.1,7.1-12.2,14.3-12.3c4.7,0,9.5,0,14.2,0c0.5,0,1,0,1.6,0
		c3.7-26.5,14.7-49.4,33.5-68.2c18.8-18.8,41.6-29.8,68.1-33.4c0-0.6,0-1.1,0-1.6c0-4.6,0-9.3,0-13.9c0-7.1,4.6-13,11.6-14.4
		c9.1-1.9,16.2,4.4,17.4,11.7c0.2,1.2,0.3,2.5,0.3,3.7c0,4.2,0,8.5,0,12.7c0,0.5,0,1,0,1.8c26.4,3.7,49.3,14.6,68.1,33.5
		c18.8,18.8,29.8,41.6,33.5,68.2c0.5,0,1,0,1.5,0c4.7,0,9.4,0,14,0c7.1,0,13.1,4.8,14.4,11.8c1.9,10-5.7,17.2-13.7,17.4
		c-4.9,0.1-9.7,0-14.6,0.1c-0.5,0-1,0-1.7,0c-3.7,26.4-14.7,49.3-33.5,68.2c-18.8,18.8-41.7,29.8-68.1,33.5c0,0.6,0,1.1,0,1.6
		c0,4.5,0,9,0,13.5c0,4.5-1.5,8.5-4.9,11.5c-4.6,4-9.9,4.9-15.5,2.5c-5.6-2.4-8.6-6.9-8.8-13c-0.2-4.7,0-9.5,0-14.2
		c0-0.6,0-1.1,0-1.9c-26.4-3.7-49.3-14.6-68.1-33.5c-18.9-18.9-29.8-41.7-33.5-68.2c-0.6,0-1.2,0-1.7,0c-4.8,0-9.6,0.1-14.5-0.1
		c-4.9-0.1-8.8-2.4-11.6-6.4c-1.2-1.7-2-3.7-2.3-5.8c-0.1-0.7-0.4-1.5-0.5-2.2C3.3,150,3.3,149.8,3.3,149.6z M135.6,63.3
		C117,66.6,101.2,74.8,88,88c-13.1,13.1-21.1,28.9-24.4,47.4c0.7,0,1.2,0,1.7,0c4,0,7.9-0.1,11.9,0c5.8,0.2,10.3,2.9,12.8,8.2
		c2.6,5.2,2.1,10.4-1.4,15.1c-2.7,3.8-6.6,5.8-11.3,5.9c-4,0.1-8,0-12,0c-0.5,0-1,0-1.8,0c1.8,10.7,5.4,20.6,10.9,29.8
		c8.9,15.1,21.3,26.5,36.9,34.3c8,4,20.5,7.7,24.2,7.5c0-0.5,0-1,0-1.6c0-4.1-0.1-8.1,0-12.2c0.3-5.7,3.1-10,8.2-12.5
		c5.2-2.5,10.2-2,14.9,1.3c3.9,2.7,5.9,6.6,6.1,11.3c0.1,4.1,0,8.1,0.1,12.2c0,0.5,0,1,0,1.7c19.7-3.6,36.4-12.5,49.8-27.1
		c11.8-12.7,19-27.7,22.1-44.8c-0.5,0-0.9-0.1-1.2-0.1c-3.7,0-7.4,0-11.2,0c-1.3,0-2.7-0.1-4-0.3c-7.2-1.4-12.2-8.3-11.6-15.5
		c0.7-7.7,6.9-13.4,14.7-13.4c3.9,0,7.7,0,11.6,0c0.5,0,1,0,1.6-0.1c-2.4-13.7-7.6-26-15.6-37c-9-12.4-20.5-21.7-34.4-28.1
		c-6.9-3.2-14.2-5.5-21.9-6.7c0,0.7,0,1.2,0,1.8c0,4.1,0.1,8.1-0.1,12.2c-0.4,9.2-9,15.7-18,13.6c-6.5-1.5-11.1-7.3-11.2-14
		c-0.1-4,0-7.9,0-11.9C135.6,64.5,135.6,64,135.6,63.3z"/>
	<path d="M135.6,150c0-8.1,6.5-14.7,14.6-14.7c8.1,0,14.7,6.5,14.7,14.6c0,8-6.5,14.6-14.5,14.6C142.1,164.6,135.6,158.2,135.6,150z
		"/>
</g>
</svg>
