<?xml version="1.0" encoding="iso-8859-1"?>
<!-- Generator: Adobe Illustrator 19.0.0, SVG Export Plug-In . SVG Version: 6.00 Build 0)  -->
<svg version="1.1" id="Capa_1" xmlns="http://www.w3.org/2000/svg" xmlns:xlink="http://www.w3.org/1999/xlink" x="0px" y="0px"
	 viewBox="0 0 512 512" style="enable-background:new 0 0 512 512;" xml:space="preserve">
<g>
	<g>
		<path d="M437.02,74.98C388.667,26.629,324.38,0,256,0S123.333,26.629,74.98,74.98C26.629,123.333,0,187.62,0,256
			s26.629,132.667,74.98,181.02C123.333,485.371,187.62,512,256,512s132.667-26.629,181.02-74.98
			C485.371,388.667,512,324.38,512,256S485.371,123.333,437.02,74.98z M160.392,51.251c-8.319,13.85-15.777,30.164-22.215,48.725
			c-3.445,9.931-6.508,20.324-9.226,31.07c-18.006-3.799-35.172-8.413-51.22-13.796C99.586,89.233,127.891,66.489,160.392,51.251z
			 M60.348,142.984c19.305,6.902,40.221,12.712,62.27,17.367c-4.623,25.506-7.344,52.621-8.061,80.649H30.51
			C32.849,205.479,43.421,172.173,60.348,142.984z M60.29,368.92C43.397,339.754,32.847,306.481,30.51,271h84.047
			c0.716,28.004,3.433,55.097,8.048,80.584C100.543,356.229,79.611,362.028,60.29,368.92z M77.664,394.663
			c16.065-5.376,33.248-9.983,51.27-13.773c2.721,10.77,5.791,21.185,9.243,31.136c6.438,18.56,13.896,34.873,22.215,48.723
			C127.858,445.496,99.529,422.72,77.664,394.663z M241,481.49c-8.44-0.556-16.759-1.56-24.923-3.021
			c-21.986-13.56-43.943-49.84-57.663-102.939c26.444-4.081,54.235-6.5,82.586-7.128V481.49z M241,338.393
			c-30.505,0.65-60.464,3.294-88.981,7.786c-4.106-22.799-6.756-47.973-7.474-75.179H241V338.393z M241,241h-96.455
			c0.718-27.225,3.371-52.416,7.482-75.229c28.509,4.506,58.464,7.164,88.973,7.828V241z M241,143.59
			c-28.353-0.641-56.139-3.072-82.574-7.167c13.721-53.073,35.672-89.337,57.652-102.892c8.164-1.461,16.483-2.465,24.922-3.021
			V143.59z M451.709,143.08c16.894,29.167,27.444,62.439,29.781,97.92h-84.047c-0.716-28.004-3.433-55.097-8.049-80.584
			C411.456,155.771,432.388,149.972,451.709,143.08z M434.335,117.337c-16.065,5.376-33.248,9.983-51.27,13.773
			c-2.721-10.769-5.791-21.183-9.242-31.134c-6.438-18.561-13.896-34.875-22.215-48.725
			C384.142,66.504,412.471,89.28,434.335,117.337z M271,30.51c8.439,0.556,16.758,1.56,24.922,3.021
			c21.986,13.559,43.943,49.84,57.664,102.939c-26.444,4.081-54.235,6.5-82.586,7.128V30.51z M271,173.607
			c30.505-0.65,60.464-3.294,88.981-7.786c4.106,22.8,6.756,47.974,7.474,75.18H271V173.607z M271,271h96.455
			c-0.718,27.225-3.371,52.416-7.482,75.229c-28.509-4.506-58.463-7.164-88.973-7.828V271z M295.923,478.469
			c-8.164,1.461-16.483,2.465-24.923,3.021V368.41c28.353,0.641,56.14,3.072,82.574,7.167
			C339.853,428.65,317.903,464.913,295.923,478.469z M351.608,460.749c8.319-13.85,15.777-30.162,22.215-48.723
			c3.445-9.932,6.509-20.325,9.227-31.072c18.006,3.798,35.172,8.413,51.22,13.796C412.414,422.767,384.109,445.511,351.608,460.749
			z M451.652,369.016c-19.305-6.902-40.221-12.712-62.27-17.367c4.623-25.506,7.344-52.621,8.06-80.649h84.047
			C479.151,306.521,468.579,339.827,451.652,369.016z"/>
	</g>
</g>
<g>
</g>
<g>
</g>
<g>
</g>
<g>
</g>
<g>
</g>
<g>
</g>
<g>
</g>
<g>
</g>
<g>
</g>
<g>
</g>
<g>
</g>
<g>
</g>
<g>
</g>
<g>
</g>
<g>
</g>
</svg>
