<?xml version="1.0" encoding="utf-8"?>
<!-- Generator: Adobe Illustrator 27.9.0, SVG Export Plug-In . SVG Version: 6.00 Build 0)  -->
<svg version="1.1" id="Layer_1" xmlns="http://www.w3.org/2000/svg" xmlns:xlink="http://www.w3.org/1999/xlink" x="0px" y="0px"
	 viewBox="0 0 300 300" style="enable-background:new 0 0 300 300;" xml:space="preserve">
<g>
	<path d="M106.2,42.1c-0.5,0.2-1.4,0.3-2,0.7C87.6,52.9,70.7,62.4,54.6,73.3C39.2,83.7,31.3,99,31.2,117.9c0,21.3,0,42.5,0,63.8
		c0,15.2,5.8,28,16.2,38.7c10.1,10.5,22,12,34.6,4.7c16.4-9.5,32.7-19.1,49.1-28.8c1.2-0.7,2.2-1.7,3.9-3.1
		c-3.1-2.2-5.8-4.1-8.5-5.9c-10.9-7.4-18.5-17.1-19.5-30.5c-0.9-12-0.8-24.1-0.9-36.2C106.1,94.7,106.2,68.7,106.2,42.1z
		 M268.4,167.1c0.1-1.1,0.2-3.1,0.2-5.1c0-14.4,0-28.8,0.1-43.1c0.2-21.3-9.5-37.2-27.2-48.2c-20.8-13-42-25.6-63-38.4
		c-10.5-6.4-22-8.6-34.2-7.4c-12,1.2-23.9,12.4-24.2,24.2c-0.5,21.4-0.1,42.9,0,64.4c0,0.3,0.5,0.6,1.1,1.3c1.7-0.8,3.6-1.5,5.4-2.5
		c15.6-8.6,30.9-8.1,46.3,0.9c12.9,7.6,26.2,14.7,39.2,22C230.9,145.7,249.4,156.3,268.4,167.1z M79.8,242.3
		c13.8,8.3,27,16.3,40.2,24.2c20.1,12.1,40.2,12,60.2-0.1c20.7-12.5,41.4-24.9,61.8-37.9c5.9-3.7,11.3-8.7,15.7-14
		c11.6-14.2,7.4-34.2-8.7-43.3c-10.3-5.8-20.7-11.6-31.1-17.4c-7.6-4.2-15.2-8.3-24-13.1c0,3.5,0,5.5,0,7.5
		c-0.3,17.4-7.5,30.8-22.7,39.7c-5.9,3.5-11.8,7.1-17.7,10.6C129.2,212.9,104.9,227.4,79.8,242.3z"/>
</g>
</svg>
