<?xml version="1.0" encoding="utf-8"?>
<!-- Generator: Adobe Illustrator 27.9.0, SVG Export Plug-In . SVG Version: 6.00 Build 0)  -->
<svg version="1.1" id="Layer_1" xmlns="http://www.w3.org/2000/svg" xmlns:xlink="http://www.w3.org/1999/xlink" x="0px" y="0px"
	 viewBox="0 0 512 512" style="enable-background:new 0 0 512 512;" xml:space="preserve">
<g>
	<path d="M443.2,350.1V126.6c0-3.9-3.1-7-7-7H75.8c-3.9,0-7,3.1-7,7v223.4c0,3.9,3.1,7,7,7h360.4
		C440.1,357.1,443.2,353.9,443.2,350.1z M429.2,343.1H82.8V133.6h346.4V343.1z"/>
	<path d="M486.8,369.9h-16.7V117.7c0-13.8-11.2-25-25-25H66.9c-13.8,0-25,11.2-25,25v252.2H25.2c-3.9,0-7,3.1-7,7v17.3
		c0,13.8,11.2,25,25,25h425.5c13.8,0,25-11.2,25-25v-17.3C493.8,373.1,490.6,369.9,486.8,369.9L486.8,369.9z M55.9,117.7
		c0-6.1,4.9-11,11-11h378.2c6.1,0,11,4.9,11,11v252.2H308.6c-3.9,0-7,3.1-7,7v3.7h-91.2v-3.7c0-3.9-3.1-7-7-7H55.9L55.9,117.7z
		 M479.8,394.3c0,6.1-4.9,11-11,11H43.2c-6.1,0-11-4.9-11-11v-10.3h164.2v3.7c0,3.9,3.1,7,7,7h105.2c3.9,0,7-3.1,7-7v-3.7h164.2
		L479.8,394.3z"/>
</g>
</svg>
