<?xml version="1.0" encoding="utf-8"?>
<!-- Generator: Adobe Illustrator 27.9.0, SVG Export Plug-In . SVG Version: 6.00 Build 0)  -->
<svg version="1.1" id="Layer_1" xmlns="http://www.w3.org/2000/svg" xmlns:xlink="http://www.w3.org/1999/xlink" x="0px" y="0px"
	 viewBox="0 0 512 512" style="enable-background:new 0 0 512 512;" xml:space="preserve">
<g>
	<path d="M447.6,432.8c-0.2-6.5-1.2-12.9-4-18.8c-3-6.3-6-12.7-9.2-18.9l-90.4-186c-5.8-12.3-11.8-24.5-17.8-36.7
		c-1.1-2.3-1.2-4.2-0.1-6.6c6-14.3,6.4-28.8,0.8-43.4c-5.4-14.2-15.2-24.7-28.5-31.8c-2-1.1-2.5-2.3-2.4-4.3c0.1-5.1,0-10.2,0-15.3
		c0-5.1,0.1-10.2,0-15.3c-0.2-13.4-11.4-24.9-24.6-24.6c-13.8,0.3-24.2,11.5-24.3,24.2c-0.1,10.2-0.1,20.4,0,30.5c0,2.5-0.8,3.9-3,5
		c-7,3.4-13.1,8.2-17.8,14.3c-14.8,18.7-18.1,39.2-9,61.6c0.6,1.4,0.5,3.5-0.1,4.8c-2.5,5.6-5.2,11.1-7.9,16.7
		c-13.1,26.8-26.2,53.7-39.2,80.5c-1.8,3.7-2.3,3.9-5.6,1.3c-15.6-12.1-29-26.1-39.8-42.7c-5.5-8.5-14.8-10.1-23-4.1
		c-10.1,7.4-20.1,14.9-30.2,22.3c-8.4,6.1-10.1,14.4-4.2,23c17.8,26.4,40.1,48.4,66.4,66.2c2.5,1.7,3,3.1,1.6,5.8
		c-10.9,22.3-21.6,44.6-32.6,66.8c-3.4,6.9-6.5,14-6.9,21.7c-0.6,11.8-0.7,23.6-0.7,35.4c0,7,3.8,12.1,10.1,14.9
		c5.7,2.6,11.4,2.1,16.5-1.9c6.8-5.4,13.6-11,20.4-16.5c6-4.9,12.3-9.7,15.9-16.8c4.7-9,9.1-18.1,13.5-27.2
		c7.9-16.2,15.7-32.4,23.6-48.6c0.7-1.5,1.2-3.1,3.7-2.3c21.3,6.6,43.1,10.2,65.5,11c14.5,0.5,29,0,43.3-2.4
		c12.3-2.1,24.4-5.3,36.5-8.2c2.2-0.5,3.1,0,4,1.8c11.5,23.8,22.8,47.6,34.6,71.2c2.7,5.3,6.3,10.5,10.6,14.5
		c8.5,8,17.8,15,26.7,22.5c5.6,4.7,11.7,6,18.3,2.9c6.7-3.1,9.9-8.9,9.9-16.1C448.2,452.9,447.9,442.8,447.6,432.8z M262.2,56.5
		c0-5.9,3.9-10.2,9.4-10.3c5.4-0.1,9.6,4.1,9.7,10.1c0.1,8.4,0,16.9,0,25.3c0,0.7-0.2,1.4-0.2,1.9c-6.2,0-12.3,0-18.6,0
		c-0.1-0.8-0.2-1.7-0.2-2.7C262.2,72.7,262.2,64.6,262.2,56.5z M271.3,98.8c24.6-0.2,44.3,19.5,44.6,44.5
		c0.2,23.9-19.8,43.9-44.1,44.1c-24,0.1-44.2-19.6-44.5-43.4C227,119.3,246.7,99.1,271.3,98.8z M314.2,300.3
		c-28.5,7-56.5,6.9-85-0.1c14.1-29.1,28.2-58,42.5-87.4C286,242.2,300,271.1,314.2,300.3z M432.3,465.6c-1.1-0.4-2.5-0.5-3.3-1.2
		c-7.9-6.4-16-12.6-23.5-19.5c-3.5-3.2-6.8-7.1-8.9-11.4c-13.6-27.3-26.8-54.8-40.1-82.3c-0.6-1.3-1.3-2.5-2.1-4
		c-55,20-110,19.9-165.3-0.2c-2,4-4,8-6,12.1c-12.2,25-24.2,50.1-36.6,75c-2,4-5.2,7.8-8.5,10.8c-7.5,6.7-15.5,12.9-23.3,19.2
		c-0.9,0.7-2.2,1-3.3,1.5c-0.4-1.2-1.1-2.5-1.1-3.7c0.1-10.1,0.1-20.2,0.8-30.2c0.3-4.8,1.5-9.9,3.6-14.3
		c13.1-27.7,26.6-55.1,40-82.7c0.5-1,0.9-1.9,1.6-3.4C124.9,313,99,289.1,78.5,258.7c11.1-8.2,21.9-16.1,32.9-24.2
		c8.2,12.3,17.4,23.5,27.9,33.5c10.5,10,22.1,18.7,34.8,26.5c17.9-36.7,35.6-73.3,53.6-110.3c8.9,9,19.1,15.1,31.7,17.8
		c-17.5,36-34.9,71.9-52.5,108c43.1,14.9,86,15.1,129.4,0.2c-17.5-36.1-35-72.1-52.6-108.3c12.5-2.7,22.8-8.7,31.7-17.8
		c4,8.2,7.9,16.2,11.8,24.1c20.6,42.3,41.1,84.7,61.7,127c13.2,27.2,26.5,54.5,39.8,81.7c2.6,5.3,3.9,10.9,3.9,16.9
		c0,9.4,0.4,18.8,0.6,28.2C433.3,463.2,432.7,464.4,432.3,465.6z"/>
	<path d="M271.9,159.8c8.9-0.1,16.3-7.5,16.4-16.4c0.1-9.1-7.2-16.6-16.3-16.7c-9.5-0.1-16.7,7.1-16.7,16.5
		C255.1,152.5,262.6,159.9,271.9,159.8z"/>
</g>
</svg>
