<?xml version="1.0" encoding="utf-8"?>
<!-- Generator: Adobe Illustrator 27.9.0, SVG Export Plug-In . SVG Version: 6.00 Build 0)  -->
<svg version="1.1" id="Layer_1" xmlns="http://www.w3.org/2000/svg" xmlns:xlink="http://www.w3.org/1999/xlink" x="0px" y="0px"
	 viewBox="0 0 512 512" style="enable-background:new 0 0 512 512;" xml:space="preserve">
<style type="text/css">
	.st0{fill:#010202;}
</style>
<g>
	<path class="st0" d="M363.8,357.2c-8.2,0-16.3-0.8-24.5-3.3c-22.1-4.9-41.7-16.5-59.6-34.6c-9-9.1-17.2-19.7-24.5-31.3
		c-8.2,13.2-18,25.5-28.6,37c-11.4,13.2-27,22.2-44.1,27.2c-16.3,4.9-33.5,5.8-50.6,2.5c-17.2-3.3-33.5-9.9-46.6-19.7
		c-14.7-10.7-26.1-24.7-32.7-41.1c-6.5-14.8-9-32.1-6.5-49.4c2.5-16.5,9-32.1,18.8-46.1c9.8-14,22.1-24.7,35.9-32.1
		c14.7-8.2,31-11.5,46.6-10.7h0.8c9,0,18,0.8,26.1,2.5c22.1,4.9,42.5,17.3,60.5,36.2c8.2,8.2,15.5,18.1,22.1,27.2
		c13.1-18.9,27.8-37,48.2-50.2c13.9-9.9,31-15.6,49-16.5c17.2-0.8,34.3,2.5,50.6,9.1c33.5,14.8,56.4,42.8,61.3,75.7
		c2.5,16.5,0.8,34.6-6.5,50.2c-6.5,14.8-16.3,28.8-28.6,40.3C411.1,347.4,387.4,357.2,363.8,357.2z M276.4,254.4
		c7.4,15.6,17.2,29.6,27.8,40.3c13.1,13.2,27.8,21.4,43.3,25.5h0.8h0.8c19.6,5.8,41.7,0,59.6-15.6s27-38.7,23.7-59.2
		c-3.3-20.6-18.8-39.5-40.8-49.4c-22.9-9.9-49-8.2-66.2,4.1h-0.8C303.3,213.3,289.4,233,276.4,254.4z M142.4,191.1
		c-19.4,0.6-37.3,9.4-49.9,27.9c-6.5,9.1-10.6,19.7-12.3,29.6c-1.6,10.7,0,20.6,4.1,30.4v0.8c4.1,10.7,11.4,18.9,20.4,26.3
		c9,6.6,20.4,11.5,32.7,14c25.3,4.1,49-2.5,63.7-18.9c13.1-13.2,23.7-29.6,34.3-46.9c2.3-3.7-21.3-29.1-24.8-32.6
		c-10-10.1-21.6-18.7-34.8-24.2C164.7,193,153.3,190.8,142.4,191.1z"/>
	<path class="st0" d="M185.7,245.4h-70.3v14.8h70.3V245.4z"/>
	<path class="st0" d="M368.7,282.4h-18.8v-20.6h-19.6v-18.9h19.6v-19.7h18.8v19.7h20.4v18.9h-20.4V282.4z"/>
</g>
</svg>
