<?xml version="1.0" encoding="utf-8"?>
<!-- Generator: Adobe Illustrator 27.9.0, SVG Export Plug-In . SVG Version: 6.00 Build 0)  -->
<svg version="1.1" id="Layer_1" xmlns="http://www.w3.org/2000/svg" xmlns:xlink="http://www.w3.org/1999/xlink" x="0px" y="0px"
	 viewBox="0 0 512 512" style="enable-background:new 0 0 512 512;" xml:space="preserve">
<style type="text/css">
	.st0{fill:#FFFFFF;}
</style>
<g>
	<path class="st0" d="M133,191.3c5.2,15,10,29.9,15.6,44.5c2,5.2,1.3,9.1-1.3,13.6c-13.5,23.3-24.2,47.9-33.2,73.1
		c-6.5,18.2-11.3,37.1-13.2,56.5c-1.4,14-1.9,27.8,1.3,41.5c2.4,10.3,6.4,20.3,14.4,27.6c12.7,11.5,28.1,13.6,44.4,10.2
		c22.8-4.8,42-17.1,60.5-30.5c4.3-3.1,5.5-9.3,3.2-14.2c-2.2-4.7-6.5-6.1-11-5.2c-2.9,0.6-5.6,2.7-8.1,4.5
		c-13.6,9.7-27.5,18.8-43.8,23.4c-12.2,3.4-24.3,4.1-33.3-7.2c-5.9-7.4-7.3-16.6-7.7-25.7c-1.1-21.1,3.2-41.5,9.4-61.5
		c6.8-22.1,16.4-43.1,26.7-63.8c1.5-3,3-6,5.1-10.1c2.8,6.1,4.6,10.8,7,15.3c12.5,22.9,24.7,46,38,68.5
		c15.2,25.7,33.3,49.6,53.9,71.3c7.3,7.7,15.3,14.7,23.5,21.4c12.9,10.7,26.9,19.6,43.2,24.4c11.6,3.4,23,4,34.4-0.9
		c14.1-6,21.9-17.6,26.2-31.4c5.3-17.1,7.2-34.7,4.5-52.6c-2.4-16.1-3.9-32.3-7.2-48.2c-5.5-26.9-14.8-52.8-25.1-78.2
		c-4.4-10.9-9.8-21.3-14.4-32.1c-2.3-5.3-9.3-6.5-13-5.6c-4.5,1.1-7.5,5.8-6.8,11.2c0.4,3.2,1.7,6.4,3.1,9.4
		c14.2,29.5,25.5,60.1,33.6,91.9c4.8,18.9,8.9,37.9,9,57.4c0.1,6.8,0.9,13.7-0.2,20.4c-1.5,9.4-3.5,18.9-7,27.7
		c-2.5,6.3-8,10.9-15.5,12.2c-8.1,1.4-15.5-0.6-22.7-3.9c-22.4-10.2-39.8-26.6-55.7-44.9c-17.4-20-33.2-41.3-47.5-63.6
		c-18.4-28.5-33.7-58.6-46.2-90.1c-0.7-1.7-1-4.5-0.1-5.9c12.2-18.6,24.6-37.1,37.1-55.5c0.8-1.2,2.7-2.2,4.1-2.2
		c11.8,0.2,23.7,0.4,35.5,1c15.1,0.8,30.2,1.7,45.3,3.3c13.4,1.3,26.8,2.9,40,5.5c25.8,5.1,51.5,11.3,75.7,22
		c17.8,7.9,34.8,16.9,48,31.7c7.5,8.5,10.3,18.8,6.4,26.9c-3.7,7.7-9.4,13.6-16.7,17.8c-9.5,5.5-19.3,10.5-29,15.8
		c-5.1,2.8-7.5,9.3-5.4,14.1c2,4.5,9.1,7.1,14.3,5.1c17.7-6.9,34.3-15.5,47.1-30c10.1-11.5,14.7-24.5,11.4-39.9
		c-3.5-16.7-14.1-28.5-27-38.4c-22.9-17.5-49.3-27.6-76.7-35.6c-22.2-6.5-44.7-11.4-67.7-13.9c-15.9-1.8-31.7-3.9-47.6-5.1
		c-11.8-0.9-23.7-0.8-35.5-1.2c-1.1,0-2.2-0.4-4.4-0.8c8.5-9.8,16.2-19.2,24.4-27.9c17.5-18.5,36.1-35.7,58.2-48.6
		c13.2-7.7,26.6-14.8,42.8-13.9c8.7,0.5,16.6,5.7,20,13.8c6.2,14.6,5.8,29.6,3.4,44.9c-0.9,5.9-1.9,11.8-2.3,17.7
		c-0.3,5.4,3.5,9.8,7.9,10.1c7.5,0.5,11.7-2.4,12.7-8.8c0.8-5,1.5-10,2.4-15c2.6-15.1,3.1-30.2-0.5-45.1c-2.9-12.2-8.4-23.2-19-30.7
		c-16.6-11.8-34.6-9.9-52.3-3.8c-24.8,8.6-45.7,23.9-64.8,41.3c-21.7,19.7-41.4,41.5-59.3,64.8c-0.8,1.1-2.5,2-3.8,2.1
		c-6.7,0.6-13.4,0.6-20.1,1.2c-8.5,0.8-17.1,1.8-25.6,2.9c-3.1,0.4-4.9,0.2-5.6-3.6c-1.9-10.5-4.8-20.8-6.2-31.3
		c-2.4-17.4-2-34.6,4-51.5c5.6-15.4,16.9-21.1,32.6-16.5c15,4.4,27.4,13,39.2,22.8c3.8,3.2,8,3.8,12.7,2c4.7-1.9,5.2-5.4,5.3-9.8
		c0.1-5.1-3.2-7.8-6.5-10.3c-7.1-5.4-14.2-11-21.9-15.5c-13.5-7.9-27.6-13.8-44.2-12c-15.7,1.7-25.8,10.3-33.3,23
		c-5.5,9.5-8.6,20-9.1,31c-0.6,12.9-1.5,25.9-0.4,38.7c1,12.1,4.4,23.9,6.6,35.2c-14.8,4.7-29.6,8.8-44,14
		c-19.6,7.1-37.8,16.8-52.5,32.2c-13.1,13.8-16.4,32.4-8,49.5c5.1,10.3,12.1,19.1,21.5,25.6c9.3,6.5,18.8,13,28.9,18.1
		c6.1,3.1,12.6,1.2,14.8-3.7c2.5-5.8,0.1-11.9-6.1-15.3c-6-3.3-12-6.6-17.6-10.5c-9.5-6.7-18.5-14.1-23.3-25.2
		c-2.4-5.7-3-11.7,0.7-16.9c8.2-11.5,19-20.2,31.5-26.7C93.6,200.5,113.1,194.9,133,191.3z M255.6,285.9c15.6,2,28.4-13.6,28-28.5
		c-0.4-16.7-10-28.8-27.2-29.5c-14.9-0.6-27.4,13.8-27.7,28.1C228.3,272.5,240.8,287.3,255.6,285.9z"/>
	<path d="M133,191.3c-19.9,3.6-39.5,9.2-57.7,18.8c-12.5,6.6-23.3,15.3-31.5,26.7c-3.7,5.2-3.2,11.3-0.7,16.9
		c4.8,11.1,13.7,18.5,23.3,25.2c5.6,3.9,11.6,7.2,17.6,10.5c6.2,3.4,8.6,9.4,6.1,15.3c-2.1,4.9-8.6,6.8-14.8,3.7
		c-10.1-5.1-19.6-11.6-28.9-18.1c-9.4-6.5-16.4-15.3-21.5-25.6c-8.4-17.1-5.1-35.7,8-49.5c14.7-15.5,32.9-25.1,52.5-32.2
		c14.4-5.2,29.2-9.3,44-14c-2.2-11.3-5.6-23.2-6.6-35.2c-1.1-12.8-0.2-25.8,0.4-38.7c0.5-11,3.5-21.5,9.1-31
		c7.4-12.7,17.6-21.3,33.3-23c16.6-1.8,30.6,4.1,44.2,12c7.7,4.5,14.8,10,21.9,15.5c3.3,2.5,6.6,5.3,6.5,10.3
		c-0.1,4.4-0.5,8-5.3,9.8c-4.8,1.9-8.9,1.2-12.7-2C208.2,77,195.8,68.4,180.8,64c-15.7-4.6-27,1.1-32.6,16.5
		c-6.1,16.8-6.5,34.1-4,51.5c1.5,10.5,4.3,20.8,6.2,31.3c0.7,3.7,2.4,4,5.6,3.6c8.5-1.1,17-2.1,25.6-2.9c6.7-0.6,13.4-0.7,20.1-1.2
		c1.3-0.1,3-1.1,3.8-2.1c18-23.3,37.6-45.1,59.3-64.8c19.1-17.4,40.1-32.7,64.8-41.3c17.7-6.1,35.7-8,52.3,3.8
		c10.6,7.5,16.1,18.5,19,30.7c3.5,14.9,3.1,30,0.5,45.1c-0.9,5-1.6,10-2.4,15c-1,6.4-5.2,9.3-12.7,8.8c-4.4-0.3-8.2-4.7-7.9-10.1
		c0.4-5.9,1.4-11.8,2.3-17.7c2.4-15.2,2.8-30.3-3.4-44.9c-3.5-8.1-11.3-13.3-20-13.8c-16.1-0.9-29.6,6.2-42.8,13.9
		c-22.1,13-40.8,30.1-58.2,48.6c-8.3,8.8-15.9,18.1-24.4,27.9c2.2,0.4,3.3,0.7,4.4,0.8c11.8,0.4,23.7,0.3,35.5,1.2
		c15.9,1.3,31.7,3.4,47.6,5.1c23,2.5,45.5,7.5,67.7,13.9c27.4,8,53.8,18.1,76.7,35.6c13,9.9,23.5,21.7,27,38.4
		c3.3,15.3-1.4,28.4-11.4,39.9c-12.8,14.5-29.4,23.1-47.1,30c-5.1,2-12.3-0.6-14.3-5.1c-2.1-4.8,0.4-11.3,5.4-14.1
		c9.7-5.3,19.5-10.3,29-15.8c7.2-4.2,13-10.1,16.7-17.8c3.9-8.1,1.2-18.4-6.4-26.9c-13.2-14.8-30.2-23.9-48-31.7
		c-24.3-10.7-49.9-16.9-75.7-22c-13.2-2.6-26.6-4.2-40-5.5c-15-1.5-30.2-2.4-45.3-3.3c-11.8-0.6-23.7-0.8-35.5-1
		c-1.4,0-3.3,1.1-4.1,2.2c-12.5,18.4-24.9,36.9-37.1,55.5c-0.9,1.4-0.6,4.1,0.1,5.9c12.5,31.5,27.8,61.6,46.2,90.1
		c14.4,22.3,30.1,43.5,47.5,63.6c15.9,18.3,33.3,34.7,55.7,44.9c7.2,3.3,14.6,5.3,22.7,3.9c7.5-1.3,13-5.9,15.5-12.2
		c3.5-8.8,5.5-18.3,7-27.7c1.1-6.6,0.3-13.6,0.2-20.4c-0.2-19.6-4.2-38.6-9-57.4c-8.1-31.8-19.4-62.3-33.6-91.9
		c-1.4-3-2.7-6.2-3.1-9.4c-0.7-5.4,2.3-10,6.8-11.2c3.7-1,10.7,0.2,13,5.6c4.6,10.8,10,21.3,14.4,32.1
		c10.3,25.4,19.5,51.3,25.1,78.2c3.3,15.9,4.8,32.2,7.2,48.2c2.7,17.9,0.8,35.5-4.5,52.6c-4.3,13.8-12.1,25.3-26.2,31.4
		c-11.4,4.9-22.8,4.2-34.4,0.9c-16.3-4.8-30.3-13.7-43.2-24.4c-8.2-6.7-16.2-13.7-23.5-21.4c-20.6-21.7-38.7-45.5-53.9-71.3
		c-13.3-22.5-25.5-45.6-38-68.5c-2.4-4.4-4.2-9.2-7-15.3c-2.1,4.1-3.6,7.1-5.1,10.1c-10.3,20.7-19.8,41.7-26.7,63.8
		c-6.2,20-10.5,40.4-9.4,61.5c0.5,9.1,1.8,18.3,7.7,25.7c9,11.3,21.1,10.6,33.3,7.2c16.3-4.5,30.2-13.7,43.8-23.4
		c2.5-1.8,5.2-3.9,8.1-4.5c4.5-0.9,8.8,0.5,11,5.2c2.3,4.9,1.1,11.1-3.2,14.2c-18.5,13.4-37.7,25.8-60.5,30.5
		c-16.2,3.4-31.6,1.3-44.4-10.2c-8-7.3-12-17.2-14.4-27.6c-3.2-13.7-2.7-27.6-1.3-41.5c1.9-19.5,6.7-38.3,13.2-56.5
		c9-25.2,19.8-49.8,33.2-73.1c2.6-4.5,3.3-8.4,1.3-13.6C143.1,221.2,138.2,206.3,133,191.3z M155.3,188.2c3.3,9.7,6.3,18.7,9.7,28.8
		c7.6-11.3,14.4-21.4,22.2-32.9C175.8,185.6,166.1,186.8,155.3,188.2z"/>
	<path d="M255.6,285.9c-14.8,1.3-27.3-13.5-27-29.9c0.3-14.2,12.8-28.7,27.7-28.1c17.3,0.7,26.8,12.8,27.2,29.5
		C284,272.3,271.3,288,255.6,285.9z"/>
	<path class="st0" d="M155.3,188.2c10.8-1.4,20.4-2.7,31.9-4.2c-7.8,11.5-14.6,21.6-22.2,32.9C161.6,206.9,158.6,197.9,155.3,188.2z
		"/>
</g>
</svg>
