<?xml version="1.0" encoding="utf-8"?>
<!-- Generator: Adobe Illustrator 27.9.0, SVG Export Plug-In . SVG Version: 6.00 Build 0)  -->
<svg version="1.1" id="Layer_1" xmlns="http://www.w3.org/2000/svg" xmlns:xlink="http://www.w3.org/1999/xlink" x="0px" y="0px"
	 viewBox="0 0 512 512" style="enable-background:new 0 0 512 512;" xml:space="preserve">
<g>
	<path d="M424.3,211.2c-2.4-17.6-12.1-32.8-29.5-46.6l-10.1-6.8l-6.7,10.2c-8.6,13.1-12.9,31.4-11.6,49c0.6,6.1,2.6,17.2,8.8,26.8
		c-6.2,3.5-18.5,8.1-34.9,7.8H27.1l-0.6,3.7c-2.9,17.6-2.9,72.5,32.3,114.7c26.8,32.1,66.8,48.3,119.2,48.3
		c113.5,0,197.4-52.9,236.8-149.1c15.4,0.3,48.8,0.1,65.9-33c0.4-0.7,1.5-2.7,4.4-9l1.7-3.5l-9.6-6.5
		C466.6,210.2,442.8,207.6,424.3,211.2"/>
	<rect x="229.9" y="93.8" width="47.6" height="43.8"/>
	<rect x="229.9" y="146.4" width="47.6" height="43.8"/>
	<rect x="173.6" y="146.4" width="47.6" height="43.8"/>
	<rect x="117.4" y="146.4" width="47.6" height="43.8"/>
	<rect x="61.1" y="199.1" width="47.6" height="43.8"/>
	<rect x="117.4" y="199.1" width="47.6" height="43.8"/>
	<rect x="173.6" y="199.1" width="47.6" height="43.8"/>
	<rect x="229.9" y="199.1" width="47.6" height="43.8"/>
	<rect x="286.3" y="199.1" width="47.6" height="43.8"/>
</g>
</svg>
