<?xml version="1.0" encoding="utf-8"?>
<!-- Generator: Adobe Illustrator 27.9.0, SVG Export Plug-In . SVG Version: 6.00 Build 0)  -->
<svg version="1.1" id="Layer_1" xmlns="http://www.w3.org/2000/svg" xmlns:xlink="http://www.w3.org/1999/xlink" x="0px" y="0px"
	 viewBox="0 0 512 512" style="enable-background:new 0 0 512 512;" xml:space="preserve">
<style type="text/css">
	.st0{fill-rule:evenodd;clip-rule:evenodd;}
</style>
<g id="Dreamweaver" transform="translate(1887 308)">
	<g id="_12">
		<path d="M-1467.3,191.3h-327.4c-43.9,0-79.6-35.7-79.6-79.6v-327.4c0-43.9,35.7-79.6,79.6-79.6h327.4c43.9,0,79.6,35.7,79.6,79.6
			v327.4C-1387.7,155.6-1423.4,191.3-1467.3,191.3z M-1794.7-284.9c-38.2,0-69.2,31.1-69.2,69.2v327.4c0,38.2,31.1,69.2,69.2,69.2
			h327.4c38.2,0,69.2-31.1,69.2-69.2v-327.4c0-38.2-31.1-69.2-69.2-69.2H-1794.7z"/>
	</g>
	<path id="_23" class="st0" d="M-1814.6-157.1h0.2c22.2-0.4,41.9-0.6,59.2-0.6c33.1,0,58.8,9.3,76.4,28.2
		c17.6,18.8,26.3,43.5,26.3,73.8c0.2,14.7-2.1,29.4-6.9,43.4c-3.7,11.4-9.6,21.9-17.5,31c-7.2,8-15.8,14.7-25.4,19.7l0,0
		c-9.1,4.8-18.9,8.4-29,10.7h0c-9.7,1.9-19.6,2.9-29.5,2.8c-19.3,0-37.2-0.2-53.6-0.6c-1.4,0-2.7-0.7-3.5-1.9
		c-0.6-1.1-1-2.3-0.9-3.5v-198c0-1.2,0.3-2.3,1-3.3c0.7-1,1.8-1.6,3-1.8L-1814.6-157.1z M-1712.2-107.5c-10.1-11.2-24.3-17-43-17
		c-10,0-16.9,0.1-20.8,0.4V18.2c5.7,0.3,11.4,0.5,17.1,0.5c19.8,0,34.9-5.9,45.8-17.3c10.8-11.6,16.5-30.1,16.5-56.1
		C-1696.5-79.1-1701.9-96.5-1712.2-107.5L-1712.2-107.5z"/>
	<path id="_24" d="M-1513.8,47l0-0.2c-11.3-47.2-18.8-79.4-22.6-96.7c-0.7,2.9-1.5,6.1-2.5,9.6c-2.3,8.9-6,22.2-11.1,40.1
		c-4.9,17.6-9.2,33.3-12.9,47.1c-0.3,1.3-1,2.4-2,3.2c-1,0.8-2.3,1.2-3.6,1.2h-32.7c-1.3,0-2.6-0.3-3.8-1.1
		c-1.1-0.8-1.9-1.8-2.4-3.1l0-0.1l-39.5-144.9v-0.1c-0.4-1.5-0.1-3,0.7-4.2c1-1.2,2.5-1.8,4-1.7h33.6c1.2,0,2.3,0.4,3.2,1.1
		c0.9,0.7,1.5,1.6,1.9,2.6l0.1,0.2l0.1,0.2c10.3,41.9,18,75.2,22.9,100c3.9-16.3,12.2-49.5,25-99.7l0-0.1l0.1-0.1
		c0.4-1.1,1-2.1,1.9-2.9c0.9-0.8,2.1-1.3,3.3-1.3h31.7c1.2,0,2.4,0.4,3.3,1.3c0.8,0.8,1.3,1.8,1.4,3c11.8,48.5,19.7,81.9,23.6,100.2
		c5.6-26.7,13.5-60.1,23.9-100.3c0.2-1.2,0.8-2.4,1.8-3.1c1-0.7,2.3-1.1,3.5-1.1h30.2c1.3-0.1,2.6,0.5,3.5,1.5
		c0.8,1,1.2,2.4,0.9,3.7l0,0.2l-43.2,145.7l-0.1,0.2c-1,2.3-3.2,3.9-5.7,3.9h-32.9c-1.3,0-2.5-0.4-3.5-1.2c-0.9-0.8-1.6-1.8-2-3
		L-1513.8,47z"/>
</g>
</svg>
