<?xml version="1.0" encoding="utf-8"?>
<!-- Generator: Adobe Illustrator 27.9.0, SVG Export Plug-In . SVG Version: 6.00 Build 0)  -->
<svg version="1.1" id="Layer_1" xmlns="http://www.w3.org/2000/svg" xmlns:xlink="http://www.w3.org/1999/xlink" x="0px" y="0px"
	 viewBox="0 0 512 512" style="enable-background:new 0 0 512 512;" xml:space="preserve">
<style type="text/css">
	.st0{fill:#FFFFFF;}
</style>
<g>
	<path d="M488.9,318.1c0,0.1,0,0.2-0.1,0.2c-9.8,33.5-28.1,63.5-54.8,90c-33.8,33.8-73.2,54-118.1,60.8c-11.3,1.7-23.1,2.6-34.6,2.6
		c-59.7,0-110.7-21.1-153.2-63.4c-26.5-26.5-44.8-56.5-54.6-90c0-0.1,0-0.2-0.1-0.2H488.9z"/>
	<path d="M65.1,268c0.4,8.7,1.3,17.4,2.8,25.9h426.6c1.5-8.5,2.4-17.2,2.8-25.9H65.1z M494.4,217.9H67.7c-1.5,8.5-2.4,17.2-2.8,25.9
		h432.3C496.8,235.1,495.9,226.4,494.4,217.9z"/>
	<path d="M489.1,193.7H73.4c9.8-33.8,28.1-63.8,54.7-90.6c42.5-42.1,93.5-63,153.2-63c11.8,0,23.5,0.9,35.1,2.6
		C361,49.4,400.5,69.5,434,103C461,129.8,479.3,160.1,489.1,193.7z"/>
	<path d="M52.3,256c0-113.7,85.8-208.5,197.4-225.1c-2.8,0-5.4-0.2-8.3-0.2C116.1,30.7,14.6,131.6,14.6,256s101.5,225.3,226.8,225.3
		c2.8,0,5.7,0,8.3-0.2C137.9,464.5,52.3,369.7,52.3,256z"/>
	<path class="st0" d="M73.4,318.1c0,0.1,0,0.2,0.1,0.2h415.4c0-0.1,0-0.2,0.1-0.2H73.4z"/>
</g>
</svg>
