<?xml version="1.0" encoding="utf-8"?>
<!-- Generator: Adobe Illustrator 27.9.0, SVG Export Plug-In . SVG Version: 6.00 Build 0)  -->
<svg version="1.1" id="Layer_1" xmlns="http://www.w3.org/2000/svg" xmlns:xlink="http://www.w3.org/1999/xlink" x="0px" y="0px"
	 viewBox="0 0 512 512" style="enable-background:new 0 0 512 512;" xml:space="preserve">
<g>
	<path d="M445.1,118.6c-14.2,7.1-28,15.2-41,23.8c-6.5-6.5-13.8-11.8-21-17.3c-7.1-5.7-15.1-9.9-22.6-14.7
		c2.3-16.8,3.4-33.3,3.8-50.5c-19.5-9.8-40.3-16.3-61.4-21C294.4,53,286.7,68.3,280,83.2c-7.9-1.3-15.9-1.8-23.9-1.9v0
		c-0.1,0-0.1,0-0.2,0c-0.1,0-0.1,0-0.2,0v0c-8,0.1-16,0.6-23.9,1.9c-6.7-15-14.4-30.3-22.8-44.4c-21,4.7-41.9,11.2-61.4,21
		c0.5,17.2,1.6,33.7,3.8,50.5c-7.6,4.9-15.6,9-22.6,14.7c-7.2,5.5-14.5,10.8-21.1,17.3c-13-8.6-26.8-16.7-41-23.8
		c-15.3,16.5-29.6,34.2-41.3,54.1c8.8,14.2,18,27.6,27.9,40.2h0.3v121.8v0.1c0.2,0,0.4,0,0.7,0l74.8,7.2c3.9,0.4,7,3.5,7.3,7.5
		l2.3,33l65.2,4.6l4.5-30.5c0.6-3.9,4-6.9,8-6.9h78.9c4,0,7.4,2.9,8,6.9l4.5,30.5l65.2-4.6l2.3-33c0.3-3.9,3.3-7.1,7.3-7.5l74.8-7.2
		c0.2,0,0.4,0,0.6,0h0v-9.7l0,0V212.8h0.3c9.9-12.6,19.1-26,27.9-40.2C474.6,152.8,460.3,135,445.1,118.6z M362,217.3
		c24.9,0,45.1,20.2,45.1,45c0,24.9-20.2,45.1-45.1,45.1c-24.9,0-45.1-20.2-45.1-45.1C316.9,237.5,337.1,217.3,362,217.3z
		 M241.6,256.8c0-7.3,6.5-13.2,14.5-13.2c8,0,14.5,5.9,14.5,13.2v41.5c0,7.3-6.5,13.2-14.5,13.2c-8,0-14.5-5.9-14.5-13.2V256.8z
		 M150,217.3c24.9,0,45.1,20.2,45.1,45c0,24.9-20.2,45.1-45.1,45.1c-24.9,0-45.1-20.2-45.1-45.1C104.9,237.5,125.1,217.3,150,217.3z
		"/>
	<path d="M391.1,357.4l-2.3,33.2c-0.3,4-3.5,7.2-7.5,7.5l-79.7,5.7c-0.2,0-0.4,0-0.6,0c-4,0-7.4-2.9-8-6.9l-4.6-31h-65l-4.6,31
		c-0.6,4.2-4.3,7.2-8.5,6.9l-79.7-5.7c-4-0.3-7.2-3.5-7.5-7.5l-2.3-33.2l-67.2-6.5h0c0,7.2,0.1,15.2,0.1,16.7
		c0,71,90.1,105.2,202,105.6h0.3c112-0.4,202-34.5,202-105.6c0-1.6,0.1-9.5,0.1-16.7l-0.5,0.1L391.1,357.4z"/>
	<path d="M154.3,294.8c16.5,0,29.9-13.4,29.9-29.9c0-16.5-13.4-29.9-29.9-29.9s-29.9,13.4-29.9,29.9
		C124.4,281.4,137.8,294.8,154.3,294.8z"/>
	<path d="M357.8,294.8c16.5,0,29.9-13.4,29.9-29.9c0-16.5-13.4-29.9-29.9-29.9s-29.9,13.4-29.9,29.9
		C327.9,281.4,341.2,294.8,357.8,294.8z"/>
</g>
</svg>
