<?xml version="1.0" encoding="utf-8"?>
<!-- Generator: Adobe Illustrator 28.1.0, SVG Export Plug-In . SVG Version: 6.00 Build 0)  -->
<svg version="1.1" id="Layer_1" xmlns="http://www.w3.org/2000/svg" xmlns:xlink="http://www.w3.org/1999/xlink" x="0px" y="0px"
	 viewBox="0 0 512 512" style="enable-background:new 0 0 512 512;" xml:space="preserve">
<path d="M11.5,11.5v489h488.9v-489H11.5z M72,222.2h25.6V105.8H72.2V72.1h92v33.8h-25.7v116.3H164V256H72V222.2z M249,445.7H65.2
	v-31.4H249V445.7z M316.7,193.1c0,10.5-1.2,21-4.7,29.1c-2.3,7-6.9,14-11.6,19.8c-5.9,5.8-12.9,9.3-21,12.8
	c-8.2,2.4-17.5,3.5-26.8,3.5c-14,0-26.8-2.3-36.1-8.1c-9.3-5.8-17.4-11.7-24.4-19.8l25.6-28c4.7,5.9,10.4,10.5,16.3,14
	c5.9,3.5,10.5,4.7,17.5,4.7c8.2,0,14-2.3,17.5-7c4.7-4.7,7-12.8,7-23.3V73.2h40.7V193.1z"/>
</svg>
