<?xml version="1.0" encoding="utf-8"?>
<!-- Generator: Adobe Illustrator 27.9.0, SVG Export Plug-In . SVG Version: 6.00 Build 0)  -->
<svg version="1.1" id="Layer_1" xmlns="http://www.w3.org/2000/svg" xmlns:xlink="http://www.w3.org/1999/xlink" x="0px" y="0px"
	 viewBox="0 0 512 512" style="enable-background:new 0 0 512 512;" xml:space="preserve">
<g>
	<path d="M37.5,133.7c-13.1-0.2-23.8,2-23.7,19.1c0.2,48,0.1,96.1,0.2,144.1v43.7h11.6v-64.1v-32.7c0-29,0-57.9,0-86.9
		c0-6.1,1-11.5,8-13.2c4.1-1,8.1-0.4,10.9,3.1c3.5,4.4,2.2,9.8,2.2,14.8c0.1,44.7,0,89.4,0.1,134.1c0,6.4,0,12.8,0,19.2
		c0,0.4,0,0.8,0,1.1v10.6h12.3v-12c0.2-53.9-0.1-107.9,0.3-161.8C59.5,136.9,50,134,37.5,133.7z"/>
	<path d="M410.4,227.4c0-27.2,0.1-54.5-0.1-81.7c0-4.8,1.5-11.2-6.3-11.5c-8.6-0.4-6,6.7-6,11.1c-0.3,18.7-0.6,37.5,0.1,56.2
		c0.4,9.9-1.7,14.4-12.9,13.5c-14.7-1.2-21.6,6.1-21,21.6c0.8,23.2,0.8,46.6,0,69.8c-0.5,15.9,7.2,21.1,21.7,21.1
		c13.9,0,25-2,24.7-20C410,280.7,410.4,254,410.4,227.4z M397.7,307.8c0,7.2-4.3,9.9-11.1,9.7c-7.2-0.2-9.8-4.4-9.7-11.1
		c0.1-11.9,0-23.7,0-35.6c0-11.9,0.1-23.8,0-35.6c-0.1-7,3.1-10.4,10.2-10.5c7-0.1,10.6,3.4,10.7,10.2
		C397.8,259.2,397.8,283.5,397.7,307.8z"/>
	<path d="M280.6,236.3c-0.1-16.7-5.6-21.5-22.9-21.8c-14.5-0.2-24.2,4.2-23.8,21.2c0.5,21.5,0.1,43,0.1,64.5c0,23.2,0.1,46.4,0,69.6
		c0,5.1,0.8,8.9,7.3,8.5c5.8-0.3,5.8-4.2,5.8-8.2c0-9.1,0.6-18.1-0.1-27.1c-0.8-10.7,0.9-17,14.1-15.9c14.3,1.2,20-7.1,19.6-21.1
		C280.2,282.7,280.8,259.5,280.6,236.3z M267.9,307.8c0,7.2-4.4,9.9-11.1,9.7c-7.3-0.2-9.7-4.5-9.7-11.1c0.1-11.9,0-23.8,0-35.7
		c0-11.9,0.1-23.8,0-35.7c-0.1-6.9,2.8-10.5,10.1-10.5c7,0,10.7,3.3,10.7,10.2C268,259.1,268,283.5,267.9,307.8z"/>
	<path d="M210.7,299.7c-6.4-0.5-7.7,3-7.6,8.3c0.1,7.4-4.4,9.9-11,9.5c-9.4-0.5-9.3-7.9-9.6-15.3c-0.3-7.1-2.8-13.7,6.6-15.3
		c27.4-4.7,27.3-5.1,27.3-32.6c0-6.8-0.1-13.6,0-20.4c0.4-16.6-10.5-19.5-23.7-19.5c-13.6,0-23.6,3.8-23.1,20.2
		c0.4,11.9,0.1,23.8,0.1,35.7c0,13.6-0.6,27.2,0.1,40.8c1,17.4,14.4,16,26.4,16.1c11.8,0.1,20.1-4.1,20-17.5
		C216.2,305.6,218,300.2,210.7,299.7z M182.2,236.3c0-7.4,2.9-11.7,10.9-11.7c8.6,0,10.2,5.2,10,12.2c-0.1,5.1,0,10.1,0,15.2
		c0,4.5-0.2,9,0.1,13.5c0.4,7.6-2.8,12.1-10.5,11.9c-7.7-0.2-10.6-5.1-10.5-12.4C182.3,255.4,182.3,245.9,182.2,236.3z"/>
	<path d="M343.9,229.6c-1-16.7-14.3-14.8-25.4-14.8c-11.5,0-20.2,4.2-19.6,17.8c0.2,3.6-1.8,8.5,3.9,9.8c5.8,1.2,8.4-1.7,8.6-7.4
		c0.2-8,4.8-11.2,12.3-10.2c11,1.5,8.7,10.2,8.7,17.2c-0.1,5.5,2.6,12.1-7.7,13.5c-25.9,3.5-25.8,4-25.8,30.1c0,8.5-0.1,17,0.1,25.5
		c0.3,15.4,11.3,16.1,22.7,16.2c11.4,0.1,22.4-0.7,22.6-16.2c0.1-13.6,0-27.2,0-40.8c0,0,0,0-0.1,0
		C344.1,256.7,344.7,243.1,343.9,229.6z M322.4,317c-18.1,0.4-11.1-30.6-10.9-41.6c0.1-6.8,3.4-10.5,10.5-10.3
		c7.2,0.1,10.2,4.1,10.4,10.7c0.2,10.2,0,20.5,0.1,30.8C332.6,313.3,329.5,316.8,322.4,317z"/>
	<path d="M110.4,230.6c-0.2-14.4-10.9-15.7-21.4-15.9c-10.9-0.2-23.3-0.2-23.6,15.2c-0.6,27.2-0.4,54.4-0.1,81.6
		c0.2,15.4,11.7,15.8,23,15.8c11.6,0,22.2-1.5,22.2-16.8c0-13,0-26.1,0-39.1C110.5,257.8,110.6,244.2,110.4,230.6z M97.9,306
		c0,6.3-1.6,11.2-9.2,11.5c-7.7,0.3-11.8-3.2-11.8-10.9c-0.1-23.7-0.1-47.4,0-71.2c0-6.6,3.2-10.6,10.3-10.8
		c8.3-0.2,10.7,4.6,10.7,11.9c-0.1,11.9,0,23.7,0,35.6C97.9,283.4,97.9,294.7,97.9,306z"/>
	<polygon points="440.9,214.8 429.3,214.8 429.3,243.8 415.5,243.8 415.5,249.9 429.3,249.9 429.3,278.2 440.9,278.2 440.9,249.9 
		453.9,249.9 453.9,243.8 440.9,243.8 	"/>
	<polygon points="485.3,243.8 485.3,214.8 473.6,214.8 473.6,243.8 459.8,243.8 459.8,249.9 473.6,249.9 473.6,278.2 485.3,278.2 
		485.3,249.9 498.2,249.9 498.2,243.8 	"/>
	<polygon points="145.8,135.5 134.2,135.5 134.2,203 125.6,203 125.6,209.1 134.2,209.1 134.2,338.8 145.8,338.8 145.8,209.1 
		163.7,209.1 163.7,203 145.8,203 	"/>
</g>
</svg>
