<?xml version="1.0" encoding="utf-8"?>
<!-- Generator: Adobe Illustrator 27.9.0, SVG Export Plug-In . SVG Version: 6.00 Build 0)  -->
<svg version="1.1" id="Layer_1" xmlns="http://www.w3.org/2000/svg" xmlns:xlink="http://www.w3.org/1999/xlink" x="0px" y="0px"
	 viewBox="0 0 512 512" style="enable-background:new 0 0 512 512;" xml:space="preserve">
<style type="text/css">
	.st0{fill:#1E2022;}
</style>
<g>
	<path class="st0" d="M226.4,345.5c76.3-63.5,90.7-112.9,90.7-113.4c0,0,0.6-2,1.4-4.3c-3.4,4.3-6.2,7.9-6.8,8.8L215,334.1
		L226.4,345.5z"/>
	<path class="st0" d="M322.5,208.5c0-0.6,0-0.6,0-0.9c0.6-6.2,0.6-12.8-1.4-18.4l-2.8-3.4L206,300.1l0.9-0.6l-13.6,13l18.1,17.6
		l99.2-101.5l8.8-12.2C321.1,213.9,322.5,211.1,322.5,208.5z"/>
	<path class="st0" d="M268.6,183.9c-0.6,0-43.1,16.2-108.3,96.7l28.9,28.4l125.6-127.3c0,0,0-0.6-0.6-0.6
		C295.6,173.4,269.2,183.9,268.6,183.9z"/>
	<path class="st0" d="M309.2,142.7c-0.9,13,2.6,24.4,8.8,33.7c2,2.8,4.8,6,6.2,7.4c7.4,6.8,17,11.6,27.8,13
		c8.2,0.9,16.2-0.6,23.5-3.4c-4.3-4.3-13.6-14.2-35.2-37.1l-2-2l47.9-44.5c-6.8-5.4-15-8.8-23.8-9.6
		C336.1,97.4,312.3,116.4,309.2,142.7z"/>
	<polygon class="st0" points="31,483.6 95.4,481 63.6,449.8 	"/>
	<path class="st0" d="M291.6,27.6c-119.1-15-228,68.9-243.6,188C39.2,283.4,63,348,107,394l74.3-76.3l-71.7,15.6l43.9-52.7l0.9-1.4
		c67.5-83.4,110.3-99.5,112.3-100.7c0.9-0.6,23.5-8.8,43.4-4.8c-4.8-9.4-7.4-20.1-6-31.2c3.4-29.2,29.8-50.8,59-47.4
		c11.3,1.4,21.5,6,29.2,13c10.2,7.4,15.6,21.5,17.6,27.2c2,6.2,2.8,27.8-7.4,42.5c-8.2,12.2-19.6,18.4-21.8,18.4
		c-7.4,3.4-15,5.4-23.5,5.4c-2,0-4,0-6-0.6c-8.8-0.9-16.7-4-23.5-8.8c0.9,4,0.9,8.8,0,14.2c-0.9,13-6,25-6.2,25.8
		c-0.6,2-15,52.2-94.7,117.7c-6.8,6-14.2,12.2-21.8,19c-18.4,16.2-40,34.6-64.9,52.2c27.8,19,60.1,32.3,95.8,36.6
		c119.1,15,228-68.9,243.3-188C494.9,151.5,410.7,42.6,291.6,27.6z"/>
	<polygon class="st0" points="123.2,324.5 183.9,311.2 156.9,284.8 	"/>
	<polygon class="st0" points="205.7,332.7 189.3,316.6 166.6,340.1 	"/>
	<path class="st0" d="M99.9,440.8c42-21.5,75.1-51.3,102.6-74.6c6.8-6,13.6-11.6,20.1-17l-8.8-8.2l-2.8-2.8l-49.9,8.8l-95.6,97.3
		l42.5,42l-10-44.7L99.9,440.8z"/>
	<path class="st0" d="M381.8,190.7c0.9-0.6,1.4-0.9,2.6-1.4c0.6-0.6,0.9-0.6,1.4-0.9l0.6-0.6c3.4-2.6,7.9-6.8,11.6-12.2
		c8.5-12.8,7.9-32.9,6-38.3c-1.4-4.8-5.4-16.2-13-22.4l-43.4,40C359.1,167.7,376.4,185.6,381.8,190.7z M388,162.3l2.6-16.2
		c0-5.4-0.9-9.4-0.9-9.4l5.4-1.4c-0.3,1.1,4.5,21.5-6.2,36.6l-4.3-2.8C386,167.1,387.2,164.9,388,162.3z"/>
</g>
</svg>
