<?xml version="1.0" encoding="utf-8"?>
<!-- Generator: Adobe Illustrator 27.9.0, SVG Export Plug-In . SVG Version: 6.00 Build 0)  -->
<svg version="1.1" id="Layer_1" xmlns="http://www.w3.org/2000/svg" xmlns:xlink="http://www.w3.org/1999/xlink" x="0px" y="0px"
	 viewBox="0 0 512 512" style="enable-background:new 0 0 512 512;" xml:space="preserve">
<style type="text/css">
	.st0{fill:#030404;}
</style>
<g>
	<path class="st0" d="M479,136L68.3,15.8c-3.3-0.9-6.1-1.4-9-1.4c-17.4,0-32.5,14.1-32.5,32.5v193.8h24.5V46.9c0-5.2,4.2-8,8-8
		c0.9,0,1.4,0,2.4,0.5l410.7,119.8c3.3,0.9,5.7,4.2,5.7,8v258.4c0,5.2-4.2,8-8,8c-0.9,0-1.4,0-2.4-0.5l-93.8-27.3v25.5l86.8,25.5
		c3.3,0.9,6.1,1.4,9,1.4c17.4,0,32.5-14.1,32.5-32.5V167.1C502.6,152.5,493.2,139.8,479,136z"/>
	<path class="st0" d="M313.5,174.2c-17,0-30.6,13.7-30.6,30.6V467c0,17,13.7,30.6,30.6,30.6c17,0,30.6-13.7,30.6-30.6V204.8
		C344.2,187.9,330.5,174.2,313.5,174.2z"/>
	<path class="st0" d="M222.5,206.3c-17,0-30.6,13.7-30.6,30.6v201.3c0,17,13.7,30.6,30.6,30.6c17,0,30.6-13.7,30.6-30.6V236.9
		C253.2,219.9,239.5,206.3,222.5,206.3z"/>
	<path class="st0" d="M131.5,236c-17,0-30.6,13.7-30.6,30.6v140.5c0,17,13.7,30.6,30.6,30.6c17,0,30.6-13.7,30.6-30.6V266.6
		C162.2,249.6,148.5,236,131.5,236z"/>
	<path class="st0" d="M40.5,267.6c-17,0-30.6,13.7-30.6,30.6v81.1c0,17,13.7,30.6,30.6,30.6c17,0,31.1-13.7,30.6-30.6v-81.1
		C71.2,281.2,57.5,267.6,40.5,267.6z"/>
</g>
</svg>
