<?xml version="1.0" encoding="utf-8"?>
<!-- Generator: Adobe Illustrator 28.1.0, SVG Export Plug-In . SVG Version: 6.00 Build 0)  -->
<svg version="1.1" id="Layer_1" xmlns="http://www.w3.org/2000/svg" xmlns:xlink="http://www.w3.org/1999/xlink" x="0px" y="0px"
	 viewBox="0 0 512 512" style="enable-background:new 0 0 512 512;" xml:space="preserve">
<g>
	<path d="M146.3,115h-30.2v53.8h31.4c20.1,0,30.2-13.4,30.2-28C177.7,124,166.5,115,146.3,115z M146.3,115h-30.2v53.8h31.4
		c20.1,0,30.2-13.4,30.2-28C177.7,124,166.5,115,146.3,115z M20.9,20.9v470.3h470.3V20.9H20.9z M76.9,79.1H78v-1.1h71.7
		c41.4,0,68.3,24.6,68.3,61.6c0,40.3-31.4,61.6-71.7,61.6h-30.2v52.6H76.9V79.1z M249.4,438.6H73.6v-30.2h175.8V438.6z M328.9,256.1
		c-51.5,0-88.4-39.4-88.4-88.6c0-49.2,36.9-91.8,91.8-91.8c33.5,0,52.6,10.1,70.5,25.8l-23.5,29.1c-13.4-13.5-25.8-21.3-44.8-21.3
		c-29.1,0-52.6,23.5-52.6,54.9c0,31.4,21.2,54.9,52.6,54.9c21.2,0,31.3-7.9,47-21.3l23.5,25.8C383.8,246,363.6,256.1,328.9,256.1z
		 M177.7,140.8c0-16.8-11.2-25.8-31.4-25.8h-30.2v53.8h31.4C167.6,168.8,177.7,155.4,177.7,140.8z"/>
	<g>
		<g>
			<defs>
				<rect id="SVGID_1_" x="20.9" y="20.9" width="470.3" height="470.3"/>
			</defs>
			<clipPath id="SVGID_00000059290021847565563850000008730009306028439974_">
				<use xlink:href="#SVGID_1_"  style="overflow:visible;"/>
			</clipPath>
		</g>
		<g>
			<defs>
				<rect id="SVGID_00000062194413601757494150000014361150863514166708_" x="20.9" y="20.9" width="470.3" height="470.3"/>
			</defs>
			<clipPath id="SVGID_00000031900504440779010840000017487381071536659370_">
				<use xlink:href="#SVGID_00000062194413601757494150000014361150863514166708_"  style="overflow:visible;"/>
			</clipPath>
		</g>
		<g>
			<defs>
				<rect id="SVGID_00000067942142973356196820000018157233491964061057_" x="20.9" y="20.9" width="470.3" height="470.3"/>
			</defs>
			<clipPath id="SVGID_00000114780862745107592030000009948215490726704555_">
				<use xlink:href="#SVGID_00000067942142973356196820000018157233491964061057_"  style="overflow:visible;"/>
			</clipPath>
		</g>
	</g>
</g>
</svg>
