<?xml version="1.0" encoding="utf-8"?>
<!-- Generator: Adobe Illustrator 27.9.0, SVG Export Plug-In . SVG Version: 6.00 Build 0)  -->
<svg version="1.1" id="Layer_1" xmlns="http://www.w3.org/2000/svg" xmlns:xlink="http://www.w3.org/1999/xlink" x="0px" y="0px"
	 viewBox="0 0 512 512" style="enable-background:new 0 0 512 512;" xml:space="preserve">
<g>
	<path d="M424.6,152.3c21.1-3.8,16.8-19.2,16.8-19.2l-0.9-104.6c5.8-23.5-18.4-10.8-18.4-10.8L80.2,126.3l205.5,69.5L424.6,152.3z"
		/>
	<path d="M424.1,239.2l-138.5-43.4L80.2,126.3c0,0-13.4,3.2-9.5,26.2L70,253.2c0,0-1.2,12.7,23,17.8L229.3,315l-144,43.9
		c0,0-17.4,0.6-15.3,33.2c2,32.6-0.1,98.3-0.1,98.3s1.4,12.1,18.1,5.1l341.9-109.1c0,0,10.4-2.6,3.8-5.7c3.2,0.6,9.1,0.3,8.1-10
		l0.1-112.3C442,258.4,445.2,246.8,424.1,239.2z"/>
</g>
</svg>
