<?xml version="1.0" encoding="utf-8"?>
<!-- Generator: Adobe Illustrator 27.9.0, SVG Export Plug-In . SVG Version: 6.00 Build 0)  -->
<svg version="1.1" id="Layer_1" xmlns="http://www.w3.org/2000/svg" xmlns:xlink="http://www.w3.org/1999/xlink" x="0px" y="0px"
	 viewBox="0 0 512 512" style="enable-background:new 0 0 512 512;" xml:space="preserve">
<g>
	<path d="M114.8,132.8c-1.5,13,0.8,26.9-0.8,39.9c-0.8,13-2.3,26.1-5.4,39.9c-3.8,18.4-15.3,33-31.5,44.5
		c31.5,20.7,34.5,52.2,36.8,83.6c0.8,17.6,0.8,34.5,2.3,52.2c1.5,13,6.1,16.9,19.9,16.9c5.4,0,11.5,0,17.6,0v40.7
		c-40.7,6.9-74.4-4.6-82.1-39.1c-2.3-12.3-4.6-25.3-5.4-38.4c-0.8-13.8,0.8-27.6-0.8-41.4c-3.1-37.6-7.7-50.6-43.7-52.2v-46.8
		c2.3-0.8,5.4-0.8,7.7-1.5c19.9-0.8,28.4-6.9,32.2-26.9c2.3-10.7,3.1-22.2,3.8-33c1.5-21.5,0.8-43,4.6-64.4
		c5.4-30.7,23.8-45.3,55.2-46.8c9.2-0.8,17.6,0,28.4,0v42.2c-4.6,0-7.7,0.8-11.5,0.8C118.7,102.9,117.1,111.4,114.8,132.8z
		 M163.9,230.3L163.9,230.3c-15.3-0.8-28.4,10.7-29.2,25.3c-0.8,14.6,10.7,27.6,25.3,28.4h1.5c14.6,0.8,26.9-10,28.4-25.3v-1.5
		C190.8,242.6,179.3,230.3,163.9,230.3z M256.8,230.3c-14.6-0.8-26.1,10.7-26.9,25.3c0,0.8,0,1.5,0,2.3c0,16.1,10.7,26.1,27.6,26.1
		c16.1,0,26.1-10.7,26.1-27.6C283.6,240.3,272.9,230.3,256.8,230.3z M351.9,230.3c-15.3,0-27.6,11.5-28.4,26.9
		c0,15.3,12.3,26.9,26.9,26.9l0,0c13.8,2.3,27.6-10.7,28.4-26.9C379.5,242.6,366.5,230.3,351.9,230.3z M481.6,232.6
		c-16.9-0.8-25.3-6.1-29.9-23c-2.3-10-4.6-21.5-4.6-31.5c-1.5-19.9-0.8-39.9-2.3-59.8C441.7,71.5,407.9,54.6,358,63v40.7
		c7.7,0,13.8,0,19.9,0c10.7,0,18.4,3.8,19.2,16.1c0.8,10.7,0.8,21.5,2.3,32.2c2.3,21.5,3.1,43,6.9,64.4
		c3.1,17.6,15.3,30.7,29.9,40.7c-26.1,17.6-33.8,43-35.3,70.6c-0.8,19.2-1.5,39.1-2.3,58.3c-0.8,17.6-6.9,23.8-25.3,23.8
		c-5.4,0-10,0.8-15.3,0.8V452c10.7,0,19.9,0.8,29.9,0c29.9-1.5,47.6-16.1,53.7-45.3c2.3-16.1,3.8-32.2,4.6-48.3
		c0.8-14.6,0.8-29.9,2.3-44.5c2.3-23,13-32.2,35.3-33.8c2.3,0,4.6-0.8,6.1-1.5v-46.8C486.9,232.6,484.6,232.6,481.6,232.6z"/>
</g>
</svg>
