<?xml version="1.0" encoding="utf-8"?>
<!-- Generator: Adobe Illustrator 27.9.0, SVG Export Plug-In . SVG Version: 6.00 Build 0)  -->
<svg version="1.1" id="Layer_1" xmlns="http://www.w3.org/2000/svg" xmlns:xlink="http://www.w3.org/1999/xlink" x="0px" y="0px"
	 viewBox="0 0 512 512" style="enable-background:new 0 0 512 512;" xml:space="preserve">
<path d="M462.8,131.4L274,22.4v83.7l74,42.8c2.9,1.9,2.9,5.8,0,6.8l-87.6,50.6c-2.9,1.9-5.8,1-7.8,0L165,155.7c-2.9-1-2.9-5.8,0-6.8
	l74-42.8V22.4l-189.8,109v217.1v1l72-41.9v-85.7c0-2.9,3.9-4.9,5.8-3.9l87.6,50.6c2.9,1.9,3.9,3.9,3.9,6.8v101.2
	c0,2.9-3.9,4.9-5.8,3.9l-74-42.8l-72,41.9l1.3,0.8l-0.3,0.2l78.8,45.5l109,63.5l0.5-0.3l0.5,0.3V489l187.9-108.5l-72-41.9l-74,42.8
	c-2.9,1.9-5.8,0-5.8-3.9V276.4c0-2.9,1.9-5.8,3.9-6.8L384,219c2.9-1.9,5.8,0,5.8,3.9v85.7l72,41.9v-1.5l1,0.5V131.4z"/>
</svg>
