<?xml version="1.0" encoding="utf-8"?>
<!-- Generator: Adobe Illustrator 27.9.0, SVG Export Plug-In . SVG Version: 6.00 Build 0)  -->
<svg version="1.1" id="Layer_1" xmlns="http://www.w3.org/2000/svg" xmlns:xlink="http://www.w3.org/1999/xlink" x="0px" y="0px"
	 viewBox="0 0 512 512" style="enable-background:new 0 0 512 512;" xml:space="preserve">
<style type="text/css">
	.st0{clip-path:url(#SVGID_00000154404470746753243240000008875585045336769945_);fill:#262A2A;}
</style>
<g>
	<defs>
		<path id="SVGID_1_" d="M90.5,178.1c-63,72.4-50.9,132-50.9,132s17-41.5,58.8-84.9c20-20.4,34.7-27.2,44.9-27.5
			c11.3,0,16.6,8.3,16.6,15.8v146.7c0,14.3-9.4,17.7-18.1,17.3c-7.2,0-14-2.6-14-2.6c43,62.2,145.6,71.3,145.6,71.3l45.3-48.3
			l1.1,0.8l41.5,35.1c75.4-44.9,112-128.3,112-128.3c-34.3,36.6-55.8,44.9-68.7,44.9c-11.3,0-15.8-6.8-15.8-6.8
			c-0.8-3-1.5-47.9-1.9-92.4c-0.4-46.4,0-92.4,2.3-92.8c13.2-24.5,54.7-73.9,54.7-73.9C366.2,100,324,151,324,151
			c-12.4-9.8-38.1-8.3-38.1-8.3c12.1,6.4,23.8,25.6,23.8,41.5v156.2c0,0-26,23-46,23c-12.1,0-19.2-6.4-23.4-11.7
			c-2.6-3.8-3.8-6.8-3.8-6.8V152.1c-2.6,1.9-6,3.4-9.4,3.4c-4.1,0-8.7-2.3-11.7-8.3c-2.3-4.9-3.8-11.7-3.8-22.3
			c0-35.5,40.4-59.2,40.4-59.2C201,79.3,153.5,105.7,90.5,178.1"/>
	</defs>
	<clipPath id="SVGID_00000060007890618964324250000000002215701803528066_">
		<use xlink:href="#SVGID_1_"  style="overflow:visible;"/>
	</clipPath>
	
		<rect x="33.9" y="61.2" style="clip-path:url(#SVGID_00000060007890618964324250000000002215701803528066_);fill:#262A2A;" width="443.6" height="390"/>
</g>
</svg>
