<?xml version="1.0" encoding="utf-8"?>
<!-- Generator: Adobe Illustrator 27.9.0, SVG Export Plug-In . SVG Version: 6.00 Build 0)  -->
<svg version="1.1" id="Layer_1" xmlns="http://www.w3.org/2000/svg" xmlns:xlink="http://www.w3.org/1999/xlink" x="0px" y="0px"
	 viewBox="0 0 512 512" style="enable-background:new 0 0 512 512;" xml:space="preserve">
<g>
	<path d="M85.2,115c-3.3,0-6.3,0.1-9.2-0.1c-0.9,0-2-0.5-2.7-1.1c-3.7-3.6-7.4-7.2-10.9-11c-0.7-0.7-1.2-1.9-1.2-2.9
		c-0.1-10.8-0.1-21.7,0-32.5c0-0.9,0.4-2.1,1-2.8c3.7-4.2,7.5-8.3,11.4-12.4c0.7-0.7,1.9-1.2,2.9-1.2c49.1-0.1,98.2-0.1,147.3,0
		c1,0,2.2,0.5,2.9,1.2c1.8,1.6,3.4,3.5,5,5.2c8.2-8.2,16.1-16.1,24-24c13.6,13.6,26.8,26.8,40.1,40.1c0.2-0.1,0.4-0.2,0.7-0.3
		c0-2.3-0.1-4.5,0.1-6.8c0.1-1.1,0.6-2.3,1.3-3c3.6-3.5,7.4-6.8,11-10.2c1.2-1.2,2.4-1.6,4.1-1.6c36,0,72,0,107.9,0
		c13.1,0,26.3,0,39.4,0c1.7,0,2.9,0.5,4.1,1.7c3.6,3.7,7.3,7.3,10.8,11c0.7,0.7,1.2,1.9,1.2,2.9c0.1,10.3,0.1,20.6,0,30.9
		c0,1-0.6,2.3-1.3,3c-24.1,24.9-48.3,49.7-72.4,74.6c-0.7,0.7-1.3,1.4-2.1,2.2c25.9,25.7,51.6,51.3,77.5,77.1
		c-27.5,27.4-54.6,54.4-81.6,81.3c0.2,0.3,0.4,0.6,0.6,0.8c3.4-0.2,6.6,0.8,9.6-2.8c6.2-7.5,4.8-6.6,14.6-6.6c6.3,0,12.5,0.1,18.8,0
		c2.8,0,4.9,1,6.5,3.3c1.7,2.4,3.4,4.7,5.2,7c2,2.5,2.4,5,1.4,8.1c-6.3,20.3-12.5,40.6-18.8,61c-0.2,0.7-0.4,1.4-0.6,2.2
		c0.7,0.2,1.2,0.3,1.8,0.4c3.9,0.9,5.8,4.2,4.6,8c-0.9,2.7-1.9,5.3-3,7.9c-1,2.4-3,3.7-5.6,3.7c-12,0-24,0.1-36.1,0
		c-4.7,0-7-4-5.5-8.8c4.9-15.7,9.9-31.4,14.8-47.2c0.8-2.7,1.7-5.4,2.6-8.3c-0.8-0.1-1.5-0.1-2.1-0.1c-5.2,0-10.5,0-15.7,0
		c-1.1,0-1.8,0.1-2.1,1.4c-4.5,14.5-9.2,29-13.8,43.7c0.5,0.2,1,0.4,1.4,0.5c3.3,1.2,5,4.4,3.8,7.8c-0.9,2.6-2,5.1-3.2,7.6
		c-1.1,2.3-3.1,3.4-5.6,3.5c-10.9,0-21.8,0.1-32.7,0c-4.6,0-7-3.9-5.6-8.5c2.5-8.1,5-16.2,7.6-24.4c0.2-0.7,0.4-1.4,0.8-2.6
		c-0.9,0.9-1.5,1.3-2,1.8c-5.7,5.7-11.4,11.4-17,17.2c-0.8,0.8-1.1,2.1-1.5,3.2c-1.2,3.5-2.2,7.1-3.6,10.5c-0.9,2.1-3.2,3.1-5.5,2.8
		c-4.6-0.7-7.5,1.4-10.6,4.6c-14.1,14.4-28.4,28.6-42.6,42.9c-0.5,0.5-1,1.2-1.4,1.7c-25-25-49.9-49.7-74.3-74.1
		c-4.6,4.3-9.1,8.4-13.5,12.7c-5.7,5.7-11.2,11.6-16.9,17.3c-0.7,0.7-2,1.3-3,1.3c-14,0.1-27.9,0.1-41.9,0c-1.1,0-2.2-0.3-3.1-0.9
		c-5.4-3-10.7-6.2-16.1-9.2c-1.4-0.8-1.7-1.7-1.7-3.2c0-37.3,0-74.6,0.1-111.9c0-1.9-0.5-3.2-1.8-4.5
		c-15.9-15.9-31.8-31.8-47.7-47.7c-0.6-0.6-1.1-1.2-1.8-1.9c0.7-0.7,1.2-1.4,1.9-2c16-16,32-32,47.9-48.1c0.8-0.8,1.5-2.3,1.5-3.5
		c0.1-28.6,0.1-57.1,0.1-85.7C85.2,116.7,85.2,116,85.2,115z M107.7,96.7c0,1.3,0,2.3,0,3.3c0,48.5,0,97,0,145.5
		c0,55.5,0,111.1,0,166.6c0,3.1,3.1,6.2,6.1,6.2c7.1,0,14.2-0.1,21.3,0c1.7,0,2.9-0.6,4-1.8c35.2-36.5,70.4-73,105.8-109.4
		c4-4.1,7.3-8.4,8.6-14c1.2-5.1,4.1-8.9,8.2-12.1c2.4-1.9,4.8-3.3,7.9-2.8c2.4,0.3,4-0.7,5.6-2.4c25.4-26.4,50.9-52.8,76.4-79.1
		c34.4-35.6,68.8-71.2,103.2-106.9c0.8-0.9,1.4-2.3,1.4-3.5c0.2-3.2,0.1-6.4,0.1-9.6c0-3.4-3.5-6.9-6.9-6.9c-12.2,0-24.5,0-36.7,0
		c-29.6,0-59.3,0-88.9,0c-3.4,0-6.9,3.6-6.9,6.9c0,4.6,0,9.1,0,13.7c0,2.6,3.1,5.7,5.7,5.7c6.5,0,13,0,19.5,0c0.9,0,1.8,0.3,2.5,0.4
		c-0.1,1.4-0.3,2.3-0.3,3.2c0,4.3-0.1,8.5,0,12.8c0,1.5-0.4,2.6-1.5,3.7C292.8,167.1,242.8,218,192.7,268.8
		c-0.5,0.5-1.1,1.1-1.9,1.8c0-58.3,0-116.2,0-174.2c6.9,0,13.6-0.2,20.3,0.1c3.9,0.2,6.8-0.8,9-3.9c0.5-0.7,1-1.7,1-2.5
		c0.1-4.9,0.1-9.9,0-14.8c0-0.6-0.1-1.5-0.5-1.8c-1.9-1.6-3.6-3.2-6.6-3.2c-32.7,0.1-65.4,0.1-98.1,0.1c-9.9,0-19.9,0-29.8,0
		c-3.2,0-6.1,2.9-6.1,6.2c0,4.9,0,9.7,0,14.6c0,0.7,0.1,1.6,0.5,2.1c1.9,2.1,3.6,4,7.1,3.7c5.7-0.4,11.5-0.1,17.2-0.1
		C105.8,96.7,106.6,96.7,107.7,96.7z M424.5,416.3c0.3-1,0.5-1.8,0.7-2.6c6.4-20.7,12.7-41.5,19.1-62.2c0.9-2.8,2.7-5.8,2.2-8.3
		c-0.5-2.7-3.1-4.9-5-7.3c-0.6-0.7-1.7-1.2-2.5-1.3c-5.4-0.1-10.9,0.3-16.3-0.2c-5.2-0.4-9.3,0.8-12.1,5.4c-0.7,1.1-1.6,2-2.6,2.8
		c-0.9,0.7-2,1.3-3.1,1.3c-4.1,0.1-8.2,0.1-12.3,0c-1,0-2.3-0.6-3-1.3c-2.3-2.3-4.4-4.9-6.7-7.2c-0.6-0.6-1.6-1.1-2.5-1.1
		c-5.7-0.1-11.5-0.1-17.2,0c-0.9,0-2,0.6-2.6,1.3c-2.3,2.4-4.4,5.1-6.7,7.5c-0.6,0.7-1.7,1.2-2.6,1.2c-4,0.1-7.9,0.1-11.9,0
		c-1,0-2.2-0.5-2.9-1.2c-2.5-2.4-4.8-4.9-7.2-7.4c-0.5-0.5-1.4-1-2.1-1c-9.6-0.1-19.3-0.1-28.9,0c-0.5,0-1.4,0.4-1.6,0.8
		c-0.8,2.1-1.4,4.2-2.2,6.7c3.7,0,6.9,0,10.5,0c-9.2,27-18.2,53.7-27.3,80.6c10.8,0,21.2,0,31.5,0c0.5,0,1.2-0.4,1.4-0.8
		c0.7-1.8,1.2-3.6,1.9-5.7c-2.7,0-5.1,0-7.7,0c0.2-0.8,0.4-1.5,0.5-2.1c5.7-17.9,11.4-35.8,17-53.8c0.5-1.6,1.3-1.9,2.7-1.9
		c10.2,0,20.5,0,30.7,0c0.7,0,1.4,0.1,2.3,0.2c-6.7,21.4-13.2,42.5-19.8,63.6c0.3,0.2,0.4,0.3,0.5,0.3c9.9,0,19.9,0.1,29.8,0
		c0.5,0,1.2-0.4,1.4-0.8c0.7-1.4,1.3-3,2.1-4.9c-2.8,0-5.1,0-7.6,0c0.1-0.7,0.1-1.1,0.2-1.4c5.9-18.6,11.8-37.2,17.7-55.9
		c0.4-1.4,1.2-1.4,2.3-1.4c10,0,20,0,30,0c0.5,0,1,0.1,1.8,0.2c-6.7,21.4-13.4,42.7-20.2,64.3c11.5,0,22.6,0,33.7,0
		c0.4,0,1.1-0.5,1.3-0.9c0.8-1.7,1.4-3.4,2.1-5.5C430.3,416.3,427.6,416.3,424.5,416.3z M244.3,342.1c-9.5,27.3-18.9,54.3-28.5,81.5
		c12.9,0,25.4,0,37.8,0c0.5,0,1.3-0.5,1.5-0.9c0.7-2,1.3-4.1,2-6.5c-3.8,0-7.3,0-11.1,0c9.4-27.5,18.7-54.7,28.1-82.2
		c-2,0-3.6,0-5.3,0c-11.2,0-22.4,0-33.6,0c-0.8,0-2.2,0.4-2.4,0.9c-0.8,2.2-1.3,4.5-1.9,7.2C235.5,342.1,239.7,342.1,244.3,342.1z
		 M343.1,99.9c-0.2-0.1-0.5-0.3-0.7-0.4c-2.2,2.3-4.3,4.7-6.6,7c-42.9,42.8-85.7,85.5-128.6,128.3c-0.6,0.6-1.2,1.3-1.5,2.1
		c-3.8,8.8-7.5,17.7-11.2,26.6c-0.2,0.5-0.3,1.1-0.5,1.7c0.2,0.1,0.4,0.3,0.6,0.4c0.4-0.5,0.7-1.2,1.2-1.6
		c26.1-26.5,52.2-53,78.3-79.5c22.6-22.9,45.1-45.9,67.7-68.8c0.6-0.6,1.3-1.4,1.4-2.1C343.1,109,343.1,104.5,343.1,99.9z
		 M110.1,419.5c-0.5-0.6-0.8-1.2-1.3-1.6c-2.4-1.9-2.7-4.4-2.7-7.3c0.1-102.8,0-205.7,0-308.5c0-0.8,0-1.7,0-3
		c-1.6,1.3-2.7,2.3-3.9,3.2c-2.5,1.7-3.2,4-3.2,7c0.1,101.2,0.1,202.4,0.1,303.6c0,0.7-0.1,1.5,0,2.2c0.1,0.6,0.2,1.2,0.6,1.6
		c2.4,2.6,4.9,5.1,7.6,7.9C108.5,422.7,109.3,421.1,110.1,419.5z M227.5,69.6c-1.6-1.4-3.1-2.6-4.3-3.9c-1.3-1.5-2.8-2.1-4.8-2.1
		c-43.4,0.1-86.7,0-130.1,0c-7.9,0-7.9,0-13.3,5.8c-0.6,0.6-1,1.7-1,2.5c-0.1,7.9-0.1,15.8,0,23.8c0,0.6,0.1,1.4,0.5,1.9
		c2,2.2,4.2,4.4,6.5,6.8c0.5-1.6,0.7-2.7,1.2-3.7c1.2-2.4,0.7-4.2-1.4-5.8c-1.6-1.1-2-2.7-1.9-4.6c0.1-4.8,0-9.6,0-14.3
		c0-3.7,3.4-7.1,7.1-7.1c42,0,84,0,126.1,0c3.5,0,6.8,0,9.3,3.1c0.3,0.4,1.4,0.6,1.9,0.4C224.6,71.7,225.8,70.8,227.5,69.6z
		 M389.4,189.9c0.5,0.6,0.8,1.1,1.2,1.5c20.9,21.1,41.9,42.2,62.8,63.2c0.5,0.5,1,1.2,1.6,1.2c4.1,0.1,8.1,0.1,12.3,0.1
		c-24.1-24.1-48-47.9-71.8-71.6C393.7,185.9,391.6,187.9,389.4,189.9z M320.7,98.3c-1.3-1.4-2.2-2.7-3.4-3.7
		c-1.4-1.2-1.9-2.5-1.8-4.3c0.1-3.7,0.3-7.3,0-11c-0.3-3.8,0.8-6.7,3.8-9.2c1.3-1,2.4-1.6,4.1-1.6c20.4,0,40.9,0,61.3,0
		c21.9,0,43.7,0,65.6,0c1.1,0,2.4,0.4,3.1,1.1c4,4.2,4,4.2,9,1.2c0.2-0.1,0.3-0.3,0.8-0.7c-1.4-1.3-2.8-2.3-3.9-3.7
		c-1.5-1.8-3.3-2.3-5.6-2.3c-42.8,0.1-85.5,0.2-128.3-0.1c-5.6,0-9.8,1.1-13,5.7c-0.5,0.8-1.1,1.8-1.1,2.7c-0.1,7.9-0.1,15.8,0,23.8
		c0,0.6-0.1,1.4,0.3,1.7c2,2,4,3.9,6.2,6C318.8,101.8,319.8,100,320.7,98.3z M269.2,311.2c2.1,0,4.2,0,6.3,0c3.4,0,7.2-2.9,8.2-6.2
		c1.4-4.6,2.7-9.2,4-13.7c0.9-3-1.3-6.1-4.5-6.1c-4.3,0-8.7,0.1-13,0c-1.9-0.1-3.2,0.6-4.6,1.7c-2.8,2.1-4.6,4.7-5.5,8.1
		c-0.7,2.7-1.6,5.3-2.8,7.8c-1.7,3.2-1.1,5.6,1.8,7.5c0.7,0.5,1.7,0.9,2.5,1C264.2,311.3,266.7,311.2,269.2,311.2z M295.8,96
		c0.2-0.1,0.4-0.2,0.6-0.2c0-3.2-0.1-6.4,0-9.6c0.1-1.6-0.5-2.8-1.6-3.9c-12-12-24-24.1-36.1-36.1c-0.4-0.4-0.8-0.7-1.4-1.2
		c0,3.5,0.1,6.6,0,9.7c-0.1,1.7,0.4,2.9,1.7,4.1C269.5,69.4,280,80,290.5,90.6C292.3,92.4,294,94.2,295.8,96z M44.8,256.1
		c4.4,0,8.5,0.1,12.7-0.1c0.8,0,1.7-0.5,2.3-1.1c8.1-8.1,16.1-16.2,24.2-24.3c0.5-0.5,1.1-1.1,1.1-1.6c0.1-4.4,0-8.9,0-13.1
		C71.7,229.3,58.3,242.6,44.8,256.1z M241.4,71.9c3.7-3.7,7.3-7.5,11.1-10.9c2.5-2.2,3.6-4.6,3.2-7.9c-0.3-2.8-0.1-5.7-0.1-8.2
		c-6.1,6-12.1,12-18.3,18.1C240.9,64.9,241.5,68.1,241.4,71.9z"/>
</g>
</svg>
