<?xml version="1.0" encoding="utf-8"?>
<!-- Generator: Adobe Illustrator 27.9.0, SVG Export Plug-In . SVG Version: 6.00 Build 0)  -->
<svg version="1.1" id="Layer_1" xmlns="http://www.w3.org/2000/svg" xmlns:xlink="http://www.w3.org/1999/xlink" x="0px" y="0px"
	 viewBox="0 0 512 512" style="enable-background:new 0 0 512 512;" xml:space="preserve">
<g>
	<path d="M19,372.3c115.8,17.2,231.6,34.4,347.5,51.6c0-133.8,0-267.3,0-401.1c0.9,0.3,1.5,0.6,2.2,0.8c37.7,15.7,75.3,31.4,113,47
		c1,0.4,1.4,1,1.4,2.1c0,122.2,0,244.5,0,366.7c0,1.2-0.4,1.7-1.4,2.1c-32.7,13.6-65.5,27.2-98.2,40.8c-5.3,2.2-10.6,4.4-15.9,6.6
		c-0.6,0.3-1.5,0.3-2.2,0.1c-45.6-15.3-91.1-30.7-136.7-46c-27.6-9.3-55.1-18.6-82.7-27.8c-39.2-13.2-78.5-26.4-117.7-39.7
		c-3.1-1-6.1-2.1-9.2-3.1C19,372.4,19,372.3,19,372.3z"/>
	<path d="M45.9,286.9c0.3-0.3,0.5-0.6,0.8-0.9c21.1-20.8,42.1-41.7,63.2-62.5c0.1-0.1,0.2-0.2,0.3-0.3c1.1-1.1,1.1-1.1,0-2.2
		c-21.2-20.9-42.3-41.8-63.5-62.7c-0.3-0.3-0.7-0.5-1.3-0.9c0.8-0.3,1.1-0.5,1.5-0.6c7.9-2.6,15.8-5.3,23.7-8
		c0.9-0.3,1.6-0.2,2.3,0.4c20.6,15.5,41.2,31.1,61.8,46.6c2,1.5,1.5,1.6,3.3-0.2c30.2-29.9,60.5-59.8,90.7-89.7
		c4.7-4.6,9.4-9.3,14.1-13.9c0.7-0.7,1.2-0.9,2.2-0.5c20.5,8.7,41,17.5,61.6,26.2c1,0.4,1.3,0.9,1.3,2c0,68.3,0,136.6,0,204.9
		c0,1-0.2,1.5-1.2,1.9c-18.7,7.9-37.3,15.8-56,23.8c-1.9,0.8-3.8,1.6-5.7,2.4c-0.9,0.4-1.4,0.3-2.1-0.4
		c-13.2-13.1-26.5-26.2-39.7-39.3c-21.7-21.5-43.5-43-65.2-64.5c-0.2-0.2-0.4-0.4-0.6-0.6c-0.6-0.8-1.2-0.6-1.9-0.1
		c-7.7,5.8-15.3,11.6-23,17.3c-13.2,10-26.5,19.9-39.7,29.9c-0.4,0.3-1.2,0.5-1.7,0.4c-8.3-2.7-16.5-5.5-24.7-8.2
		C46.2,287.2,46.1,287.1,45.9,286.9z M243.9,166.3c-24.8,18.7-49.4,37.2-74.1,55.8c24.8,18.7,49.4,37.2,74.1,55.8
		C243.9,240.6,243.9,203.6,243.9,166.3z"/>
</g>
</svg>
