<?xml version="1.0" encoding="utf-8"?>
<!-- Generator: Adobe Illustrator 27.9.0, SVG Export Plug-In . SVG Version: 6.00 Build 0)  -->
<svg version="1.1" id="Layer_1" xmlns="http://www.w3.org/2000/svg" xmlns:xlink="http://www.w3.org/1999/xlink" x="0px" y="0px"
	 viewBox="0 0 512 512" style="enable-background:new 0 0 512 512;" xml:space="preserve">
<style type="text/css">
	.st0{fill-rule:evenodd;clip-rule:evenodd;}
</style>
<path class="st0" d="M466.1,89h-43V45.9c0-19.6-15.9-35.5-35.6-35.5H124.5c-19.6,0-35.5,15.9-35.5,35.5v121.7h-43
	c-19.6,0-35.5,15.9-35.5,35.5v263.1c0,19.6,15.9,35.5,35.5,35.5c0,0,0,0,0.1,0H309c19.6,0,35.5-15.9,35.5-35.5v-43.1h121.6
	c19.6,0,35.5-15.9,35.5-35.5V124.4C501.6,104.8,485.7,89,466.1,89z M108.8,45.9c0-8.6,7-15.6,15.6-15.5c0,0,0,0,0,0h263.1
	c8.6,0,15.6,7,15.6,15.5V89H203c-19.6,0-35.4,15.9-35.5,35.5v43.1h-58.7V45.9z M187.4,387.6v-43.1h137.2v58.6H203
	C194.4,403.2,187.4,396.2,187.4,387.6C187.4,387.6,187.4,387.6,187.4,387.6L187.4,387.6z M187.4,324.6V187.5H309
	c8.6,0,15.6,7,15.6,15.6v121.5H187.4z M108.8,308.9V187.5h58.7v137.1h-43.1C115.8,324.6,108.8,317.6,108.8,308.9L108.8,308.9z
	 M309,167.5H187.4v-43.1c0-8.6,7-15.5,15.6-15.5h200.2v200c0,8.7-7,15.7-15.6,15.7h-43V203.1C344.5,183.5,328.6,167.6,309,167.5z
	 M324.6,466.1c0,8.6-7,15.6-15.6,15.6H45.9c-8.6,0-15.6-7-15.6-15.6V203c0-8.6,7-15.6,15.6-15.6h43v121.5
	c0,19.6,15.9,35.6,35.5,35.6h43.1v43.1c0,19.6,15.9,35.5,35.5,35.5h121.6V466.1z M481.6,387.6c0,8.7-6.9,15.6-15.6,15.6H344.5v-58.6
	h43c19.6,0,35.6-15.9,35.6-35.6v-200h43c8.6,0,15.6,6.9,15.6,15.5V387.6z"/>
</svg>
