<?xml version="1.0" encoding="utf-8"?>
<!-- Generator: Adobe Illustrator 27.9.0, SVG Export Plug-In . SVG Version: 6.00 Build 0)  -->
<svg version="1.1" id="Layer_1" xmlns="http://www.w3.org/2000/svg" xmlns:xlink="http://www.w3.org/1999/xlink" x="0px" y="0px"
	 viewBox="0 0 512 512" style="enable-background:new 0 0 512 512;" xml:space="preserve">
<g>
	<path d="M40.4,331.8c0-2.5,0-5.1,0-7.6c1.7-5.6,5.6-9.5,9.8-13.3c12.5-11.2,24.9-22.7,37.3-34c7.5-6.9,15.1-13.8,23.1-21.1
		c-1.1-0.8-1.9-1.3-2.6-2c-19.3-17.6-38.5-35.2-57.9-52.7c-4.2-3.8-8.1-7.7-9.8-13.3c0-2.5,0-5.1,0-7.6c3.3-4.4,6.3-9.1,10.1-13
		c5.9-6,12.3-11.4,18.6-17.1c7.7-7,16.4-7.4,24.8-1.1c19.6,14.8,39.1,29.6,58.7,44.5c4.8,3.6,9.6,7.2,14.4,10.8
		c1.1-0.9,1.8-1.5,2.6-2.2C224.7,151.8,280,101.4,335.2,50.9c11.6-10.6,21.1-12.1,35.3-5.3c27.9,13.4,55.8,26.9,83.7,40.2
		c11.8,5.6,17.4,14.6,17.4,27.7c-0.1,94.4-0.2,188.9,0.1,283.3c0,14.5-5.9,24-19,30.1c-27.4,12.8-54.6,26.1-81.8,39.3
		c-14.2,6.9-23.8,5.5-35.3-5c-55.3-50.5-110.7-101-166-151.5c-0.8-0.7-1.7-1.3-2.6-2.1c-1.4,1.1-2.7,2-3.9,2.9
		c-23.1,17.5-46.2,35.1-69.4,52.6c-7.9,6-16.8,5.6-24.2-1.1c-6.3-5.6-12.4-11.4-18.7-17C46.4,341.4,42.4,337.4,40.4,331.8z
		 M363.5,353.7c0-65.4,0-130,0-195.3c-43.1,32.7-85.7,65-128.6,97.7C277.9,288.7,320.5,321,363.5,353.7z"/>
</g>
</svg>
