<?xml version="1.0" encoding="utf-8"?>
<!-- Generator: Adobe Illustrator 27.9.0, SVG Export Plug-In . SVG Version: 6.00 Build 0)  -->
<svg version="1.1" id="Layer_1" xmlns="http://www.w3.org/2000/svg" xmlns:xlink="http://www.w3.org/1999/xlink" x="0px" y="0px"
	 viewBox="0 0 512 512" style="enable-background:new 0 0 512 512;" xml:space="preserve">
<g>
	<path d="M489.3,22.9c0,155.4,0,310.9,0,466.4c-155.5,0-311,0-466.5,0c0-1.1,0-2.3,0-3.4c0-153,0-305.9,0-458.9c0-0.8,0-1.5,0-2.3
		c0-0.6,0.1-1.2,0.2-2c1.1,0,2.1,0,3,0c153.5,0,307,0,460.6,0C487.5,22.7,488.4,22.8,489.3,22.9z M248.6,276.3
		c18.4-64.4,36.7-128.7,55-193.1c-15.3,0-30.2,0-45.3,0c-0.2,0.8-0.4,1.5-0.6,2.2c-5.7,22.1-11.5,44.2-17.2,66.3
		c-3.5,13.6-7,27.2-10.6,40.7c-0.2,0.6-0.1,1.5-1,2c-10.7-37.2-21.4-74.2-32.1-111.2c-11,0-21.7,0-32.5,0
		c-11.1,37.2-22.1,74.3-33.2,111.3c-0.2,0-0.3,0-0.5,0c-9.6-37.1-19.3-74.2-28.9-111.3c-14.8,0-29.3,0-44.3,0
		c18.4,64.5,36.7,128.8,55,193.1c12,0,23.7,0,35.7,0c10.7-37.2,21.4-74.3,32.2-111.4c10.8,37.2,21.1,74.4,31.5,111.4
		C224.3,276.3,236.3,276.3,248.6,276.3z M441.8,103.7c-0.6-0.5-0.9-0.8-1.2-1.1c-6.8-5.5-14-10.1-22-13.7
		c-18.2-8.3-37.4-11.2-57.3-9.6c-9.7,0.8-19,3.3-27.6,7.8c-14,7.3-23.7,18.4-27.9,33.7c-3,10.7-2.8,21.6-0.7,32.5
		c2.5,12.5,9.3,22.1,20,29c5.4,3.5,11.2,6.1,17.2,8.3c8.6,3.2,17.5,5.4,26.4,7.8c7.5,2,15.1,4.1,22.2,7.3c3,1.4,6,3,8.7,4.9
		c3.7,2.6,5.5,6.4,5.5,11c0,0.8,0,1.5,0,2.3c0,6.7-3.2,11.5-9.1,14.6c-3.6,1.8-7.4,2.7-11.3,3.1c-11.2,1.2-21.9-0.6-32.4-4.5
		c-10.8-4.1-20.4-10.3-29.5-17.4c-0.6-0.5-1.2-0.9-1.9-1.4c-8.3,10.1-16.5,20.1-24.8,30.2c0.6,0.6,1,0.9,1.4,1.3
		c25.9,21.8,55.6,32.6,89.6,30.6c10.2-0.6,19.9-3.2,29.1-7.8c14.9-7.5,24.9-19.2,29.1-35.4c2.2-8.6,2.6-17.4,1.5-26.2
		c-1.3-11-5.8-20.5-14-28.1c-4.2-4-9-7.1-14.2-9.8c-8.6-4.6-17.8-7.8-27.1-10.5c-8.3-2.4-16.6-4.8-24.9-7.3
		c-4.4-1.3-8.7-3.1-12.7-5.5c-6.4-3.9-9.2-8.8-7.9-18.1c0.8-5.8,4.6-9.4,9.7-11.8c3.8-1.8,7.8-2.6,11.9-2.8
		c7.8-0.4,15.4,0.9,22.8,3.4c9.9,3.4,18.9,8.6,27.6,14.3c0.7,0.5,1.5,1,2.3,1.5C427.6,125.1,434.7,114.5,441.8,103.7z M67.5,401.7
		c-0.5,2.1-0.5,27.1,0,28.9c58.1,0,116.2,0,174.3,0c0.5-3.1,0.3-27.4-0.2-28.9C183.6,401.7,125.5,401.7,67.5,401.7z"/>
</g>
</svg>
