<?xml version="1.0" encoding="UTF-8"?>
<svg id="Layer_1" data-name="Layer 1" xmlns="http://www.w3.org/2000/svg" viewBox="0 0 433.95 366.14">
  <defs>
    <style>
      .cls-1 {
        fill-rule: evenodd;
        stroke-width: 0px;
      }
    </style>
  </defs>
  <path class="cls-1" d="m216.94,267.63c-1.62,10.41-2.78,19.66-6.48,28.22-17.35,40.25-46.96,64.77-91.14,69.62-52.28,5.78-100.62-26.6-115.19-76.79-5.32-18.27-4.63-36.78-2.78-55.28,2.08-19.66,7.86-38.63,16.89-56.21,1.39-2.54,1.39-4.39-.46-6.94C3.9,149.2-1.65,126.07.43,101.09c1.16-13.42,4.39-26.14,10.41-38.17C28.65,27.76,67.75-2.08,120.02,3.01c46.03,4.39,88.59,43.95,95.3,88.59.23,2.31.93,4.39,1.62,7.63,1.16-6.01,1.85-10.87,3.01-15.73C228.51,43.03,268.29.47,324.5,0c56.9-.46,99.23,44.18,107.1,85.58,3.47,17.58,2.78,35.16,0,52.51-2.78,17.58-7.86,34.23-15.5,50.43-1.62,3.47-1.39,6.01.69,9.48,12.26,18.97,17.58,40.02,16.89,62.69-1.39,47.42-34.93,89.75-80.96,100.85-64.3,15.5-113.57-22.9-130.23-69.39-2.78-7.63-3.93-15.5-5.55-24.52m116.81-83.04c.69-2.78,2.78-4.16,4.16-6.25,16.19-21.51,24.52-45.34,22.67-72.17-1.39-19.66-17.58-33.54-37.24-32.85-19.66.69-34.47,15.73-34.7,35.39v4.86c-1.39,20.82-12.95,32.38-30.3,33.54-3.24.23-6.48.46-9.48.46h-68.01c-9.95,0-19.66,1.16-29.15,3.93-43.95,13.65-69.62,43.72-78.18,88.59-1.62,8.79-3.24,18.04-.23,27.29,4.16,13.18,12.03,22.9,25.68,26.14,14.34,3.47,26.83-.46,36.55-11.57,6.48-7.17,8.33-15.96,8.79-25.21,1.16-24.29,14.57-36.55,36.55-36.32,33.77.23,67.77,0,101.78,0q6.01,0,6.01,6.01c0,11.1-.23,21.97.23,33.08.69,17.81,16.42,32.85,34.7,33.31,18.74.46,35.62-13.42,36.78-31.69,1.16-15.73.93-31.69,0-47.42-.69-12.26-7.4-20.82-18.5-25.91-2.54-1.39-5.32-2.31-8.1-3.24m-212.57-37.01h19.2c3.01,0,3.93-1.16,3.93-4.16,0-11.33.46-22.9-.23-34.23-.93-15.04-9.02-25.91-22.9-31.46-14.34-5.55-27.53-2.31-38.63,8.1-11.1,10.64-12.72,23.59-8.79,37.93,3.47,13.18,12.03,20.59,25.44,22.67,7.86,1.62,15.73.93,21.97,1.16"/>
</svg>