<?xml version="1.0" encoding="utf-8"?>
<!-- Generator: Adobe Illustrator 27.9.0, SVG Export Plug-In . SVG Version: 6.00 Build 0)  -->
<svg version="1.1" id="Layer_1" xmlns="http://www.w3.org/2000/svg" xmlns:xlink="http://www.w3.org/1999/xlink" x="0px" y="0px"
	 viewBox="0 0 512 512" style="enable-background:new 0 0 512 512;" xml:space="preserve">
<style type="text/css">
	.st0{fill:#FFFFFF;}
</style>
<g>
	<path class="st0" d="M280.4,64.6c-1.8,1.5-3.7,2.8-5.1,4.4c-0.6,0.7-0.7,2.1-0.4,3.1c0.1,0.4,1.8,0.6,2.7,0.5
		c9.8-1.5,19.6-3.5,29.5-4.7c17.8-2.2,32.8,3.6,43.2,18.2c11.7,16.4,15.7,35.6,11.2,55c-5.9,25.7-13.4,51.1-21.8,76.1
		c-22.1,66.4-45.2,132.4-67.6,198.7c-3.1,9.1-5.2,18.6-6.9,28.1c-1.2,6.5,1.3,12.3,7.4,15.7c9.5,5.3,19.7,7.7,30.5,6.4
		c6.9-0.8,12.1-5.8,13.3-12.3c2.1-11.1,4.1-22.2,6.3-33.3c13.7-69.8,28.8-139.4,47.8-208c7.2-26,14.9-51.9,26.4-76.4
		c4.4-9.3,10.3-16.8,20-21.3c8.2-3.8,18.1-2.6,23.3,4.7c5.5,7.8,13.5,10,21.9,11.3c1.7,0.3,4.6-0.9,5.5-2.4
		c8.3-13.6,13.7-28.2,12.8-44.5c-0.1-1.4-1-3.7-2-4c-7.7-2.3-15.1-7.7-23.7-2.8c-1.1,0.6-2.5,0.7-3.8,1c-9.3,1.7-16.9-2.1-23.1-8.4
		c-11.4-11.6-25.5-18.3-41-20.7c-16.6-2.6-33.6-2.9-50.4-3.4c-7.3-0.2-14.6,1-21.9,2.2c-13.9,2.2-26.5,8.3-39.3,13.7
		c-1,0.4-1.5,1.7-3.2,3.7C275.6,65,277.9,64.8,280.4,64.6z M462.4,402.1c-13.1-88.4-26.2-176.4-39.4-264.9c-1,0.7-1.6,1-1.8,1.4
		c-3.5,6.2-8,12.1-10.2,18.8c-8.7,27.1-16.6,54.4-24.8,81.6c-0.2,0.8-0.6,1.8-0.4,2.5c1.1,4.1,2.7,8.2,3.6,12.3
		c1.3,5.9,2.2,12,3.3,18.3c-4.5,0.6-8.5,1-12.4,1.7c-1.1,0.2-2.6,1.1-2.8,1.9c-2.4,9.5-4.6,19-6.8,28.6c16.7,9.8,20.7,24.8,18,42.7
		c-1.3,8.8-3.6,13.9-7,15c0-1.8,0.4-3.7-0.1-5.2c-0.7-1.9-1.7-4.4-3.3-5.2c-5.6-2.8-11.5-5-17.9-7.7c-5.6,25.5-11.1,50.8-16.8,76.9
		C383.7,414.6,422.8,408.4,462.4,402.1z"/>
	<path d="M31.6,147.8c11.2-1.6,22.4-3.1,33.5-4.8c40.8-6.3,81.5-12.6,122.3-19c38.7-6,77.4-12,116.2-18c10.1-1.6,20.3-3.1,30.9-4.8
		c3.5,9,5.8,18.1,4.4,27.8c-4.5,31.2-16.2,60.3-25.5,90c-1,3.1-2,6.1-3.2,9.6c-0.9-0.8-1.7-1.4-2.3-2.1
		c-23-26.6-45.9-53.2-68.8-79.7c-5.5-6.4-12.6-6.8-18.8-1.1c-8.9,8.3-9.2,13.2-1.4,22.9c24.6,30.3,49.2,60.8,74,90.9
		c3.4,4.2,4.6,7.8,2.3,12.6c-0.7,1.6-1.3,3.3-2.2,5.7c-4.4-5.5-8.6-10.5-12.5-15.7c-1.7-2.3-3.5-2.9-6.3-2.4
		c-17.1,2.9-34.2,5.5-51.3,8.3c-1.4,0.2-3.4,1.5-3.9,2.7c-3.6,10.2-7,20.5-10.7,31.7c27.8-4.4,54.9-8.7,82.6-13
		c-17.3,48.9-37,96.1-49.9,146.9c-52.6,8.6-106.4,17.3-160.5,26.1c-2-12.6-3.9-24.6-5.7-36.7c-6.6-42.5-13.2-85-19.9-127.5
		c-6.3-40.6-12.6-81.2-19-121.8c-1.3-8.4-2.9-16.7-4.4-25C31.6,150.1,31.6,149,31.6,147.8z M140.9,404.2c0.3,0.1,0.6,0.2,0.9,0.3
		c10-13.4,20.1-26.7,30.1-40.2c1.7-2.3,3.2-4.9,4.2-7.6c17.8-47.4,35.6-94.8,53.3-142.1c5.1-13.7,2-19.7-12-23.1
		c-0.7-0.2-1.4-0.3-2.2-0.4c-8.1-0.9-11.9,1.5-14.8,9.1c-13.5,36.1-27.3,72.2-40.6,108.4c-7.2,19.8-17.4,38.8-17,61
		C143.2,381,141.6,392.6,140.9,404.2z M159.5,277.9c-17.4,3.2-33.9,6.3-50.7,9.4c1.3,10.1,2.5,19.8,3.7,30.1
		c11.1-1.9,21.8-3.6,32.4-5.6c0.9-0.2,1.8-1.4,2.2-2.3C151.2,299.4,155.2,289.1,159.5,277.9z"/>
	<path d="M280.4,64.6c-2.5,0.2-4.8,0.4-8.5,0.6c1.6-2,2.2-3.3,3.2-3.7c12.8-5.4,25.4-11.6,39.3-13.7c7.2-1.1,14.6-2.4,21.9-2.2
		c16.8,0.6,33.8,0.9,50.4,3.4c15.5,2.4,29.6,9.1,41,20.7c6.2,6.3,13.7,10.1,23.1,8.4c1.3-0.2,2.7-0.4,3.8-1c8.6-4.9,16,0.5,23.7,2.8
		c1,0.3,2,2.6,2,4c0.9,16.3-4.5,30.9-12.8,44.5c-0.9,1.4-3.8,2.6-5.5,2.4c-8.5-1.3-16.5-3.5-21.9-11.3c-5.2-7.4-15.1-8.6-23.3-4.7
		c-9.7,4.5-15.6,11.9-20,21.3c-11.5,24.6-19.2,50.4-26.4,76.4c-19,68.6-34.1,138.1-47.8,208c-2.2,11.1-4.2,22.2-6.3,33.3
		c-1.2,6.5-6.3,11.5-13.3,12.3c-10.8,1.2-21.1-1.1-30.5-6.4c-6.1-3.4-8.6-9.2-7.4-15.7c1.8-9.5,3.9-19,6.9-28.1
		c22.4-66.3,45.4-132.3,67.6-198.7c8.3-25,15.8-50.4,21.8-76.1c4.5-19.4,0.5-38.5-11.2-55c-10.4-14.6-25.4-20.5-43.2-18.2
		c-9.9,1.2-19.7,3.2-29.5,4.7c-0.9,0.1-2.6-0.1-2.7-0.5c-0.3-0.9-0.2-2.4,0.4-3.1C276.8,67.4,278.6,66.1,280.4,64.6z"/>
	<path d="M462.4,402.1c-39.6,6.3-78.6,12.5-118.7,18.8c5.7-26.1,11.2-51.4,16.8-76.9c6.4,2.7,12.3,4.9,17.9,7.7
		c1.6,0.8,2.6,3.2,3.3,5.2c0.5,1.5,0.1,3.4,0.1,5.2c3.4-1.1,5.6-6.2,7-15c2.7-17.9-1.4-33-18-42.7c2.2-9.6,4.4-19.1,6.8-28.6
		c0.2-0.9,1.8-1.7,2.8-1.9c3.9-0.7,7.8-1.1,12.4-1.7c-1.1-6.3-2-12.3-3.3-18.3c-0.9-4.2-2.5-8.2-3.6-12.3c-0.2-0.8,0.2-1.7,0.4-2.5
		c8.2-27.2,16.1-54.5,24.8-81.6c2.1-6.7,6.7-12.6,10.2-18.8c0.2-0.4,0.9-0.7,1.8-1.4C436.1,225.7,449.2,313.7,462.4,402.1z"/>
</g>
</svg>
