<?xml version="1.0" encoding="utf-8"?>
<!-- Generator: Adobe Illustrator 27.9.0, SVG Export Plug-In . SVG Version: 6.00 Build 0)  -->
<svg version="1.1" id="Capa_1" xmlns="http://www.w3.org/2000/svg" xmlns:xlink="http://www.w3.org/1999/xlink" x="0px" y="0px"
	 viewBox="0 0 512 512" style="enable-background:new 0 0 512 512;" xml:space="preserve">
<g>
	<path d="M510.2,425l-61.5-247.2c-6.7-26.9-30.8-45.7-58.5-45.7H316c9.4-12.5,15-28.1,15-45c0-41.4-33.6-75-75-75s-75,33.6-75,75
		c0,16.9,5.6,32.5,15,45h-73.5c-27.7,0-51.7,18.7-58.5,45.6L1.9,424.9c-9.6,38.1,19.2,75,58.5,75h391.3
		C490.9,499.9,519.7,463.1,510.2,425L510.2,425z M211,87.1c0-24.8,20.2-45,45-45s45,20.2,45,45s-20.2,45-45,45S211,111.9,211,87.1z
		 M451.7,469.9H60.3c-19.7,0-34.2-18.6-29.4-37.7L93.2,185c3.4-13.5,15.5-22.9,29.4-22.9h267.5c14,0,26,9.5,29.4,23l61.5,247.2
		C485.8,451.4,471.4,469.9,451.7,469.9z"/>
</g>
</svg>
