<?xml version="1.0" encoding="utf-8"?>
<!-- Generator: Adobe Illustrator 27.9.0, SVG Export Plug-In . SVG Version: 6.00 Build 0)  -->
<svg version="1.1" id="Line" xmlns="http://www.w3.org/2000/svg" xmlns:xlink="http://www.w3.org/1999/xlink" x="0px" y="0px"
	 viewBox="0 0 512 512" style="enable-background:new 0 0 512 512;" xml:space="preserve">
<path d="M475.1,70.1c-115.8-51.9-252.5-8.9-326,83.4l-12.9,69c-3.4-6-5.1-12.8-5-19.8c-5.7-27.5-39.3,22.8-43.9,31.6
	c-14,26-19.8,55.5-16.9,84.8c0.4,4.4,4.4,7.6,8.8,7.2c4.3-0.4,7.5-4.2,7.2-8.5c-2.7-26.2,2.5-52.6,14.9-75.8
	c4.6-8.2,10-15.8,16.3-22.7c1.2,3.9,2.8,7.6,4.8,11.1c6.4,10.9,20.2,26.9,26.6,11.1l15.5-83c8.2-9,16.9-17.5,26.1-25.5
	c-2.9,9.7-11.7,54.8,5.6,52.9c4.4-0.6,7.4-4.6,6.8-9c0,0,0,0,0,0c-3.2-23,2.3-46.3,15.5-65.4c14.5-10,30-18.7,46.1-25.8
	c-3.6,8.1-16.5,28.6-2.7,32.7c4.3,0.9,8.6-1.8,9.5-6.1c3.2-15,11.5-28.4,23.6-37.8c55-16.6,114-13.9,167.2,7.5
	c-7.9,22.4-19.5,43.3-34.2,61.9c-3.7,3-4.2,8.4-1.2,12c0.4,0.5,0.9,0.9,1.4,1.3c3.9,2.6,9.1,1.6,11.7-2.3c0.2-0.3,0.4-0.7,0.6-1
	c10-12.4,18.6-25.9,25.8-40.2c5.5-10.9,10-22.3,13.5-34C480.8,75.9,478.9,71.7,475.1,70.1L475.1,70.1z"/>
<path d="M415.7,183.5c0.6-4.4-2.4-8.5-6.8-9.1c-1.3-0.2-2.6-0.1-3.8,0.4c-21.4,8.9-44.8,12-67.8,8.9c-4.4-0.5-8.4,2.6-8.9,7
	c-0.5,4.3,2.4,8.2,6.7,8.9c14.6,2.1,29.3,1.9,43.8-0.5c7.1-1.6,6.5-1.4,1.9,4.1c-8.2,10-18.9,17.7-31,22.4
	c-23,8.5-49.3,5.4-73.1,0.9c-4.3-0.9-8.6,1.8-9.5,6.1c-0.5,2.2,0,4.5,1.3,6.4c11.9,16.8,29.9,28.2,50.1,31.8
	c-21.9,20.3-50.7,43.9-67.8,57.7c-11.8,9.7-26.8,14.5-42,13.5c-12.9-1-25.5-4-37.5-8.8c-4.2-1.6-8.8,0.5-10.4,4.6
	c-0.7,1.7-0.7,3.6-0.1,5.4c2.8,8.3,7.2,15.9,13.1,22.3c4.3,4.3,6.5,5.3-0.8,6.3c-23.3,4.6-47.4,3-70-4.6
	c61.9-88.9,140-165.3,230.3-225.1c3.6-2.5,4.5-7.5,2-11.1c-2.5-3.5-7.3-4.5-10.9-2.2C201.1,209.8,100.7,321.4,32.9,452.7
	c-2,3.9-0.5,8.8,3.5,10.8c3.9,2,8.8,0.5,10.8-3.5c14.1-27.3,29.6-53.8,46.6-79.5c34.3,12.9,72.1,12.8,106.3-0.2
	c4.1-1.6,6.2-6.2,4.6-10.3c-0.7-1.9-2.2-3.5-4.1-4.4c-5.6-2.6-10.7-6.4-14.9-11c5.7,0.6,15,3.1,22.2,3.2c19.2,1.3,38.1-4.8,53-17
	c21-17,59.7-48.8,82.3-71.5c3.1-3.2,3-8.3-0.2-11.4c-1.6-1.6-3.8-2.4-6.1-2.2c-13.5,1-27-2.4-38.4-9.8c19.2,2.6,38.8,0.7,57.1-5.5
	C381.3,230.9,401.3,206.3,415.7,183.5L415.7,183.5z"/>
</svg>
