<?xml version="1.0" encoding="utf-8"?>
<!-- Generator: Adobe Illustrator 27.9.0, SVG Export Plug-In . SVG Version: 6.00 Build 0)  -->
<svg version="1.1" id="Capa_1" xmlns="http://www.w3.org/2000/svg" xmlns:xlink="http://www.w3.org/1999/xlink" x="0px" y="0px"
	 viewBox="0 0 512 512" style="enable-background:new 0 0 512 512;" xml:space="preserve">
<g>
	<g>
		<g>
			<path d="M262,129.9c-2.3,0-4.7-0.1-7.2-0.3l-4.3-0.3l-0.3-4.3c-2-29.8,6.8-55.2,27.9-79.8c16.4-19.2,44.9-34.4,70.9-37.8l0.7,0
				h8.1l0.4,4.6c2.5,30.5-6.8,58.2-27.5,82.3C317.6,109.8,296.4,129.9,262,129.9z M260,119.9c31,0.8,50-16.6,63.1-32.1
				c17.8-20.8,26.3-44.3,25.4-70.2c-22.9,3.6-48.5,17.4-62.7,34.1C267.6,73,259.3,94.7,260,119.9z"/>
		</g>
		<g>
			<path d="M189.3,504.6h-10.6l-0.4-0.1c-24.1-3.5-42.5-22.7-54.1-36.9C81.4,415.5,57.2,355,52.4,287.8l0-0.4l0-22
				c2.2-51.8,27-98.2,64.7-121.3c16.9-10.4,43.4-21.7,74-17c13.2,2,26.7,6.8,35.7,10.2c2.3,0.9,4.6,1.9,7.1,2.9
				c8.1,3.5,17.4,7.4,25.6,7.1c5.2-0.2,10.8-2.4,16.6-4.7c2-0.8,4-1.6,6.1-2.4c1.8-0.7,3.7-1.3,5.5-2c22.3-8.2,45.4-16.6,75.1-12.1
				c37.7,5.7,65.6,22.4,83.1,49.7l2.7,4.2l-4.2,2.7c-36.8,23.4-53.1,55.1-49.6,96.8c3.1,39,24,67.9,61.9,85.9l2.9,1.4v4.9l-0.3,0.8
				c-9.2,27.8-22.7,53.9-41.3,79.6c-0.8,1-1.5,2.1-2.3,3.2c-15.7,21.8-35.3,48.8-70,48.8c-15.6,0-28.6-5-41.1-9.9
				c-12.2-4.7-23.7-9.2-37.7-9.4c-17.2-0.3-29.9,4.6-43.4,9.8c-10.3,4-21,8.1-34,9.9L189.3,504.6z M179.5,494.6h9.2
				c11.7-1.7,21.3-5.4,31.4-9.3c13.8-5.3,28-10.8,47.2-10.5c15.8,0.3,28.7,5.3,41.1,10.1c12.2,4.7,23.7,9.2,37.4,9.2
				c29.6,0,46.8-23.7,61.9-44.7c0.8-1.1,1.5-2.1,2.3-3.2c17.2-23.8,29.9-47.9,38.7-73.5c-39.1-19.8-60.6-50.8-63.9-92.3
				c-3.6-44.1,12.7-77.9,49.9-103.2c-16-22.4-40.7-36.2-73.4-41.2c-27.2-4.1-48.1,3.5-70.2,11.6c-1.8,0.7-3.7,1.3-5.5,2
				c-1.9,0.7-3.9,1.5-5.8,2.2c-6.4,2.6-13.1,5.3-20.1,5.5c-10.4,0.3-20.8-4.1-29.9-7.9c-2.4-1-4.6-2-6.7-2.8
				c-8.5-3.2-21.3-7.8-33.6-9.7c-27.7-4.2-51.9,6.2-67.3,15.7c-34.9,21.3-57.9,64.6-60,113v21.5c4.7,65,28.1,123.6,69.6,174.1
				C142.5,474.1,158.9,491.5,179.5,494.6z"/>
		</g>
	</g>
</g>
</svg>
