<?xml version="1.0" encoding="utf-8"?>
<!-- Generator: Adobe Illustrator 27.9.0, SVG Export Plug-In . SVG Version: 6.00 Build 0)  -->
<svg version="1.1" id="Layer_1" xmlns="http://www.w3.org/2000/svg" xmlns:xlink="http://www.w3.org/1999/xlink" x="0px" y="0px"
	 viewBox="0 0 512 512" style="enable-background:new 0 0 512 512;" xml:space="preserve">
<g>
	<path d="M467.8,45.1c0,86.8,0,173.2,0,260.2c-2.8,0.2-5.4,0.4-7.9,0.4c-51,0-101.9-0.1-152.9,0.2c-5.9,0-8.9-2-11.8-7
		c-18.8-32.9-37.8-65.6-57.1-98.2c-3.1-5.3-3.1-9.3,0-14.6c26.2-45.2,52-90.6,78.3-135.8c1.5-2.6,5.4-5.5,8.1-5.5
		c46.7-0.3,93.4-0.2,140.1-0.2C465.4,44.6,466.2,44.9,467.8,45.1z"/>
	<path d="M44.7,467.1c0-20.5,1.1-40.5-0.3-60.4c-1.6-22,4.7-40.4,15.7-59.3c57.3-98,113.6-196.7,170-295.2c3.4-6,7.1-7.9,13.8-7.7
		c18.7,0.5,37.3,0.2,57.4,0.2c-1.8,3.3-3,5.7-4.4,8.1c-49,84.4-97.9,168.8-147.1,253.1c-3.3,5.7-3.1,9.7,0.1,15.2
		c26.4,45.4,52.5,91,78.7,136.5c1.7,2.9,3.2,6,5.1,9.6C170.6,467.1,108.3,467.1,44.7,467.1z"/>
	<path d="M171.2,323.5c99.2,0,197.7,0,296.5,0c0,48.1,0,95.8,0,143.7c-2.6,0.1-4.7,0.3-6.8,0.3c-67.3,0-134.6,0.1-201.9-0.2
		c-3.1,0-7.6-1.8-9-4.2C223.9,417.7,198,372,172,326.3C171.7,325.7,171.6,324.9,171.2,323.5z"/>
	<path d="M225,209.2c18.8,32.3,37,63.7,56.1,96.6c-8.2,0-14.9,0-21.7,0c-17.1,0-34.1,0.1-51.1,0c-17.2-0.1-28.1-16.8-20.1-31.8
		C199.7,252.3,212.3,231.4,225,209.2z"/>
</g>
</svg>
