<?xml version="1.0" encoding="utf-8"?>
<!-- Generator: Adobe Illustrator 27.9.0, SVG Export Plug-In . SVG Version: 6.00 Build 0)  -->
<svg version="1.1" id="Layer_1" xmlns="http://www.w3.org/2000/svg" xmlns:xlink="http://www.w3.org/1999/xlink" x="0px" y="0px"
	 viewBox="0 0 300 300" style="enable-background:new 0 0 300 300;" xml:space="preserve">
<g>
	<g id="Layer_2_4_">
		<g id="Outlined_Mnemonics_Logos_4_">
			<g id="Ae">
				<path d="M121.5,177.8H76.5l-9.1,28.5c-0.3,1.1-1.2,1.8-2.3,1.8H42.3c-1.3,0-1.8-0.7-1.4-2.1L79.9,94.3c0.4-1.2,0.8-2.3,1.2-3.8
					c0.5-2.6,0.8-5.2,0.8-7.9c-0.1-0.7,0.4-1.3,1-1.4c0.1,0,0.2,0,0.3,0h30.9c0.9,0,1.4,0.3,1.6,1l44.2,123.9c0.4,1.3,0,1.9-1.2,1.9
					h-25.3c-0.9,0.1-1.7-0.5-1.9-1.4L121.5,177.8z M98.9,103.4h-0.2l-15.2,50.4h30.7L98.9,103.4z"/>
				<path d="M231.4,166.7h-38.3c0.5,3.8,1.7,7.4,3.7,10.7c2.2,3.2,5.3,5.8,8.9,7.3c4.9,2.1,10.2,3.1,15.5,3
					c4.2-0.1,8.4-0.5,12.6-1.4c3.7-0.5,7.3-1.4,10.8-2.8c0.6-0.5,1-0.2,1,1V203c0,0.5-0.1,1-0.3,1.5c-0.2,0.4-0.5,0.7-0.9,0.9
					c-3.8,1.7-7.9,2.9-12.1,3.6c-5.6,1.1-11.4,1.5-17.1,1.5c-9.2,0-16.9-1.4-23.2-4.3c-5.9-2.6-11.1-6.5-15.2-11.5
					c-3.8-4.7-6.7-10.1-8.4-15.9c-1.7-5.7-2.5-11.6-2.5-17.6c0-6.5,1-13,3-19.2c1.9-6,5-11.6,9-16.5c8.9-10.8,21.1-15.3,34.8-15.3
					c11.8,0,23.9,3.9,31.5,13.3c3.2,4.1,5.6,8.8,7.2,13.7c1.5,4.8,2.3,9.8,2.3,14.8c0,2.9-0.1,5.4-0.3,7.8c-0.2,2.3-0.4,4-0.5,5.1
					c-0.1,0.9-0.9,1.6-1.8,1.6c-0.8,0-2.1,0.1-4,0.3c-1.9,0.2-4.2,0.3-7,0.4C237.5,167.2,234.6,166.7,231.4,166.7L231.4,166.7z
					 M193.1,149h25.5c3.1,0,5.4,0,6.9-0.1c1-0.1,2-0.4,2.8-0.9v-1.2c0-1.5-0.3-3-0.8-4.5c-2.2-6.8-8.6-11.4-15.8-11.1
					c-6.7-0.4-13,3.2-16.1,9.1C194.4,143.1,193.5,146,193.1,149L193.1,149z"/>
			</g>
		</g>
	</g>
</g>
<g>
	<path d="M243.3,293H56.7c-29.4,0-53.4-24-53.4-53.4V60.3C3.4,30.9,27.3,7,56.7,7h186.5c29.4,0,53.4,24,53.4,53.4v179.3
		C296.6,269.1,272.7,293,243.3,293z M56.7,17c-23.9,0-43.4,19.5-43.4,43.4v179.3c0,23.9,19.5,43.4,43.4,43.4h186.5
		c23.9,0,43.4-19.5,43.4-43.4V60.3c0-23.9-19.5-43.4-43.4-43.4H56.7z"/>
</g>
</svg>
