<?xml version="1.0" encoding="utf-8"?>
<!-- Generator: Adobe Illustrator 27.9.0, SVG Export Plug-In . SVG Version: 6.00 Build 0)  -->
<svg version="1.1" id="Layer_1" xmlns="http://www.w3.org/2000/svg" xmlns:xlink="http://www.w3.org/1999/xlink" x="0px" y="0px"
	 viewBox="0 0 512 512" style="enable-background:new 0 0 512 512;" xml:space="preserve">
<g>
	<path d="M164.4,296.1c-16.1,13.2-31.2,25.6-46.2,37.9c-15.4,12.6-30.7,25.2-46.1,37.8c-8.4,6.9-17.9,10.9-29,10.6
		c-19-0.6-30.3-16.1-25.1-34.4c2.7-9.4,8.6-16.4,16.2-22.2c55.2-42.4,110.4-84.8,165.6-127.2c1.5-1.1,2.9-2.3,4.2-4.6
		c-1.7,0-3.4,0-5.1,0c-29.2,0.1-58.4,0.3-87.6,0.2c-4,0-8.2-0.5-12-1.7c-13.8-4.4-18.6-17.4-10.8-29.6c7.1-11,17.8-16.1,30.6-16.2
		c35.5-0.3,71-0.3,106.5-0.4c26-0.1,52-0.3,78-0.4c1.3,0,2.6-0.1,5.2-0.3c-4.1-3.4-7.4-6.2-10.7-8.9c-16.4-13.2-32.8-26.4-49.2-39.7
		c-11.7-9.5-10.8-22.5,2.2-30.4c11.3-6.9,26.3-6.6,36.5,1.2c50.5,38.7,101.4,77,151.3,116.5c39.5,31.2,59,73,56.1,123.3
		c-2.1,37.2-18.1,69.1-45.4,94.6c-41,38.3-89.9,53.6-145.2,46.1c-49.3-6.6-89.5-29.7-118-71.1c-14-20.3-22.4-42.9-23-68
		C163.3,305.4,164,301.3,164.4,296.1z M331.9,194.1c-26.3,0.2-47.3,6.4-65.9,19.9c-46.6,33.7-52,95.9-11.7,134.9
		c40,38.7,106.5,39.3,147.2,1.4c34.7-32.4,38.5-83.2,8.3-119.3C388.7,205.6,360.8,194.7,331.9,194.1z"/>
	<path d="M330.7,341.6c-19.3-0.3-36.3-6.4-49.6-20.9c-20.5-22.3-19.9-54.5,1.2-76.2c25.1-25.8,69.3-26.6,95.2-1.6
		c27.3,26.3,22.7,68.5-9.7,88.4C356.5,338.2,344.1,341.7,330.7,341.6z"/>
</g>
</svg>
