<?xml version="1.0" encoding="utf-8"?>
<!-- Generator: Adobe Illustrator 27.9.0, SVG Export Plug-In . SVG Version: 6.00 Build 0)  -->
<svg version="1.1" id="Capa_1" xmlns="http://www.w3.org/2000/svg" xmlns:xlink="http://www.w3.org/1999/xlink" x="0px" y="0px"
	 viewBox="0 0 512 512" style="enable-background:new 0 0 512 512;" xml:space="preserve">
<g>
	<g>
		<path d="M416.7,503.5H95.3c-51.3,0-93-41.7-93-93V101.5c0-51.3,41.7-93,93-93h321.4c51.3,0,93,41.7,93,93v308.9
			C509.7,461.7,468,503.5,416.7,503.5z M95.3,18.3C49.4,18.3,12,55.6,12,101.5v308.9c0,45.9,37.4,83.3,83.3,83.3h321.4
			c45.9,0,83.3-37.4,83.3-83.3V101.5c0-45.9-37.4-83.3-83.3-83.3H95.3z"/>
	</g>
	<g>
		<path d="M245.2,314.7v34.4c0.2,2.1-0.8,3.9-2.7,4.8c-6.4,2.3-12.9,3.7-19.7,4.6c-32.2,3.9-67,0.7-95-16.8
			c-31.8-19.9-46.8-57.2-46.2-93.7c0.6-40.6,18.7-79.8,56.4-99.1c19.9-10.2,42.1-15.3,64.5-14.9c8.7,0,17.2,0.4,25.9,1.2
			c6,0.6,11.8,2.1,17.6,3.9c1.2,1,1.9,2.5,1.7,3.9v37.5c0,2.1-0.8,2.7-2.3,2.1c-6.2-2.9-13.1-5-19.9-6c-8.1-1.2-16.2-1.9-24.5-1.9
			c-25.2,0-50.8,11.2-63,34.2c-10.3,19.5-11.3,44.1-4.6,64.9c7.1,21.7,26.4,36.4,48.1,41.5c6.6,1.9,13.7,2.9,20.5,3.1
			c7.5,0,15.1-0.2,22.6-1c6.2-0.8,12.2-2.3,18-4.6c0.8-0.6,1.5-0.8,2.1-0.4C245.2,313,245.4,313.9,245.2,314.7L245.2,314.7z"/>
		<path d="M321.9,235.9v116.9c0,1.9-0.8,2.7-2.3,2.7H278c-1.5,0.2-2.7-0.8-2.9-2.3c0-0.2,0-0.4,0-0.8V122.1c0-1.5,0.8-2.3,2.7-2.3
			h42.1c1-0.2,2.3,0.6,2.3,1.7v0.6l0.2,78.8c6-3.9,12.4-7.3,19.3-9.7c7-2.5,15.1-3.1,24.5-3.1c6.6,0,13.3,1,19.5,2.9
			c6.6,1.9,12.9,5.2,18.2,9.7c5.6,5,9.5,11.8,12.9,20.3c3.3,8.5,5,19.7,5,33.2v98.3c0,2.1-0.8,2.9-2.7,2.9h-39.2
			c-1.7,0.2-3.1-0.8-3.3-2.5c0-0.2,0-0.6,0-0.8v-93.3c0.2-6-0.8-12-3.1-17.6c-1.9-4.1-4.8-7.9-8.7-10.6c-4.6-2.7-10-3.9-15.3-3.7
			c-5,0-10,0.6-14.7,2.1C330,230.7,325.7,233,321.9,235.9L321.9,235.9z"/>
	</g>
</g>
</svg>
