<?xml version="1.0" encoding="utf-8"?>
<!-- Generator: Adobe Illustrator 27.9.0, SVG Export Plug-In . SVG Version: 6.00 Build 0)  -->
<svg version="1.1" id="Layer_1" xmlns="http://www.w3.org/2000/svg" xmlns:xlink="http://www.w3.org/1999/xlink" x="0px" y="0px"
	 viewBox="0 0 512 512" style="enable-background:new 0 0 512 512;" xml:space="preserve">
<g>
	<path d="M196.5,163.9c1.1-38,1.8-71.3,13.8-102.5c5.5-14.3,13.6-28.5,23.6-40.1c13-15.1,28.3-14,42.8-0.1
		c17.8,17.1,24.6,39.5,29.4,62.5c9.5,45.1,8.2,90.6,3.2,136c-7.7,69.4-24.6,136.8-43.9,203.7c-1.5,5-1.9,10.1-10,10.2
		c-8.4,0.1-9.1-5-10.7-10.5c-19-65.3-35.6-131.2-43.2-198.9C199,202.5,197.9,180.7,196.5,163.9z"/>
	<path d="M238.1,429.6c-26.5-24.3-46-53.7-63.5-84.4c-27.9-48.9-51.8-99.7-61.8-155.5c-11.1-62.1,4.3-115.9,56.3-155.6
		c15.9-12.2,34.5-19.1,54.6-23.3c-11.5,9.6-23.4,17.7-33.1,27.9c-33,34.8-43,78-40.9,124.3c3.5,76,29.9,145.7,61.8,213.6
		C219.9,394.6,229.2,412,238.1,429.6z"/>
	<path d="M288.5,11.8c31.5,5.7,58.3,20.1,78.8,45.1c33.5,40.9,42.5,88.1,30.5,138.5c-20,84.3-58.4,159.7-114.4,226
		c-2.4,2.9-4.5,6.1-6.8,9.1c-0.9-0.7-1.8-1.5-2.7-2.2c4.2-8,8.6-16,12.7-24c31.8-62.1,58.1-126.3,70.5-195.4
		c5.4-30.1,7.6-60.5,2.2-90.9C350.9,70.4,332.9,44.1,288.5,11.8z"/>
	<path d="M215.6,422.7c-2.9-3.6-5.8-7.3-8.9-10.8C156,354.1,114.1,290.9,89.8,217.1c-11-33.6-16.7-67.9-6.8-103
		c9.5-33.8,30.8-58.6,60.4-76.6c1.2-0.8,2.7-1.2,4.5-1.2C117.6,60.2,98.3,90.5,93.3,129c-3.6,27.5,0.6,54.4,8,80.8
		c16.4,59.2,46.6,111.5,81,161.6c11.4,16.6,23.6,32.7,35.5,49C217,421.2,216.3,421.9,215.6,422.7z"/>
	<path d="M369.4,38c20.8,12.3,37.5,28.8,49.2,50.3c18.6,34.1,18.5,70,9.9,106.5c-14.1,59.3-43.1,111.5-78.3,160.5
		c-17.1,23.8-36.3,46.1-54.5,69.2c-0.9-0.7-1.9-1.4-2.8-2.1c1.5-2.2,2.8-4.5,4.4-6.5c42.2-54.8,80-112.1,104.4-177.4
		c10.8-29,18.1-58.8,18.2-89.9c0.2-41.1-14.8-75.5-45.5-103c-2.2-2-4.7-3.7-7.1-5.5C368,39.4,368.7,38.7,369.4,38z"/>
	<path d="M292.7,458.1c-2.1,13-3.6,25-6.2,36.9c-0.6,2.6-4.8,6.2-7.5,6.3c-15.4,0.6-30.8,0.5-46.2,0.1c-2.4-0.1-6.3-2.7-6.7-4.6
		c-2.6-12.5-4.3-25.1-6.5-38.6C244,458.1,267.8,458.1,292.7,458.1z"/>
</g>
</svg>
