<?xml version="1.0" encoding="utf-8"?>
<!-- Generator: Adobe Illustrator 27.9.0, SVG Export Plug-In . SVG Version: 6.00 Build 0)  -->
<svg version="1.1" id="Capa_1" xmlns="http://www.w3.org/2000/svg" xmlns:xlink="http://www.w3.org/1999/xlink" x="0px" y="0px"
	 viewBox="0 0 512 512" style="enable-background:new 0 0 512 512;" xml:space="preserve">
<g id="Layer_2_00000160179771808616938590000012343114613390227615_">
	<g id="Surfaces_00000011025589363893555360000012951045396226248857_">
		<g id="Photo_Surface_00000064319397374028751260000006021035195232220068_">
			<g id="Outline_no_shadow_00000000920528630498191470000015192225660594134933_">
				<g>
					<path d="M416.5,503.2H95.5c-51.2,0-92.9-41.7-92.9-92.9V101.7c0-51.2,41.7-92.9,92.9-92.9h321.1c51.2,0,92.9,41.7,92.9,92.9
						v308.6C509.4,461.5,467.7,503.2,416.5,503.2z M95.5,18.5c-45.9,0-83.2,37.3-83.2,83.2v308.6c0,45.9,37.3,83.2,83.2,83.2h321.1
						c45.9,0,83.2-37.3,83.2-83.2V101.7c0-45.9-37.3-83.2-83.2-83.2H95.5z"/>
				</g>
			</g>
		</g>
	</g>
	<g id="Outlined_Mnemonics_Logos_00000096769775645482758270000007922855258734102155_">
		<g id="Fr_00000150078531379033308800000014306570974649708220_">
			<path d="M182.9,271.9v81.6c0.2,1.2-0.6,2.5-2.1,2.7c-0.2,0-0.4,0-0.6,0h-41c-0.6,0-1.4-0.2-1.9-0.6c-0.4-0.6-0.6-1.4-0.4-2.3
				V140.2c0-3.1,0.8-4.8,2.3-4.8h132.2c0.8,0,1.7,0,2.3,0.4c0.4,0.4,0.8,1.9,1,4.6l3.7,36.2c0.2,0.6,0,1.4-0.4,1.9
				c-0.6,0.6-1.4,0.8-2.1,0.8h-93v50.7h83.3c2.1,0,2.9,0.8,2.9,2.3V269c0.2,1.2-0.6,2.5-2.1,2.7c-0.2,0-0.4,0-0.6,0L182.9,271.9z"/>
			<path d="M298.5,190.5h36.2c2.1,0,3.7,1.4,4.3,3.3c0.8,1.4,1.4,3.1,1.7,4.8c0.4,2.1,0.8,4.3,1,6.4c0.2,2.3,0.4,4.8,0.4,7.5
				c6.2-7.2,13.7-13.3,22.2-17.8c9.5-5.2,20.1-7.7,30.9-7.5c1.4-0.2,2.7,0.8,2.9,2.3v0.8v40.4c0,1.7-1,2.3-3.3,2.3
				c-13.5-0.8-26.9,1.7-39.1,7c-4.1,1.9-8.1,4.3-11.2,7.7v105.6c0,2.1-0.8,2.9-2.7,2.9h-40.2c-1.7,0.2-3.1-0.8-3.3-2.5
				c0-0.2,0-0.6,0-0.8V238.2c0-5,0-10.1-0.2-15.5c-0.2-5.4-0.2-10.8-0.4-16.2c-0.2-4.6-0.6-9.1-1.2-13.7c-0.2-1,0.4-2.1,1.4-2.3
				C297.8,190.3,298.3,190.3,298.5,190.5L298.5,190.5z"/>
		</g>
	</g>
</g>
</svg>
