<?xml version="1.0" encoding="utf-8"?>
<!-- Generator: Adobe Illustrator 27.9.0, SVG Export Plug-In . SVG Version: 6.00 Build 0)  -->
<svg version="1.1" id="Camada_1" xmlns="http://www.w3.org/2000/svg" xmlns:xlink="http://www.w3.org/1999/xlink" x="0px" y="0px"
	 viewBox="0 0 512 512" style="enable-background:new 0 0 512 512;" xml:space="preserve">
<style type="text/css">
	.st0{fill:#030708;}
	.st1{fill-rule:evenodd;clip-rule:evenodd;fill:#030708;}
</style>
<g>
	<path class="st0" d="M284.9,394.8c-81.8,0-134-19.1-167.1-45.3c7-1.7,13.9-5.2,20.9-10.4c13.9-13.9,17.4-33.1,15.7-50.5
		c0-3.5-1.7-7-1.7-10.4c3.5,0,7,1.7,10.4,1.7c15.7,0,29.6-7,40-17.4c10.4,19.1,31.3,33.1,55.7,33.1c29.6,0,55.7-20.9,60.9-50.5
		c0-3.5,1.7-8.7,1.7-12.2c0-7-1.7-13.9-3.5-20.9c-8.7-24.4-31.3-41.8-59.2-41.8c-15.7,0-31.3,5.2-41.8,15.7c-3.5,3.5-7,7-10.4,12.2
		c-3.5-3.5-7-8.7-10.4-10.4c-8.7-7-20.9-12.2-33.1-12.2c-26.1,0-48.7,19.1-52.2,45.3c-5.2-3.5-8.7-7-13.9-8.7
		c3.5-13.9,12.2-27.8,22.6-36.6v-66.1c0-5.2,5.2-7,7-1.7v1.7c7,15.7,15.7,36.6,34.8,52.2c15.7,0,31.3,5.2,41.8,15.7
		c13.9-12.2,33.1-20.9,52.2-20.9c20.9,0,40,8.7,54,20.9c66.1-19.1,101-62.7,118.4-97.5c1.7-5.2,12.2-3.5,12.2,1.7
		c10.4,102.7,5.2,208.9-43.5,268.1c-17.4-12.2-34.8-20.9-47-27.8c-1.7,0-1.7-1.7-3.5-1.7c0-1.7,0-3.5,0-3.5l0,0
		c-3.5-10.4-12.2-20.9-24.4-24.4l0,0c-3.5-1.7-8.7,0-8.7,5.2c-1.7,3.5,0,8.7,5.2,8.7l0,0h1.7c-29.6,19.1-64.4,27.8-101,26.1h-8.7
		c-3.5,0-7,3.5-8.7,7c0,3.5,3.5,7,7,8.7h8.7c31.3,1.7,64.4-3.5,92.3-17.4l0,0c1.7,1.7,3.5,5.2,5.2,7c3.5,3.5,8.7,8.7,15.7,13.9
		c8.7,8.7,20.9,17.4,34.8,27.8C344.1,387.8,318,394.8,284.9,394.8L284.9,394.8z"/>
	<path class="st0" d="M375.5,368.6c-20.9-15.7-38.3-29.6-48.7-38.3c-1.7-1.7-1.7-1.7-3.5-3.5c-1.7-3.5-3.5-5.2-5.2-7
		c0-1.7,0-1.7,0-1.7s1.7-1.7,3.5,0c1.7,0,3.5,1.7,5.2,1.7c1.7,0,1.7,1.7,3.5,1.7c12.2,5.2,34.8,17.4,57.4,33.1c3.5,1.7,7,5.2,10.4,7
		c19.1,12.2,34.8,26.1,47,34.8c20.9-22.6,47,38.3,47,38.3s-66.1,7-54-24.4c-13.9-7-31.3-19.1-50.5-31.3
		C384.2,375.6,378.9,372.1,375.5,368.6L375.5,368.6z"/>
	<path class="st1" d="M131.8,323.4c-1.7,1.7-3.5,3.5-5.2,5.2c-19.1,17.4-55.7,8.7-81.8-20.9s-33.1-66.1-13.9-83.5
		c15.7-12.2,40-10.4,62.7,3.5c5.2,3.5,12.2,8.7,17.4,13.9c1.7,1.7,3.5,3.5,5.2,5.2c7,8.7,13.9,17.4,17.4,26.1
		c5.2,12.2,7,24.4,7,34.8C138.7,312.9,137,318.2,131.8,323.4L131.8,323.4z M74.3,250.3c0,13.9-8.7,24.4-20.9,24.4
		s-20.9-10.4-20.9-24.4c0-13.9,8.7-24.4,20.9-24.4S74.3,236.4,74.3,250.3z"/>
	<path class="st0" d="M173.6,260.7c17.4,0,29.6-13.9,29.6-29.6c0-17.4-13.9-29.6-29.6-29.6c-1.7,0-5.2,0-7,0
		c7,1.7,12.2,8.7,12.2,17.4c0,10.4-8.7,17.4-17.4,17.4c-7,0-13.9-5.2-17.4-12.2c0,1.7,0,5.2,0,7C144,246.8,157.9,260.7,173.6,260.7z
		"/>
	<path class="st0" d="M269.3,274.7c19.1,0,34.8-15.7,34.8-34.8S288.4,205,269.3,205c-1.7,0-3.5,0-5.2,0c8.7,1.7,15.7,10.4,15.7,19.1
		c0,10.4-8.7,20.9-20.9,20.9c-10.4,0-20.9-8.7-20.9-20.9c0-1.7,0-1.7,0-3.5c-3.5,5.2-5.2,12.2-5.2,19.1
		C234.5,259,250.1,274.7,269.3,274.7L269.3,274.7z"/>
</g>
</svg>
