<?xml version="1.0" encoding="utf-8"?>
<!-- Generator: Adobe Illustrator 27.9.0, SVG Export Plug-In . SVG Version: 6.00 Build 0)  -->
<svg version="1.1" id="Capa_1" xmlns="http://www.w3.org/2000/svg" xmlns:xlink="http://www.w3.org/1999/xlink" x="0px" y="0px"
	 viewBox="0 0 512 512" style="enable-background:new 0 0 512 512;" xml:space="preserve">
<g>
	<g>
		<path d="M415.9,502.2H96.1c-51,0-92.5-41.5-92.5-92.5V102.3c0-51,41.5-92.5,92.5-92.5h319.8c51,0,92.5,41.5,92.5,92.5v307.4
			C508.4,460.7,466.9,502.2,415.9,502.2z M96.1,19.5c-45.7,0-82.8,37.2-82.8,82.8v307.4c0,45.7,37.2,82.8,82.8,82.8h319.8
			c45.7,0,82.8-37.2,82.8-82.8V102.3c0-45.7-37.2-82.8-82.8-82.8H96.1z"/>
	</g>
	<g>
		<path d="M248.4,304.3h-76.7l-15.7,48.5c-0.4,1.9-2.1,3.1-3.9,2.9h-38.8c-2.3,0-2.9-1.2-2.3-3.7l66.4-191.2
			c0.6-2.1,1.2-4.3,2.1-6.8c0.8-4.3,1.2-8.9,1.2-13.4c-0.2-1,0.6-2.1,1.7-2.3h0.6h52.8c1.7,0,2.5,0.6,2.7,1.7l75.3,212.5
			c0.6,2.3,0,3.3-2.1,3.3h-43.1c-1.4,0.2-2.9-0.8-3.3-2.3L248.4,304.3z M183.6,262.4H236l-26.4-86L183.6,262.4z"/>
		<path d="M358.7,173.5c-6.8,0.2-13.4-2.5-18.4-7.2c-4.7-5.2-7.2-12-7-19c-0.2-7,2.5-13.6,7.4-18.4c5-4.7,11.6-7.2,18.4-7.2
			c8,0,14.2,2.5,18.8,7.2c4.5,5,7,11.6,6.8,18.4c0.2,7-2.3,13.8-7.2,19C372.8,171.2,365.7,173.9,358.7,173.5z"/>
		<path d="M335.6,352.5V193.7c0-2.1,0.8-2.9,2.7-2.9h40.8c1.9,0,2.7,1,2.7,2.9v158.8c0,2.3-0.8,3.3-2.7,3.3h-40.4
			C336.7,355.8,335.6,354.6,335.6,352.5z"/>
	</g>
</g>
</svg>
