<?xml version="1.0" encoding="utf-8"?>
<!-- Generator: Adobe Illustrator 27.9.0, SVG Export Plug-In . SVG Version: 6.00 Build 0)  -->
<svg version="1.1" id="Capa_1" xmlns="http://www.w3.org/2000/svg" xmlns:xlink="http://www.w3.org/1999/xlink" x="0px" y="0px"
	 viewBox="0 0 512 512" style="enable-background:new 0 0 512 512;" xml:space="preserve">
<g>
	<g>
		<path d="M415.6,501.8H96.4c-50.9,0-92.3-41.4-92.3-92.3V102.6c0-50.9,41.4-92.3,92.3-92.3h319.2c50.9,0,92.3,41.4,92.3,92.3v306.8
			C507.9,460.3,466.5,501.8,415.6,501.8z M96.4,19.9c-45.6,0-82.7,37.1-82.7,82.7v306.8c0,45.6,37.1,82.7,82.7,82.7h319.2
			c45.6,0,82.7-37.1,82.7-82.7V102.6c0-45.6-37.1-82.7-82.7-82.7H96.4z"/>
	</g>
	<g>
		<path d="M188.5,141.1v211.3c0,2.3-1,3.3-2.9,3.3h-40.4c-1.9,0-2.7-1-2.7-3.3V141.1c0-1.9,1-2.7,2.9-2.7h40.2
			c1.2-0.2,2.5,0.6,2.7,2.1C188.5,140.7,188.5,140.9,188.5,141.1L188.5,141.1z"/>
		<path d="M307.1,359c-15.2,0.2-30.5-2.9-44.3-9.3c-13-6-23.7-15.9-31.1-28c-7.6-12.6-11.3-28.2-11.3-47
			c-0.2-15.2,3.7-30.3,11.3-43.4c7.8-13.4,19.2-24.5,32.7-31.9c14.4-8,31.7-11.9,52.1-11.9c1,0,2.5,0,4.3,0.2s3.9,0.2,6.4,0.4V123
			c0-1.4,0.6-2.3,2.1-2.3h41.8c1-0.2,1.9,0.6,2.1,1.4v0.4v196c0,3.7,0.2,7.8,0.4,12.4c0.4,4.3,0.6,8.4,0.8,11.9
			c0,1.4-0.6,2.7-2.1,3.3c-10.7,4.5-22,7.8-33.6,9.9C328.5,357.9,317.8,359,307.1,359L307.1,359z M327.2,317.8v-90.6
			c-1.9-0.4-3.7-0.8-5.6-1c-2.3-0.2-4.5-0.4-6.8-0.4c-8,0-16.1,1.6-23.3,5.4c-7,3.5-13,8.6-17.5,15.2c-4.5,6.6-6.8,15.4-6.8,26.2
			c-0.2,7.2,1,14.4,3.5,21.2c2.1,5.6,5.1,10.5,9.3,14.6c3.9,3.7,8.6,6.6,14,8.2c5.6,1.9,11.3,2.7,17.1,2.7c3.1,0,6-0.2,8.6-0.4
			C322.5,319,325,318.6,327.2,317.8L327.2,317.8z"/>
	</g>
</g>
</svg>
