<?xml version="1.0" encoding="utf-8"?>
<!-- Generator: Adobe Illustrator 27.9.0, SVG Export Plug-In . SVG Version: 6.00 Build 0)  -->
<svg version="1.1" id="Layer_1" xmlns="http://www.w3.org/2000/svg" xmlns:xlink="http://www.w3.org/1999/xlink" x="0px" y="0px"
	 viewBox="0 0 512 512" style="enable-background:new 0 0 512 512;" xml:space="preserve">
<g>
	<path d="M412.6,382.8c0,8.8,65.2,14.6,65.2-2.1C468.5,353.8,420.3,355.6,412.6,382.8z"/>
	<path d="M404.4,400.9c-19.9,17.8,2.2,36,21.8,24.4C430.6,420.9,426.2,405.4,404.4,400.9z"/>
	<path d="M473,223.7L292.4,39.1c-22.1-21.2-58.9-21.4-79.9,0L38.2,217.4c-58.9,72.9,40.1,64.4,82.5,85.4
		c15.2,15.6-58.3,27-43.1,42.6c15.2,15.6,92,30,107.2,45.5c15.2,15.6-31.1,32-15.9,47.6c15.2,15.6,50.4,0.8,57,36.7
		c4.7,25.7,63.4,11,92.1-10c15.2-15.6-29.1-14.1-13.9-29.6c37.8-38.7,73.1-14.1,86-52.8c6.4-19.2-55.7-29.5-40.5-45.1
		C393.5,312.1,544.8,295.5,473,223.7z M256.6,344.1c-18.5,4.9-108.5-31.6-85.8-31.6c4.7,2.9,75.1,17.2,92.3,20.1
		C269,333.8,264.8,339.9,256.6,344.1z M353.6,145l-34.2-27.4l-6.7,40.5L284,143L238.2,172L223,111l-24.6,42.6h-37.6
		c-15.3,0-17.1-19.5-3.2-33.4c24.3-26.3,52.3-53,67.4-68.5c15.3-15.6,41.8-15.1,56.8,0l68.9,70C357.3,128.3,357.2,141.2,353.6,145z"
		/>
	<path d="M119,429.8c15.4,13.3,39.3-3.3,46.4-21.9C150.5,388,94.5,408.5,119,429.8z"/>
</g>
</svg>
