<?xml version="1.0" encoding="utf-8"?>
<!-- Generator: Adobe Illustrator 27.9.0, SVG Export Plug-In . SVG Version: 6.00 Build 0)  -->
<svg version="1.1" id="Layer_1" xmlns="http://www.w3.org/2000/svg" xmlns:xlink="http://www.w3.org/1999/xlink" x="0px" y="0px"
	 viewBox="0 0 512 512" style="enable-background:new 0 0 512 512;" xml:space="preserve">
<style type="text/css">
	.st0{fill:#FFFFFF;}
</style>
<g>
	<path d="M475.8,246c0,8.6,0,17.3,0,25.9c-1.2,8.5-2.1,17.1-3.7,25.5c-22.4,119.8-147.8,193.3-263.4,154.7
		C91.3,412.8,35.8,280.9,90,169.6c4.7-9.7,10.7-18.9,16.4-29c23.9,25.7,47.1,50.3,69.9,75.2c17.1,18.7,36,35.1,58.4,47.1
		c11.9,6.4,24.3,11.1,38.1,11.2c2.1,0,4.5,0.8,6.2,2.1c14,9.8,27.7,20.1,41.8,29.7c4.3,2.9,6.8,5.6,7.2,11.2
		c0.7,10.4,6.6,18.8,12.3,27.1c5.2,7.6,10.5,15.1,14.9,23.1c4.3,7.8,3.5,16.1-1.1,23.9c-0.5,0.9-1,1.8-1.6,2.8
		c20.5-11.8,35.6-27.7,40.4-51.4c3.6-17.6-0.1-33.8-11.7-47.7c-7.7-9.3-17.4-14.4-30-12.1c-1,0.2-2.4-0.5-3.2-1.2
		c-14.6-13.4-29.1-26.9-43.6-40.5c-1.3-1.2-2.3-2.8-3.1-4.4c-4-8.1-6.9-16.8-11.9-24.2c-15.6-22.7-36.7-39.4-60-53.5
		c-24.1-14.6-48.2-29-72.3-43.6c-5.6-3.4-11.2-6.9-17.8-10.9c-11.1,12.1-22.1,24.1-33.2,36.2c-0.1-0.1-0.5-0.4-0.9-0.8
		c-21.5-22-43-44-64.3-66.2c-2.5-2.6-4.7-5.9-5.9-9.3c-3-8.2,4.5-17,13-15.2c4.2,0.9,8.4,3,12.1,5.3c26.7,16.8,53.4,33.7,80,50.6
		c0.9-0.7,1.4-1.2,2-1.6C192,62.8,248.8,47.7,312.2,59.7c79.6,15,143.6,78.8,159.4,158.4C473.4,227.3,474.4,236.7,475.8,246z
		 M88.5,276c1,4.8,1.8,9,2.7,13.2c17.8,79.8,87.5,136.7,168.8,138.1c25.4,0.4,49.7-4,72-17c1.7-1,3.4-2.3,4.5-3.9
		c5.7-8,6.9-16.8,2.6-25.6c-2.6-5.4-5.9-10.5-9.3-15.4c-8.9-12.6-19.3-24.3-19.6-41.5c-37.2,25.9-76.9,39.4-121.7,28.2
		C144.7,341.1,112.3,314.5,88.5,276z"/>
	<path class="st0" d="M344.7,282.6c-0.5-0.4-1.5-1.1-2.3-1.9c-13-11.5-26.1-22.8-39-34.5c-2.6-2.3-4.6-2.4-7.2-0.6
		c-8.5,5.7-13.7,13.7-16.4,23.4c-0.4,1.6,0.8,4.6,2.3,5.7c12.9,9.5,26,18.8,39.1,28.1c1.2,0.9,2.6,1.5,3,1.8
		C331.2,297.1,337.7,290.1,344.7,282.6z"/>
	<path d="M344.7,282.6c-7,7.6-13.5,14.5-20.5,22c-0.4-0.2-1.8-0.9-3-1.8c-13.1-9.3-26.2-18.6-39.1-28.1c-1.4-1.1-2.7-4.1-2.3-5.7
		c2.7-9.7,7.9-17.7,16.4-23.4c2.6-1.7,4.6-1.7,7.2,0.6c12.9,11.6,26,23,39,34.5C343.2,281.4,344.2,282.1,344.7,282.6z"/>
</g>
</svg>
