<?xml version="1.0" encoding="utf-8"?>
<!-- Generator: Adobe Illustrator 27.9.0, SVG Export Plug-In . SVG Version: 6.00 Build 0)  -->
<svg version="1.1" id="Capa_1" xmlns="http://www.w3.org/2000/svg" xmlns:xlink="http://www.w3.org/1999/xlink" x="0px" y="0px"
	 viewBox="0 0 512 512" style="enable-background:new 0 0 512 512;" xml:space="preserve">
<g>
	<g>
		<path d="M416,502.3H96c-51,0-92.6-41.5-92.6-92.6V102.2C3.5,51.2,45,9.7,96,9.7H416c51,0,92.6,41.5,92.6,92.6v307.5
			C508.5,460.8,467,502.3,416,502.3z M96,19.4c-45.7,0-82.9,37.2-82.9,82.9v307.5c0,45.7,37.2,82.9,82.9,82.9H416
			c45.7,0,82.9-37.2,82.9-82.9V102.2c0-45.7-37.2-82.9-82.9-82.9H96z"/>
	</g>
	<g>
		<path d="M119.8,353.2V140.8c0-1.4,0.6-2.3,2.1-2.3c3.5,0,6.8,0,11.6-0.2c5-0.2,10.1-0.2,15.7-0.4s11.6-0.2,18-0.4
			c6.4-0.2,12.6-0.2,18.8-0.2c16.9,0,31,2.1,42.5,6.4c10.3,3.5,19.8,9.3,27.7,16.9c6.6,6.6,11.8,14.7,15.1,23.5
			c3.1,8.7,4.7,17.5,4.7,26.8c0,17.8-4.1,32.4-12.4,44c-8.3,11.6-19.8,20.2-33.2,25.2c-14,5.2-29.5,7-46.4,7c-5,0-8.3,0-10.3-0.2
			c-2.1-0.2-5-0.2-8.9-0.2V353c0.2,1.4-0.8,2.7-2.3,2.9c-0.2,0-0.4,0-0.8,0h-39.2C120.6,355.9,119.8,355.1,119.8,353.2L119.8,353.2z
			 M164.8,178.4v69.4c2.9,0.2,5.6,0.4,8,0.4h10.9c14.3,0,30.7-3.3,40.7-14.7c8.6-9.7,8.6-29,1.7-39.6c-8.2-12.6-24.7-16.2-38.8-15.9
			c-5.4,0-10.1,0-14,0.2C169.1,178,166.2,178.2,164.8,178.4L164.8,178.4z"/>
		<path d="M404.6,235.2c-6.2-3.3-12.8-5.6-19.8-7c-7.6-1.7-15.3-2.7-23.1-2.7c-4.1-0.2-8.5,0.4-12.4,1.4c-2.7,0.6-5,2.1-6.4,4.1
			c-1,1.7-1.7,3.7-1.7,5.6s0.8,3.7,2.1,5.4c1.9,2.3,4.3,4.1,7,5.6c4.7,2.5,9.7,4.7,14.7,6.8c11.1,3.7,21.9,8.9,31.8,15.1
			c6.8,4.3,12.4,10.1,16.3,17.1c3.3,6.6,5,13.8,4.7,21.3c0.2,9.7-2.7,19.4-8,27.5c-5.8,8.3-13.8,14.7-23.1,18.4
			c-10.1,4.3-22.5,6.6-37.4,6.6c-9.5,0-18.8-0.8-28.1-2.7c-7.2-1.2-14.4-3.5-21.1-6.6c-1.4-0.8-2.5-2.3-2.3-3.9v-35.9
			c0-0.6,0.2-1.4,0.8-1.9c0.6-0.4,1.2-0.2,1.9,0.2c8,4.7,16.5,8,25.6,10.1c7.8,2.1,16.1,3.1,24.4,3.1c7.8,0,13.4-1,17.1-2.9
			c3.3-1.4,5.6-5,5.6-8.7c0-2.9-1.7-5.6-5-8.3c-3.3-2.7-10.1-5.8-20.2-9.7c-10.5-3.7-20.2-8.7-29.3-14.9
			c-6.4-4.5-11.8-10.5-15.7-17.5c-3.3-6.6-5-13.8-4.7-21.1c0-8.9,2.5-17.3,7-25c5.2-8.3,12.8-14.9,21.7-19c9.7-5,21.9-7.2,36.5-7.2
			c8.5,0,17.1,0.6,25.6,1.9c6.2,0.8,12.2,2.5,17.8,4.7c0.8,0.2,1.7,1,2.1,1.9c0.2,0.8,0.4,1.7,0.4,2.5v33.6c0,0.8-0.4,1.7-1,2.1
			C406.5,235.6,405.4,235.6,404.6,235.2L404.6,235.2z"/>
	</g>
</g>
</svg>
