<?xml version="1.0" encoding="utf-8"?>
<!-- Generator: Adobe Illustrator 27.9.0, SVG Export Plug-In . SVG Version: 6.00 Build 0)  -->
<svg version="1.1" id="Capa_1" xmlns="http://www.w3.org/2000/svg" xmlns:xlink="http://www.w3.org/1999/xlink" x="0px" y="0px"
	 viewBox="0 0 512 512" style="enable-background:new 0 0 512 512;" xml:space="preserve">
<g id="Layer_2_3_">
	<g id="Surfaces_3_">
		<g id="Video_Audio_Surface">
			<g id="Outline_no_shadow_3_">
				<g>
					<path d="M415.9,502.2H96.1c-51,0-92.5-41.5-92.5-92.5V102.3c0-51,41.5-92.5,92.5-92.5h319.8c51,0,92.5,41.5,92.5,92.5v307.4
						C508.4,460.7,466.9,502.2,415.9,502.2z M96.1,19.5c-45.7,0-82.8,37.2-82.8,82.8v307.4c0,45.7,37.2,82.8,82.8,82.8h319.8
						c45.7,0,82.8-37.2,82.8-82.8V102.3c0-45.7-37.2-82.8-82.8-82.8H96.1z"/>
				</g>
			</g>
		</g>
	</g>
	<g id="Outlined_Mnemonics_Logos_3_">
		<g id="Pr">
			<path d="M192,137.4c16.9,0,30.9,2.1,42.5,6.4c19.4,7.3,35.4,20.7,42.7,40.4c3.1,8.7,4.7,17.5,4.7,26.8c0,30.4-16,58.2-45.6,69.1
				c-14,5.2-29.5,7-46.4,7c-5,0-8.3,0-10.3-0.2c-2.1-0.2-5-0.2-8.9-0.2V353c0.2,1.4-0.8,2.7-2.3,2.9c-0.2,0-0.4,0-0.8,0h-39.2
				c-1.7,0-2.5-0.8-2.5-2.7V140.9c0-1.4,0.6-2.3,2.1-2.3c3.5,0,6.8,0,11.6-0.2L192,137.4z M171,178.4v69.3c2.9,0.2,5.6,0.4,8,0.4
				H190c8,0,16.1-1.2,23.7-3.7c14.8-4.8,23.3-16.8,23.3-32.2c0-12.9-6.8-25.4-19.2-30.1c-7.6-3.1-15.9-4.3-24.3-4.1
				c-5.4,0-10.1,0-14,0.2C175.3,178,172.5,178.2,171,178.4L171,178.4z"/>
			<path d="M310.9,190.4H347c2.1,0,3.7,1.4,4.3,3.3c0.6,1.7,1,3.3,1.2,5.2c0.4,2.1,0.8,4.3,1,6.4c0.2,2.3,0.4,4.7,0.4,7.4
				c6.2-7.2,13.6-13.2,22.1-17.7c9.5-5.4,20.4-8,31.4-8c1.4-0.2,2.7,0.8,2.9,2.3v0.8v40.2c0,1.7-1,2.3-3.3,2.3
				c-7.4-0.2-15.1,0.4-22.3,2.1c-6,1.2-11.8,3.1-17.3,5.6c-3.9,1.9-7.6,4.3-10.5,7.6V353c0,2.1-0.8,2.9-2.7,2.9h-40.6
				c-1.7,0.2-3.1-0.8-3.3-2.5c0-0.2,0-0.6,0-0.8V238.3c0-5,0-10.1-0.2-15.5c-0.2-5.4-0.2-10.7-0.4-16.1c0-4.7-0.4-9.3-0.8-14
				c-0.2-1,0.4-2.1,1.4-2.3C310.3,190.2,310.7,190.2,310.9,190.4z"/>
		</g>
	</g>
</g>
</svg>
