<?xml version="1.0" encoding="utf-8"?>
<!-- Generator: Adobe Illustrator 27.9.0, SVG Export Plug-In . SVG Version: 6.00 Build 0)  -->
<svg version="1.1" id="Layer_1" xmlns="http://www.w3.org/2000/svg" xmlns:xlink="http://www.w3.org/1999/xlink" x="0px" y="0px"
	 viewBox="0 0 512 512" style="enable-background:new 0 0 512 512;" xml:space="preserve">
<g>
	<path d="M28.3,190.1c16.5-21.6,32.7-42.8,49-64.1c15.2-19.9,30.6-39.7,45.6-59.7c3.6-4.8,7.5-7.2,13.7-7.9
		c37.5-4.1,74.8-9.7,112.3-12.9c15.3-1.3,31.1,1.6,46.5,3.3c29,3.1,58,6.5,86.9,10.2c3.6,0.5,7.9,2.7,10,5.5
		c29.8,39.9,59.2,80.1,88.9,120.1c2.9,3.9,3.7,6.4,0.2,10.5c-74,88.7-147.8,177.6-221.6,266.5c-0.9,1.1-1.3,2.7-2.4,5.3
		C180,373.3,104.4,282,28.3,190.1z M256.8,439.5c41.4-82.1,82.1-162.8,123.2-244.2c-82.6,0-163.5,0-245.7,0
		C175.2,276.7,215.6,357.4,256.8,439.5z M137.6,186.3c80.6,0,158.9,0,239,0C336,143.5,296.6,102,256.8,60
		C217.2,102,178.2,143.3,137.6,186.3z M42.1,194.7C111.8,278.9,179.8,361,247.7,443c0.1-4-1.3-7.1-2.9-10.1
		c-37-74-74.4-147.8-110.8-222.1c-6.2-12.7-13-17.5-27.2-16.5C86.2,195.8,65.3,194.7,42.1,194.7z M471.4,194.7
		c-26.4,0-50.5,0.2-74.5-0.2c-6.3-0.1-9.2,2.2-11.9,7.7c-37.9,75.5-76,150.8-114.1,226.1c-1.6,3.3-3,6.7-4.5,10
		c0.6,0.3,1.1,0.7,1.7,1C335.3,358.5,402.6,277.5,471.4,194.7z M263.4,52.9c-0.3,0.6-0.6,1.2-1,1.8c39.7,41.8,79.4,83.7,120.3,126.8
		c0-39.5,0-77,0-115C342.6,61.9,303,57.4,263.4,52.9z M252.9,52.8c-6.6,0.5-10.4,0.7-14.2,1.2c-33,3.9-65.9,8.1-99,11.7
		c-6.5,0.7-8.4,2.8-8.4,9.1c0.3,32.7,0.1,65.3,0.2,98c0,2.1,0.6,4.1,1.2,7.6C172.9,137.7,211.9,96.3,252.9,52.8z M391.4,75.9
		c0,38.2,0,74.4,0,110.6c27.1,0,53.5,0,81.6,0C445.5,149.3,419,113.3,391.4,75.9z M123,186.7c0-35.7,0-70.8,0-107.7
		c-27.9,36.5-54.6,71.4-82.3,107.7C69.3,186.7,95.8,186.7,123,186.7z"/>
</g>
</svg>
