<?xml version="1.0" encoding="utf-8"?>
<!-- Generator: Adobe Illustrator 27.9.0, SVG Export Plug-In . SVG Version: 6.00 Build 0)  -->
<svg version="1.1" id="Layer_1" xmlns="http://www.w3.org/2000/svg" xmlns:xlink="http://www.w3.org/1999/xlink" x="0px" y="0px"
	 viewBox="0 0 512 512" style="enable-background:new 0 0 512 512;" xml:space="preserve">
<style type="text/css">
	.st0{fill:#FFFFFF;}
</style>
<g>
	<path class="st0" d="M19.9,177.8c0.7,2,1,3.3,1.5,4.5c14,36.8,28,73.6,42,110.5c2.7,7.2,2.7,7.1,10.3,7.3c3.2,0.1,4.8-0.8,6.1-3.9
		c6.1-14.9,12.6-29.6,18.9-44.4c0.6-1.3,1-2.6,1.8-4.5c-2,0-3.4-0.2-4.8,0c-4.3,0.8-6.1-1.3-7.5-5.2c-7.6-20.2-15.4-40.3-23.1-60.5
		c-1.1-2.8-2.4-3.8-5.4-3.7c-5.9,0.2-11.8,0.1-17.7,0.1C34.8,177.8,27.6,177.8,19.9,177.8z"/>
	<path d="M492.1,237.1c-6.3,2.2-12.9,3.7-18.7,6.8c-9.5,5.2-13.6,14.5-14.3,24.9c-0.8,11.7-0.6,23.6-0.7,35.4c-0.1,10,0,19.9,0,30.2
		c-13.7,0-27.3,0-41.2,0c0-28.9,0-57.8,0-87c-4.5,0-8.7,0-13.4,0c0,1.2,0,2.5,0,3.7c0,13.2,0.1,26.5-0.1,39.7c0,3,0.7,4.3,3.9,4.8
		c5.8,0.8,5.8,1,5.8,7.1c0,10.3,0,20.7,0,31.1c-9.6,2.4-19,2.1-28.4,0.5c-5-0.9-10.2-1.9-14.6-4.2c-4.7-2.5-8.5-6.6-13.3-10.4
		c-14.4,11.4-32.1,16.9-51.7,14.7c-19.7-2.2-35.6-11.7-48-27.4c-18.2,21.9-41.2,31.8-69.2,26.5c-27.8-5.2-45.5-22.8-54.8-49.9
		c-2.2,4.8-4.1,9-6,13.2c-5.2,11.6-10.4,23.2-15.4,34.8c-1,2.3-2.1,3.4-4.9,3.3c-8.7-0.2-17.3-0.2-26,0c-2.7,0.1-4-0.9-4.8-3.3
		c-1.6-4.6-3.5-9.2-5.7-14.6c7.2,2.5,8.3-2.4,10.1-6.6c18.1-42.6,36.4-85.2,54.4-127.9c1.3-3.1,2.9-4,6.1-3.9
		c11.3,0.2,22.6,0.1,33.9,0.1c1.4,0,2.8,0,5,0c-3.6,8.1-6.8,15.4-10.2,23.2c34.3-13.7,63.3-6.8,87.3,20.4
		c29.8-31.6,63.1-36,100.5-12.5c0-6.3,0.2-12.4-0.1-18.4c-0.2-3.6,1.1-4.9,4.6-5.6c13.3-2.7,26.6-5.9,40.6-9c0,11.4,0,22.4,0,33.5
		c5.1,0,9.5,0,14.2,0c-0.7-3.8,1.7-4.5,4.6-5.3c10.8-2.8,21.5-5.8,32.2-8.8c0.9-0.2,1.7-0.4,3.1-0.7c0,3.5,0,6.7,0,10.6
		c2.5-1.3,4.2-2.2,6.1-3.1c7.9-4,16.3-6.4,25.2-6.8c1.3-0.1,2.6-0.4,3.9-0.6C492.1,209.3,492.1,223.2,492.1,237.1z M334.5,241.5
		c-16.8-12.8-35.3-7.3-44.5,3.9c-10.3,12.6-9.2,30.7,2.3,42.2c9.9,9.8,30.3,14.3,46.1-2.4c5.9,3.4,11.9,6.8,18,10.2
		c0-16.8,0-33,0-49.6c-4.1,0-8,0-12.4,0c0-4.1,0-7.8,0-12C340.5,236.7,337.5,239,334.5,241.5z M186.8,289.5c0.9,0.6,1.4,0.9,1.8,1.1
		c14.4,6.8,31.5,1.7,39.7-12.1c1.6-2.7,3.1-3.3,5.9-2.3c3.3,1.1,6.8,1.7,9.8,2.4c0-9,0-17.7,0-26.8
		C225.1,264.3,206.2,276.7,186.8,289.5z M216.1,235.2c-9.9-6.4-24.9-4.7-34.5,3.5c-8.9,7.6-13.5,21.7-9.6,30.2
		C186.7,257.7,201.2,246.5,216.1,235.2z"/>
	<path d="M19.9,177.8c7.8,0,14.9,0,22.1,0c5.9,0,11.8,0.2,17.7-0.1c3-0.1,4.4,0.9,5.4,3.7c7.6,20.2,15.5,40.3,23.1,60.5
		c1.4,3.8,3.2,6,7.5,5.2c1.4-0.2,2.8,0,4.8,0c-0.8,1.9-1.3,3.2-1.8,4.5c-6.3,14.8-12.8,29.6-18.9,44.4c-1.3,3.1-2.9,4-6.1,3.9
		c-7.5-0.2-7.6-0.1-10.3-7.3c-14-36.8-28-73.6-42-110.5C20.9,181,20.5,179.8,19.9,177.8z"/>
</g>
</svg>
