<?xml version="1.0" encoding="utf-8"?>
<!-- Generator: Adobe Illustrator 27.9.0, SVG Export Plug-In . SVG Version: 6.00 Build 0)  -->
<svg version="1.1" id="Layer_1" xmlns="http://www.w3.org/2000/svg" xmlns:xlink="http://www.w3.org/1999/xlink" x="0px" y="0px"
	 viewBox="0 0 512 512" style="enable-background:new 0 0 512 512;" xml:space="preserve">
<g>
	<path d="M252.4,276.8c15,2,29.7,2.5,43.6,6.1c84.8,21.8,148,70.6,185.6,150.7c2.1,4.5,4,9.4,4.4,14.3c0.8,9-3,11.6-11.1,7.7
		c-7.8-3.8-15.6-7.9-22.6-13c-12.2-9-24.1-18.5-35.5-28.4c-7.2-6.2-10.8-13.9-7.1-24.1c3.6-9.9,1.2-19.6-6.9-26
		c-8.4-6.7-17.8-12.8-27.6-17.3c-29.6-13.3-61.3-18-93.4-20.3c-20.1-1.4-40.3-2.1-60.5-2c-4.9,0-10.7,3.4-14.4,6.9
		c-18.5,17.3-35.8,35.8-54.6,52.6c-27.4,24.4-58.9,42.2-94.8,50.8c-8,1.9-16.7,2.3-25,1.8c-8.7-0.5-11.6-5.5-7.9-13.4
		c4.9-10.6,10-21.5,17-30.8c25.9-34.1,60.2-58,98.3-76.2c24.2-11.6,49.4-21.2,74-32c4.2-1.9,8.7-4.3,11.8-7.6
		c20.6-21.8,40.9-44,61.3-66c0.9-1,1.6-2.1,3.1-4.1c-15.8-9.9-31-20-46.8-28.9c-9.9-5.6-20.7-9.9-31.3-13.9
		c-11.8-4.5-23.4-2.4-34.1,3.7c-10,5.7-19.6,12-29.2,18.4c-8.6,5.7-13,14-12.2,24.4c0.8,10.9-4.3,17.5-14.2,21.1
		c-11.3,4.1-22.6,8.6-34,12.5c-3.5,1.2-7.4,1.2-13.1,2.1c1.1-5,1.1-8.8,2.8-11.6c29.8-47,68.4-82.6,124.8-94
		c27.7-5.6,54.9-1.5,81.2,7.9c14.2,5.1,28.3,10.8,42.2,16.8c9.3,4,17.1,1.9,25.3-3.2c9-5.6,18.7-10.1,28.2-14.7
		c2.9-1.4,6.5-2.1,9.8-2.1c11.4-0.1,22.4,2,28.5,12.7c6.1,10.7,1,20.5-5.9,28.6c-14.8,17.6-31.6,32.8-54.8,38.8
		c-15,3.9-29.1,0.6-42.6-5.7c-6.9-3.2-11.2-1.7-16,3.7c-14.5,16.8-29.5,33.1-44.3,49.7C253.6,274.2,253.2,275.5,252.4,276.8z
		 M182.2,331.7c-0.5-0.7-1-1.3-1.5-2c-1.4,0-2.8-0.2-4.1,0c-37.1,8.1-72.3,20.6-102.9,43.8c-11.2,8.5-19.4,19.4-23.5,33.1
		c-3,10,1,14.7,10.7,11.9c9.6-2.8,20-5.2,28.2-10.6c20.8-13.6,41.2-28.1,60.6-43.7C161.6,354.8,171.5,342.7,182.2,331.7z
		 M357.6,172.2c0.3,1.2,0.5,2.4,0.8,3.6c13.5,4.1,27.1,7.2,40.6,0.6c4.3-2.1,7.2-6.9,10.7-10.5c-4.7-1.8-9.9-5.9-14.1-5
		C382.8,163.6,370.3,168.3,357.6,172.2z"/>
	<path d="M303.2,125c-14.4-1.1-25.5-2.5-33.7-11.6C253.4,95.5,264,62.9,289,55.5c6.3-1.8,14.9-1,20.8,1.9
		c20.3,10,29.6,28.1,32.4,49.9c0.7,5.9-1.8,10.8-8,12.1C322.9,121.9,311.5,123.5,303.2,125z"/>
</g>
</svg>
